<mxfile host="65bd71144e">
    <diagram id="4oxNnoyrzOXIOeT75r_5" name="Page-1">
        <mxGraphModel dx="1115" dy="779" grid="1" gridSize="10" guides="1" tooltips="1" connect="1" arrows="1" fold="1" page="1" pageScale="1" pageWidth="850" pageHeight="1100" math="0" shadow="0">
            <root>
                <mxCell id="0"/>
                <mxCell id="1" parent="0"/>
                <mxCell id="12" style="edgeStyle=none;html=1;entryX=0;entryY=0.5;entryDx=0;entryDy=0;startArrow=classic;startFill=1;" parent="1" source="7" target="15" edge="1">
                    <mxGeometry relative="1" as="geometry">
                        <mxPoint x="270" y="300" as="targetPoint"/>
                    </mxGeometry>
                </mxCell>
                <mxCell id="7" value="User" style="shape=umlActor;verticalLabelPosition=bottom;verticalAlign=top;html=1;outlineConnect=0;" parent="1" vertex="1">
                    <mxGeometry x="90" y="295" width="30" height="60" as="geometry"/>
                </mxCell>
                <mxCell id="19" style="edgeStyle=none;html=1;startArrow=classic;startFill=1;" edge="1" parent="1" source="49" target="16">
                    <mxGeometry relative="1" as="geometry"/>
                </mxCell>
                <mxCell id="20" style="edgeStyle=none;html=1;entryX=0;entryY=0.5;entryDx=0;entryDy=0;startArrow=classic;startFill=1;" edge="1" parent="1" source="48" target="17">
                    <mxGeometry relative="1" as="geometry"/>
                </mxCell>
                <mxCell id="21" style="edgeStyle=none;html=1;startArrow=classic;startFill=1;" edge="1" parent="1" source="41" target="18">
                    <mxGeometry relative="1" as="geometry"/>
                </mxCell>
                <mxCell id="15" value="Store Manager Agent" style="shape=image;verticalLabelPosition=bottom;labelBackgroundColor=default;verticalAlign=top;aspect=fixed;imageAspect=0;image=data:image/png,iVBORw0KGgoAAAANSUhEUgAAAD8AAAA/CAYAAABXXxDfAAAAAXNSR0IArs4c6QAAAARnQU1BAACxjwv8YQUAAAAJcEhZcwAADsMAAA7DAcdvqGQAABWbSURBVGhD7Zp5UNRnmsedSTKZqZk9pmZmt2pmZ/b4J7s1Vbv7x1bt1NRk5/CMmgj0QTcNfXfTB01zyqW0HAKCihgv8IgXHhhjooZEjYLibSOeiPTxu/oEDBGBxiN+t9731ySmt3YrMSSZyvpU/aosu6t8f1++z+f5Pi9Om/asntWzelbP6s+jmt14obkZL2AavpP42be6GrY//mH9gQc5y99+4Gxqf/yzxM+/1VW2bcRkb34ULWwF8reOyxM//1aXrim2dU7Fx3ilGlCvHF3rah35aeJ3vpVVuWPwpdTa2Nnpi4GXSx5DsWy8N3vtvX9N/N63sgo3jBjllbHIjOJH+F3BfcgbAEPjWEri9751BeC7eatjrWnVH2POwgnMKJzAgiogs2mi1bVr7OeJ3/+zKJcL333c/vjFx2cf/+BpHnTg++joeL5xd8zqbJwIK1yP8FpxDPOKYnil+D6MKx+hZFPM1NZ243uJ//Y3Vh0deH5o79gvwpuG/zi4bcQ2uG208M7W0YI720cLhneOFtzdOVowGn8myLN78hkveEAe8nfbhwsiOyO5h/cO19Rs+dhrrwcUZROQl04gpSRGRZBVPETe2thIXet9Xeth/Bj4hme/u9n9gm/z0Axh/d2uobWPcGflQ9xpuI+PGh5gZPkDjK54iPHGh5hY9RD3Vz3Ew9WP8PHqR0DTQ2D1fTxaN4HxlglENo/h3J4JNLcCecsfQO+KQbMohvRFMSjLYpCVTCC5JAZV1UMUtTxATevEplVtD3635cD4L48cefzDb0QIz9rhP3qWD0eZ4jHcMAygVxdFny4Kj34APsMAOOMgBPMgQpmDiGQOYsAyhAHrAILZEXhKorhYP4RDm0ewcdcEalruY2FdDFkVMVhcMZjKY9AvjkEbF4E4QVoyAUX5fTjXAK43HqF6x8T5+t0Ti5cdePxyc+vIT782ETxrx395s/rDI73Oe3CnhXFZFca1jAhuqCPo00TRrxuATz8I1jAI3jiIoGkIIfMgWD2Hrgoe2/eOYs3O+6hfOwFXQwzFS2MoqIohryoGZ+U4sirGYV0Sg9kVg748BvWiGNJKJyArnoCEtMHi+9Aue4zcDUD5TsC19aPlrrbojxLPOeXlbsYLVyoH9L0Lx3EmNYyLygjcqgiupEdxLSOKm+oB9Gmj8FABBkQBTOSJ4qauD3sLr6OilkVpZQSl1cNYtPQeFtWMo6xGFKGw+rMiECcYy2PQLo4hvSyG1JIYkheOY37BGObkjWBuXhj6au6Qvab3J4lnnfK63jjyL+eKI32nMwZxUhakApxXhnCJOCA97gBNBLe0xAFRKgBjHARjjKJX7cFR1QWsN5zB0iw3XAU3saiMQVnVIMpr76G89n+KkF0xDhtxARGgbAzKortIzgk+mGv3C38yXXe/rHVvmWm88O9k4iSedUrrxprojy647iy56BjD0ZQgjkuC6JKFcTo1hAuKMBWgRxXB1YwIbqqjuBVvAa9hEH7DIHyGEHo1HvQoe9CVegZvpZ/COuMZLM3pQXk5hyW1d1FRN/6JCEXVMeRXxZBDWFB+D4aiCLTO3oEks3vTTON56RxH+18mnvErq67qyG8686N326UhtCcFcEQSwAlpCJ1y4oAQzsUd0J0epgIQBhABbuui8BoG4KcOIE4Iw6vncUtzG1eUbhxVdGKd+Swqy1lULbuH6mUxLKkbx+KaGEqXxpBfOQZ7cQgNzts4Xd7bFWrw/33i2b7SOlYT+MmJxdEdJ0wjOPCagMNJQSrAsZQQjksDOCkLUQecV4RxkUJQdMANdRS9RADKgSj8ejIJhiCYyUP+HEKfug9dqV1osZ5HTVUItfXjWFofQyVxQc048pcMYrWzDx5LP1Azgok1Q9kkGCWe8Suptra25zpqBua/lzeAfZIA9iXxOJAUwMEFPNqTRQcclwapA4gAZ5UhKkC3Kowr6RFcU0dwUxtBnzZCBSCTgKEgHEKQiGCK4Ja6Dx8oTmJd4Q0sq7+L+oYYautjcNWOoqaUw3WbD6P2KB4tvIeJFR/xjzeP/lviOb+SOvr64M/fKx84vV87gF0pAvYk89iXHMD+JB6HkgJ4NzkgMkAapA7oIi1AHKAMozuNTIIIrpNJ8BkQEgGGwJnIyw+BMYbQo7iMPdaLaKqJYOWKcSxvIC//Id7NYxC1hzDmuEMfLP0Y99eMNA6/MfzXiWed0mpv6n/x3eqI5VDBCLZIOWyTCtgp4bFbEsDeZB77kwN4J0lAe3IQR5IDFIIdsiC65CGcVYRwQRmGWxVGTwZpgzDlQK82gtsEhDoRhKxpEJxpALfUHhxRn0Wzy4/Vq8bQuGIc9TUR9GQLuGsbxEjWHdzLuoPx3GGML/vo/sONsT8knndK6+1lgZf2lQW4rZoINso4vCEXsFXKY4c0gNYUHm0pAbyZLOCdlCB1wJGUID4gAkhDOEUEoKMwjEuqiMiB9CiuUwEICAfiiXAQrHEQHr2AM/Lz2FZ0E2tX3UXjylHsKBfgsQcxbBvCR/Y7uJt1h4rwcNE4oiuiBw+9Obxw1wf3/jbx3F+6jmwP//CduoH6XbnDWKvgsT6VRUsqj01EBJmAbVIerZIAdqfweFMi4ECKgMMpAbyXEsCxuAOIAGQSTIKwO520QRjXMyIUhCQQ0URoGITHEMElxTXstV3C60s51DUE8X4+A8ESwZB1CHdsdzBsv0NFiGYG0F0t4K23gI2tMWNbG6Zu4yNZef8K4Tc7ykLjqzM4rFYKWKNgsV4hoFnOYlOqgC0yHtukAewgbSAV0EYEkARwkAggCeKoJEhHIZ0E8rDIgbQIjcQkD5BEeEMTxS3tAHVBvz6Kq+k+HFFdwOasS9hYeA3dFhZh8yCiliEMWocwZBvCoG0QfvUtvFkZQPWyB1i2Zuzo8uYpvOpqq/P9VWtN4O0NjiHUpzFYqeKxSsnidSWPtQoWGxQ8WuQcNst5vCHjsEMqYJeER5tUwFsSAQclAbybEqACEA50xkF4VhHGBZIHVCQRPjEOtWQxGkCvNgi3sg+dqiu4pOmDTx9GwDyEcOYQIpY7VISAjofbehPr64dR5BpHVcPow/VbYjPJZUjie3zhamvDczsbQykbysKo1QioSWdQn85jeRqLRpWAJiWLNUoe61I5NKfy2CjnsEUmsqBVKmCvRMB+aQBvEwEkAbwvCeADSSjeBp8Gos+OQ9EFpBV6NWH0agLw6EJgyIZoGoRgHICgi4CxhHBtIYd3GgdQXzeG4rIxuKofomn9xPnWPQ8lh7s++vE0THv6DW/7uvDfbKqLXKm1CajUcKjK8KNGzaEunUFDOo8VaQxWpfFYrWCxVhlnAXGBjMNWuYAdMgF7ZAHsIwJIAzgkebINyDgkeSCIcyQWK0PiNIi7gMLwCRZ49WQqRNBrC6CnIozTjUM42DKC9a/HUFUxjtLSMRSWjGJpA7Bq/X22edvEts277uW/sXP4i+d9clXUspzLa1r0IUp1fizWcXBp/KjScKjOYFCXwaNexWJFOofGNBarlbzIAuICORd3AYftch67ZDzaZAG8JQ2IbSAhgSiID0ggio/D0wrigjgM6XY4uR6LLiAiXE/ncSrrFvY0+bFhQxiNDcOorRhB5eIxLC4dQ3HxGPIKR5FfNorqFUBFffBR/TrO2tzsfiHx/f7P2rwy8k8rq/hIqU1Aod6PEgOHMq0fLh2HJWoG1WoeSzNYLIuLsDKdR2MaR1mwRsFhfarIgi1yHtvkPFrlASrAflkA78gCeFcaxPuSIJ0GFIZywoIwTYUX0j67HF1XkxWZCMKjI+MaduvOYa3+DGptl7GkKICqshG4SsdQWjQKu3MAubZ+ZGivbtFYeuwlrr5//kI/eaLUqgbOUlkSRY6JRZ7Bh4UGDkU6H8r0HBZp/Fii5VChZrBUzYksyODQoGLRmMajSclhjZLDOgVhAYdNctIGPHbKeOyRC9gnE3BAFsBBaQDtkjgMpWQkkkwgRuNJFpBWmATi1QyyMPlxRnYNR1POYZe0A8uNF1G5MIIK8pMv/AguUx8OZt/C8aLu/3qqW50VK87+oKrC90aOg4PDzMJp9CHfxKHA4EORgUOJzo9FOg7lGgaVWh5VahY1GYQFbJwFnMgCJRfPBRw2pvLUBdtTBeySC2iTx10gDeBdWRDvS4kLQuJ2+MREIMGIjkWaDqMUilcyQriczqJLdgVtycdRl92PiuIRlOSFcEhzC0J2BD4Xa0QzvpjdSeXmnv3BwqJr2202P2yZDOwmL5xmFjkGL/KNLG2DYj2LUu0kCxhUqlnKgtoMDsvSWSxXcViZxqKJtsKnLticylMXtMoJDAW8GXfBIeICqbgc0WQYD0Z0QaIixNdkVYSKQJzgVnE4uuAc1hjdcOWFsdLhR4+WR8D+IW4uZKw3XE9xxW02u19w5HXnZWb5YLayyMz0wm7h4DD5kGNmkWv0o9DIYSFhgZ5FmZaBSzvJAg41cRY0EAFILoizYK2Co7mAuOCNVAHb5QJ2P+kCWQCHpQG8JxUnwnEpGYukFcI4rSDhKEJ3hEuqKG0FcmN0UtaL1tQzKHFcR5upHze0YXisA3Bn3X75qWxPylJ49SW15eKI3uaHPrMfZgsDi9kDu5mBw+hFjomhLCg0sJQFpXoWiwgQNQxlQTVtBQbL0jksJ0BUcaILFJ9lAYWhTMBuGWFBfCKQVqC5gIhALkrEcERFoDyYFCGCM6l+tEsuY6eqB10ZDG5qozijv97tNvc9fdJzONpfzMjsWqJ3+qG1emG0szBl+mC1crCZ/cimLPAjz8SiwOBHkZ6wgPmEBRUkF8RZQNqAsIAIQFhA2oCwYEOcBWRJ2kFd8OlEILngsDT4CRBJK4g8CNKpQPcEZQTnFEGcljM4l+pHd1oIFzUMOvQ9SW0yPJf4Tl+oMszHfqWyX/CobB5o7H7oLB4YrQzMmV5YM/2UBdkmP5wGH/KMDAr0RARGBCJphSdYUEdagYhAWSC6gIzEtTQdkngsToQdMp66gMbjeDo8LAmgPUXMBseIE2SiCKeICCQfKIgQIbgzIvgg/dr+Dk3Pl9/vXa6O5xVZp9JV2beQ7mCgtnmhs7MwWHww21hYiACZLLKIAHEWFFAWMCghIzHOggoNG2cBR8NRg4rHCuoCEYaiC3i6KdKJIBdoK+yNp8MD0iDeoeEoSDfFo5KQ6AQiQjwfkNvjI8qbEyd0N/9z2rQvEWufrCT7sZ/IbKePpTkZpJHwYPdBY/VAZ/XBkOmB2eKDxeyF3eyHw+hDDmkFwgI9gyKdH6U6BoupC1hUxllQS10gsoAEI+qCJybCRjlPN8XtMh47pTz2SAXsk5BFKYi36bocFJ0QvzMgIpxKi+Bg2rW6NlnH1P3SwuVyfVdiP/YHWVbPY7nDi7RsBiq7F2o7Q1lgsDEwEQEsLGUBzQWmSRYwNBeU6lgs0rFUAMIC0QU8FUBkAR8fiTzWKXg0pwpokQvYTC5MZKQVAtglDWCvNEhFOCAJ4p3kAA4nh/A+uTqThnFAdoPdK736UuL5v3S9Vnj6LyTZ59fJcjyQZfsgt/cjLcsHygKbD1rKAh9MmV5YzH7YTF44SCsYfcgz+GkuICwgO8IkCyo+yQWfukCcCGRTJK3AiUCMR+St8XW5VSJgb4qAfckCDsSvzt6VkrzQY26a0/5i4tmnpCS2479OcpwflOSykDq8SHUyUGZ5n2ABA4NVzAWfYQGJxwSGRg5FBjbOAhblcRZUEReoeTEXZPB0R1ilIhOBuECI54JJFwjYTgUIYneKgLaUIPZLgtgpudq1I/nq3yWeecpKo+n4/gLH2ZyUAh8WOG5D4vRCmtWP1CwvlLZ+pJNWmGSBxQtTph+ZZq/YCp+wgLhAZAEZi4u1pBUYVFIgPjEWP5MOWcqCSRfQdZmIIOGoC7ZL+9Aicc8n7Zl45iktWVHXr15zXup+LdeLpFwWKdleyJwM5FlepDmeYIHNF2eBn7KABiMzIwYjEysGI8IC6gKOToRKLYdqDY9aNYdlGQKWky0xnUeTiseaNDEdNisEOhE2pwbo3WGrMowW+dXtzcqOpw80n7dkbW3PzXV2pszPvYZ5uV686ryNBU4vkh39tBUIC5R2L2WBOs4COhYzyUTwwWbyia1g9CHX4BdzgY7kAoaygIYjtR9VakaMyNQFhAUsVqWRqzNWvDqjt0Y81smvjKxTnf9N4jm/sprjaP/ZK86z++YXsZhLBMhjqAApOYzIgmwGSocvzgIfdDZGDEZWBpZMBrZMlrrASVxAliTjpAvIRBBdUKHlUa3hUKsWKAuWZwiUBU0qAa+n8VinFLApI4jVaZdda6ZytH2emus489tZzov3Z+XcxpxcD+Y6b+PVHC8WZPfTVphkgcLugcruoyzQUhaQieCDJdMHm9kXZ8H/NhH8cRZMToRPN8XVKgEr0npurVR3/TrxbF95kV8Jz8u9WDu32I9ZhSxm53kxL5/Bq7k+JOUySHH6RBZk+6EkuSDLD00WC62NEVlgY2CxsnQikB2BXpgQFpg4FJMbIwMnukDHUxYs1fD07rBeLdBc0KQlXOjWN5ubv/i+PhX1as7xX89ynGZmFHgwPa8Ps/I8mJNzG/NyPCILsgkLbkPq8CDVfhtKuwfplAVe6CxeGOlE8MYngg8OcmdgIi7wxRclMR1+uin6aTiqU3OoTO8+4tJ0/EPimb62krnavjcr54x5brEPRICZhQxm5nsxp4DB3Fwf5uexeC3Xj+RcBlKnH3KSC7L9UBEWkIlAcoGdgYnkAisrsiCThdPMINfMoYCwwMjTu8NFeh7lOg6VOgEu7Q0syrgwP/E8X3u9mnXyH2dnn+mcmX8L0/P78afcPszI78fM3D7Mye3H3BzCAg+Ssm8jJbsfMsoCD5RZhAWeeC4gE8FLN0XCAruZpEORBfnk0oTeGomb4hITuThxN5foTv15/Pfz2fYTs2c5zsRmFdzC9LzbmFHox4wCL2YVMpid78PcOAsWEBbk+CGNs0ARZwFxAUmHRhsDs4UVcwG5NSK5wMyJ6dDgx0JDPwq0Fz2F+tP/kXiGb6x+7+p4fnrmsQXTbR3cbOcFzHRexHTnBcxwXsIM50XMdrrxiuMi5jnceDXrEpLsbiRb3ZBYuyGzuKGwuJFm6YYqsxsa82VoTd0wmC7DbLwMi6EHVr0bTtMVZGlPn3doT/52ytbVqSt8Z17moV/MtH6QPjPr5KrptuMbZ9pPtEy3n2iZae9smW090TLH3tky13qiZb6ls+VVS2fLAlNnS7Kps0Vq6myRG062pBpOtigNJ1vSdZ0tasPJFq3uZItOc2qjQdtZb9WcnGc2u3867Wnv5L6OkrXhud9rOr7/eR6yK3yeZ86c9hdlsrYvdyX1rJ7Vs3pW/9/rvwF7HWh03T0tZQAAAABJRU5ErkJggg==;" vertex="1" parent="1">
                    <mxGeometry x="260" y="290" width="70" height="70" as="geometry"/>
                </mxCell>
                <mxCell id="29" style="edgeStyle=none;html=1;entryX=0;entryY=0.5;entryDx=0;entryDy=0;endArrow=none;endFill=0;" edge="1" parent="1" source="57" target="28">
                    <mxGeometry relative="1" as="geometry"/>
                </mxCell>
                <mxCell id="16" value="Inventory Agent" style="shape=image;verticalLabelPosition=bottom;labelBackgroundColor=default;verticalAlign=top;aspect=fixed;imageAspect=0;image=data:image/png,iVBORw0KGgoAAAANSUhEUgAAAD8AAAA/CAYAAABXXxDfAAAAAXNSR0IArs4c6QAAAARnQU1BAACxjwv8YQUAAAAJcEhZcwAADsMAAA7DAcdvqGQAABWbSURBVGhD7Zp5UNRnmsedSTKZqZk9pmZmt2pmZ/b4J7s1Vbv7x1bt1NRk5/CMmgj0QTcNfXfTB01zyqW0HAKCihgv8IgXHhhjooZEjYLibSOeiPTxu/oEDBGBxiN+t9731ySmt3YrMSSZyvpU/aosu6t8f1++z+f5Pi9Om/asntWzelbP6s+jmt14obkZL2AavpP42be6GrY//mH9gQc5y99+4Gxqf/yzxM+/1VW2bcRkb34ULWwF8reOyxM//1aXrim2dU7Fx3ilGlCvHF3rah35aeJ3vpVVuWPwpdTa2Nnpi4GXSx5DsWy8N3vtvX9N/N63sgo3jBjllbHIjOJH+F3BfcgbAEPjWEri9751BeC7eatjrWnVH2POwgnMKJzAgiogs2mi1bVr7OeJ3/+zKJcL333c/vjFx2cf/+BpHnTg++joeL5xd8zqbJwIK1yP8FpxDPOKYnil+D6MKx+hZFPM1NZ243uJ//Y3Vh0deH5o79gvwpuG/zi4bcQ2uG208M7W0YI720cLhneOFtzdOVowGn8myLN78hkveEAe8nfbhwsiOyO5h/cO19Rs+dhrrwcUZROQl04gpSRGRZBVPETe2thIXet9Xeth/Bj4hme/u9n9gm/z0Axh/d2uobWPcGflQ9xpuI+PGh5gZPkDjK54iPHGh5hY9RD3Vz3Ew9WP8PHqR0DTQ2D1fTxaN4HxlglENo/h3J4JNLcCecsfQO+KQbMohvRFMSjLYpCVTCC5JAZV1UMUtTxATevEplVtD3635cD4L48cefzDb0QIz9rhP3qWD0eZ4jHcMAygVxdFny4Kj34APsMAOOMgBPMgQpmDiGQOYsAyhAHrAILZEXhKorhYP4RDm0ewcdcEalruY2FdDFkVMVhcMZjKY9AvjkEbF4E4QVoyAUX5fTjXAK43HqF6x8T5+t0Ti5cdePxyc+vIT782ETxrx395s/rDI73Oe3CnhXFZFca1jAhuqCPo00TRrxuATz8I1jAI3jiIoGkIIfMgWD2Hrgoe2/eOYs3O+6hfOwFXQwzFS2MoqIohryoGZ+U4sirGYV0Sg9kVg748BvWiGNJKJyArnoCEtMHi+9Aue4zcDUD5TsC19aPlrrbojxLPOeXlbsYLVyoH9L0Lx3EmNYyLygjcqgiupEdxLSOKm+oB9Gmj8FABBkQBTOSJ4qauD3sLr6OilkVpZQSl1cNYtPQeFtWMo6xGFKGw+rMiECcYy2PQLo4hvSyG1JIYkheOY37BGObkjWBuXhj6au6Qvab3J4lnnfK63jjyL+eKI32nMwZxUhakApxXhnCJOCA97gBNBLe0xAFRKgBjHARjjKJX7cFR1QWsN5zB0iw3XAU3saiMQVnVIMpr76G89n+KkF0xDhtxARGgbAzKortIzgk+mGv3C38yXXe/rHVvmWm88O9k4iSedUrrxprojy647iy56BjD0ZQgjkuC6JKFcTo1hAuKMBWgRxXB1YwIbqqjuBVvAa9hEH7DIHyGEHo1HvQoe9CVegZvpZ/COuMZLM3pQXk5hyW1d1FRN/6JCEXVMeRXxZBDWFB+D4aiCLTO3oEks3vTTON56RxH+18mnvErq67qyG8686N326UhtCcFcEQSwAlpCJ1y4oAQzsUd0J0epgIQBhABbuui8BoG4KcOIE4Iw6vncUtzG1eUbhxVdGKd+Swqy1lULbuH6mUxLKkbx+KaGEqXxpBfOQZ7cQgNzts4Xd7bFWrw/33i2b7SOlYT+MmJxdEdJ0wjOPCagMNJQSrAsZQQjksDOCkLUQecV4RxkUJQdMANdRS9RADKgSj8ejIJhiCYyUP+HEKfug9dqV1osZ5HTVUItfXjWFofQyVxQc048pcMYrWzDx5LP1Azgok1Q9kkGCWe8Suptra25zpqBua/lzeAfZIA9iXxOJAUwMEFPNqTRQcclwapA4gAZ5UhKkC3Kowr6RFcU0dwUxtBnzZCBSCTgKEgHEKQiGCK4Ja6Dx8oTmJd4Q0sq7+L+oYYautjcNWOoqaUw3WbD6P2KB4tvIeJFR/xjzeP/lviOb+SOvr64M/fKx84vV87gF0pAvYk89iXHMD+JB6HkgJ4NzkgMkAapA7oIi1AHKAMozuNTIIIrpNJ8BkQEgGGwJnIyw+BMYbQo7iMPdaLaKqJYOWKcSxvIC//Id7NYxC1hzDmuEMfLP0Y99eMNA6/MfzXiWed0mpv6n/x3eqI5VDBCLZIOWyTCtgp4bFbEsDeZB77kwN4J0lAe3IQR5IDFIIdsiC65CGcVYRwQRmGWxVGTwZpgzDlQK82gtsEhDoRhKxpEJxpALfUHhxRn0Wzy4/Vq8bQuGIc9TUR9GQLuGsbxEjWHdzLuoPx3GGML/vo/sONsT8knndK6+1lgZf2lQW4rZoINso4vCEXsFXKY4c0gNYUHm0pAbyZLOCdlCB1wJGUID4gAkhDOEUEoKMwjEuqiMiB9CiuUwEICAfiiXAQrHEQHr2AM/Lz2FZ0E2tX3UXjylHsKBfgsQcxbBvCR/Y7uJt1h4rwcNE4oiuiBw+9Obxw1wf3/jbx3F+6jmwP//CduoH6XbnDWKvgsT6VRUsqj01EBJmAbVIerZIAdqfweFMi4ECKgMMpAbyXEsCxuAOIAGQSTIKwO520QRjXMyIUhCQQ0URoGITHEMElxTXstV3C60s51DUE8X4+A8ESwZB1CHdsdzBsv0NFiGYG0F0t4K23gI2tMWNbG6Zu4yNZef8K4Tc7ykLjqzM4rFYKWKNgsV4hoFnOYlOqgC0yHtukAewgbSAV0EYEkARwkAggCeKoJEhHIZ0E8rDIgbQIjcQkD5BEeEMTxS3tAHVBvz6Kq+k+HFFdwOasS9hYeA3dFhZh8yCiliEMWocwZBvCoG0QfvUtvFkZQPWyB1i2Zuzo8uYpvOpqq/P9VWtN4O0NjiHUpzFYqeKxSsnidSWPtQoWGxQ8WuQcNst5vCHjsEMqYJeER5tUwFsSAQclAbybEqACEA50xkF4VhHGBZIHVCQRPjEOtWQxGkCvNgi3sg+dqiu4pOmDTx9GwDyEcOYQIpY7VISAjofbehPr64dR5BpHVcPow/VbYjPJZUjie3zhamvDczsbQykbysKo1QioSWdQn85jeRqLRpWAJiWLNUoe61I5NKfy2CjnsEUmsqBVKmCvRMB+aQBvEwEkAbwvCeADSSjeBp8Gos+OQ9EFpBV6NWH0agLw6EJgyIZoGoRgHICgi4CxhHBtIYd3GgdQXzeG4rIxuKofomn9xPnWPQ8lh7s++vE0THv6DW/7uvDfbKqLXKm1CajUcKjK8KNGzaEunUFDOo8VaQxWpfFYrWCxVhlnAXGBjMNWuYAdMgF7ZAHsIwJIAzgkebINyDgkeSCIcyQWK0PiNIi7gMLwCRZ49WQqRNBrC6CnIozTjUM42DKC9a/HUFUxjtLSMRSWjGJpA7Bq/X22edvEts277uW/sXP4i+d9clXUspzLa1r0IUp1fizWcXBp/KjScKjOYFCXwaNexWJFOofGNBarlbzIAuICORd3AYftch67ZDzaZAG8JQ2IbSAhgSiID0ggio/D0wrigjgM6XY4uR6LLiAiXE/ncSrrFvY0+bFhQxiNDcOorRhB5eIxLC4dQ3HxGPIKR5FfNorqFUBFffBR/TrO2tzsfiHx/f7P2rwy8k8rq/hIqU1Aod6PEgOHMq0fLh2HJWoG1WoeSzNYLIuLsDKdR2MaR1mwRsFhfarIgi1yHtvkPFrlASrAflkA78gCeFcaxPuSIJ0GFIZywoIwTYUX0j67HF1XkxWZCMKjI+MaduvOYa3+DGptl7GkKICqshG4SsdQWjQKu3MAubZ+ZGivbtFYeuwlrr5//kI/eaLUqgbOUlkSRY6JRZ7Bh4UGDkU6H8r0HBZp/Fii5VChZrBUzYksyODQoGLRmMajSclhjZLDOgVhAYdNctIGPHbKeOyRC9gnE3BAFsBBaQDtkjgMpWQkkkwgRuNJFpBWmATi1QyyMPlxRnYNR1POYZe0A8uNF1G5MIIK8pMv/AguUx8OZt/C8aLu/3qqW50VK87+oKrC90aOg4PDzMJp9CHfxKHA4EORgUOJzo9FOg7lGgaVWh5VahY1GYQFbJwFnMgCJRfPBRw2pvLUBdtTBeySC2iTx10gDeBdWRDvS4kLQuJ2+MREIMGIjkWaDqMUilcyQriczqJLdgVtycdRl92PiuIRlOSFcEhzC0J2BD4Xa0QzvpjdSeXmnv3BwqJr2202P2yZDOwmL5xmFjkGL/KNLG2DYj2LUu0kCxhUqlnKgtoMDsvSWSxXcViZxqKJtsKnLticylMXtMoJDAW8GXfBIeICqbgc0WQYD0Z0QaIixNdkVYSKQJzgVnE4uuAc1hjdcOWFsdLhR4+WR8D+IW4uZKw3XE9xxW02u19w5HXnZWb5YLayyMz0wm7h4DD5kGNmkWv0o9DIYSFhgZ5FmZaBSzvJAg41cRY0EAFILoizYK2Co7mAuOCNVAHb5QJ2P+kCWQCHpQG8JxUnwnEpGYukFcI4rSDhKEJ3hEuqKG0FcmN0UtaL1tQzKHFcR5upHze0YXisA3Bn3X75qWxPylJ49SW15eKI3uaHPrMfZgsDi9kDu5mBw+hFjomhLCg0sJQFpXoWiwgQNQxlQTVtBQbL0jksJ0BUcaILFJ9lAYWhTMBuGWFBfCKQVqC5gIhALkrEcERFoDyYFCGCM6l+tEsuY6eqB10ZDG5qozijv97tNvc9fdJzONpfzMjsWqJ3+qG1emG0szBl+mC1crCZ/cimLPAjz8SiwOBHkZ6wgPmEBRUkF8RZQNqAsIAIQFhA2oCwYEOcBWRJ2kFd8OlEILngsDT4CRBJK4g8CNKpQPcEZQTnFEGcljM4l+pHd1oIFzUMOvQ9SW0yPJf4Tl+oMszHfqWyX/CobB5o7H7oLB4YrQzMmV5YM/2UBdkmP5wGH/KMDAr0RARGBCJphSdYUEdagYhAWSC6gIzEtTQdkngsToQdMp66gMbjeDo8LAmgPUXMBseIE2SiCKeICCQfKIgQIbgzIvgg/dr+Dk3Pl9/vXa6O5xVZp9JV2beQ7mCgtnmhs7MwWHww21hYiACZLLKIAHEWFFAWMCghIzHOggoNG2cBR8NRg4rHCuoCEYaiC3i6KdKJIBdoK+yNp8MD0iDeoeEoSDfFo5KQ6AQiQjwfkNvjI8qbEyd0N/9z2rQvEWufrCT7sZ/IbKePpTkZpJHwYPdBY/VAZ/XBkOmB2eKDxeyF3eyHw+hDDmkFwgI9gyKdH6U6BoupC1hUxllQS10gsoAEI+qCJybCRjlPN8XtMh47pTz2SAXsk5BFKYi36bocFJ0QvzMgIpxKi+Bg2rW6NlnH1P3SwuVyfVdiP/YHWVbPY7nDi7RsBiq7F2o7Q1lgsDEwEQEsLGUBzQWmSRYwNBeU6lgs0rFUAMIC0QU8FUBkAR8fiTzWKXg0pwpokQvYTC5MZKQVAtglDWCvNEhFOCAJ4p3kAA4nh/A+uTqThnFAdoPdK736UuL5v3S9Vnj6LyTZ59fJcjyQZfsgt/cjLcsHygKbD1rKAh9MmV5YzH7YTF44SCsYfcgz+GkuICwgO8IkCyo+yQWfukCcCGRTJK3AiUCMR+St8XW5VSJgb4qAfckCDsSvzt6VkrzQY26a0/5i4tmnpCS2479OcpwflOSykDq8SHUyUGZ5n2ABA4NVzAWfYQGJxwSGRg5FBjbOAhblcRZUEReoeTEXZPB0R1ilIhOBuECI54JJFwjYTgUIYneKgLaUIPZLgtgpudq1I/nq3yWeecpKo+n4/gLH2ZyUAh8WOG5D4vRCmtWP1CwvlLZ+pJNWmGSBxQtTph+ZZq/YCp+wgLhAZAEZi4u1pBUYVFIgPjEWP5MOWcqCSRfQdZmIIOGoC7ZL+9Aicc8n7Zl45iktWVHXr15zXup+LdeLpFwWKdleyJwM5FlepDmeYIHNF2eBn7KABiMzIwYjEysGI8IC6gKOToRKLYdqDY9aNYdlGQKWky0xnUeTiseaNDEdNisEOhE2pwbo3WGrMowW+dXtzcqOpw80n7dkbW3PzXV2pszPvYZ5uV686ryNBU4vkh39tBUIC5R2L2WBOs4COhYzyUTwwWbyia1g9CHX4BdzgY7kAoaygIYjtR9VakaMyNQFhAUsVqWRqzNWvDqjt0Y81smvjKxTnf9N4jm/sprjaP/ZK86z++YXsZhLBMhjqAApOYzIgmwGSocvzgIfdDZGDEZWBpZMBrZMlrrASVxAliTjpAvIRBBdUKHlUa3hUKsWKAuWZwiUBU0qAa+n8VinFLApI4jVaZdda6ZytH2emus489tZzov3Z+XcxpxcD+Y6b+PVHC8WZPfTVphkgcLugcruoyzQUhaQieCDJdMHm9kXZ8H/NhH8cRZMToRPN8XVKgEr0npurVR3/TrxbF95kV8Jz8u9WDu32I9ZhSxm53kxL5/Bq7k+JOUySHH6RBZk+6EkuSDLD00WC62NEVlgY2CxsnQikB2BXpgQFpg4FJMbIwMnukDHUxYs1fD07rBeLdBc0KQlXOjWN5ubv/i+PhX1as7xX89ynGZmFHgwPa8Ps/I8mJNzG/NyPCILsgkLbkPq8CDVfhtKuwfplAVe6CxeGOlE8MYngg8OcmdgIi7wxRclMR1+uin6aTiqU3OoTO8+4tJ0/EPimb62krnavjcr54x5brEPRICZhQxm5nsxp4DB3Fwf5uexeC3Xj+RcBlKnH3KSC7L9UBEWkIlAcoGdgYnkAisrsiCThdPMINfMoYCwwMjTu8NFeh7lOg6VOgEu7Q0syrgwP/E8X3u9mnXyH2dnn+mcmX8L0/P78afcPszI78fM3D7Mye3H3BzCAg+Ssm8jJbsfMsoCD5RZhAWeeC4gE8FLN0XCAruZpEORBfnk0oTeGomb4hITuThxN5foTv15/Pfz2fYTs2c5zsRmFdzC9LzbmFHox4wCL2YVMpid78PcOAsWEBbk+CGNs0ARZwFxAUmHRhsDs4UVcwG5NSK5wMyJ6dDgx0JDPwq0Fz2F+tP/kXiGb6x+7+p4fnrmsQXTbR3cbOcFzHRexHTnBcxwXsIM50XMdrrxiuMi5jnceDXrEpLsbiRb3ZBYuyGzuKGwuJFm6YYqsxsa82VoTd0wmC7DbLwMi6EHVr0bTtMVZGlPn3doT/52ytbVqSt8Z17moV/MtH6QPjPr5KrptuMbZ9pPtEy3n2iZae9smW090TLH3tky13qiZb6ls+VVS2fLAlNnS7Kps0Vq6myRG062pBpOtigNJ1vSdZ0tasPJFq3uZItOc2qjQdtZb9WcnGc2u3867Wnv5L6OkrXhud9rOr7/eR6yK3yeZ86c9hdlsrYvdyX1rJ7Vs3pW/9/rvwF7HWh03T0tZQAAAABJRU5ErkJggg==;" vertex="1" parent="1">
                    <mxGeometry x="600" y="110" width="70" height="70" as="geometry"/>
                </mxCell>
                <mxCell id="30" style="edgeStyle=none;html=1;endArrow=none;endFill=0;" edge="1" parent="1" source="36" target="27">
                    <mxGeometry relative="1" as="geometry"/>
                </mxCell>
                <mxCell id="17" value="Sales Agent" style="shape=image;verticalLabelPosition=bottom;labelBackgroundColor=default;verticalAlign=top;aspect=fixed;imageAspect=0;image=data:image/png,iVBORw0KGgoAAAANSUhEUgAAAD8AAAA/CAYAAABXXxDfAAAAAXNSR0IArs4c6QAAAARnQU1BAACxjwv8YQUAAAAJcEhZcwAADsMAAA7DAcdvqGQAABWbSURBVGhD7Zp5UNRnmsedSTKZqZk9pmZmt2pmZ/b4J7s1Vbv7x1bt1NRk5/CMmgj0QTcNfXfTB01zyqW0HAKCihgv8IgXHhhjooZEjYLibSOeiPTxu/oEDBGBxiN+t9731ySmt3YrMSSZyvpU/aosu6t8f1++z+f5Pi9Om/asntWzelbP6s+jmt14obkZL2AavpP42be6GrY//mH9gQc5y99+4Gxqf/yzxM+/1VW2bcRkb34ULWwF8reOyxM//1aXrim2dU7Fx3ilGlCvHF3rah35aeJ3vpVVuWPwpdTa2Nnpi4GXSx5DsWy8N3vtvX9N/N63sgo3jBjllbHIjOJH+F3BfcgbAEPjWEri9751BeC7eatjrWnVH2POwgnMKJzAgiogs2mi1bVr7OeJ3/+zKJcL333c/vjFx2cf/+BpHnTg++joeL5xd8zqbJwIK1yP8FpxDPOKYnil+D6MKx+hZFPM1NZ243uJ//Y3Vh0deH5o79gvwpuG/zi4bcQ2uG208M7W0YI720cLhneOFtzdOVowGn8myLN78hkveEAe8nfbhwsiOyO5h/cO19Rs+dhrrwcUZROQl04gpSRGRZBVPETe2thIXet9Xeth/Bj4hme/u9n9gm/z0Axh/d2uobWPcGflQ9xpuI+PGh5gZPkDjK54iPHGh5hY9RD3Vz3Ew9WP8PHqR0DTQ2D1fTxaN4HxlglENo/h3J4JNLcCecsfQO+KQbMohvRFMSjLYpCVTCC5JAZV1UMUtTxATevEplVtD3635cD4L48cefzDb0QIz9rhP3qWD0eZ4jHcMAygVxdFny4Kj34APsMAOOMgBPMgQpmDiGQOYsAyhAHrAILZEXhKorhYP4RDm0ewcdcEalruY2FdDFkVMVhcMZjKY9AvjkEbF4E4QVoyAUX5fTjXAK43HqF6x8T5+t0Ti5cdePxyc+vIT782ETxrx395s/rDI73Oe3CnhXFZFca1jAhuqCPo00TRrxuATz8I1jAI3jiIoGkIIfMgWD2Hrgoe2/eOYs3O+6hfOwFXQwzFS2MoqIohryoGZ+U4sirGYV0Sg9kVg748BvWiGNJKJyArnoCEtMHi+9Aue4zcDUD5TsC19aPlrrbojxLPOeXlbsYLVyoH9L0Lx3EmNYyLygjcqgiupEdxLSOKm+oB9Gmj8FABBkQBTOSJ4qauD3sLr6OilkVpZQSl1cNYtPQeFtWMo6xGFKGw+rMiECcYy2PQLo4hvSyG1JIYkheOY37BGObkjWBuXhj6au6Qvab3J4lnnfK63jjyL+eKI32nMwZxUhakApxXhnCJOCA97gBNBLe0xAFRKgBjHARjjKJX7cFR1QWsN5zB0iw3XAU3saiMQVnVIMpr76G89n+KkF0xDhtxARGgbAzKortIzgk+mGv3C38yXXe/rHVvmWm88O9k4iSedUrrxprojy647iy56BjD0ZQgjkuC6JKFcTo1hAuKMBWgRxXB1YwIbqqjuBVvAa9hEH7DIHyGEHo1HvQoe9CVegZvpZ/COuMZLM3pQXk5hyW1d1FRN/6JCEXVMeRXxZBDWFB+D4aiCLTO3oEks3vTTON56RxH+18mnvErq67qyG8686N326UhtCcFcEQSwAlpCJ1y4oAQzsUd0J0epgIQBhABbuui8BoG4KcOIE4Iw6vncUtzG1eUbhxVdGKd+Swqy1lULbuH6mUxLKkbx+KaGEqXxpBfOQZ7cQgNzts4Xd7bFWrw/33i2b7SOlYT+MmJxdEdJ0wjOPCagMNJQSrAsZQQjksDOCkLUQecV4RxkUJQdMANdRS9RADKgSj8ejIJhiCYyUP+HEKfug9dqV1osZ5HTVUItfXjWFofQyVxQc048pcMYrWzDx5LP1Azgok1Q9kkGCWe8Suptra25zpqBua/lzeAfZIA9iXxOJAUwMEFPNqTRQcclwapA4gAZ5UhKkC3Kowr6RFcU0dwUxtBnzZCBSCTgKEgHEKQiGCK4Ja6Dx8oTmJd4Q0sq7+L+oYYautjcNWOoqaUw3WbD6P2KB4tvIeJFR/xjzeP/lviOb+SOvr64M/fKx84vV87gF0pAvYk89iXHMD+JB6HkgJ4NzkgMkAapA7oIi1AHKAMozuNTIIIrpNJ8BkQEgGGwJnIyw+BMYbQo7iMPdaLaKqJYOWKcSxvIC//Id7NYxC1hzDmuEMfLP0Y99eMNA6/MfzXiWed0mpv6n/x3eqI5VDBCLZIOWyTCtgp4bFbEsDeZB77kwN4J0lAe3IQR5IDFIIdsiC65CGcVYRwQRmGWxVGTwZpgzDlQK82gtsEhDoRhKxpEJxpALfUHhxRn0Wzy4/Vq8bQuGIc9TUR9GQLuGsbxEjWHdzLuoPx3GGML/vo/sONsT8knndK6+1lgZf2lQW4rZoINso4vCEXsFXKY4c0gNYUHm0pAbyZLOCdlCB1wJGUID4gAkhDOEUEoKMwjEuqiMiB9CiuUwEICAfiiXAQrHEQHr2AM/Lz2FZ0E2tX3UXjylHsKBfgsQcxbBvCR/Y7uJt1h4rwcNE4oiuiBw+9Obxw1wf3/jbx3F+6jmwP//CduoH6XbnDWKvgsT6VRUsqj01EBJmAbVIerZIAdqfweFMi4ECKgMMpAbyXEsCxuAOIAGQSTIKwO520QRjXMyIUhCQQ0URoGITHEMElxTXstV3C60s51DUE8X4+A8ESwZB1CHdsdzBsv0NFiGYG0F0t4K23gI2tMWNbG6Zu4yNZef8K4Tc7ykLjqzM4rFYKWKNgsV4hoFnOYlOqgC0yHtukAewgbSAV0EYEkARwkAggCeKoJEhHIZ0E8rDIgbQIjcQkD5BEeEMTxS3tAHVBvz6Kq+k+HFFdwOasS9hYeA3dFhZh8yCiliEMWocwZBvCoG0QfvUtvFkZQPWyB1i2Zuzo8uYpvOpqq/P9VWtN4O0NjiHUpzFYqeKxSsnidSWPtQoWGxQ8WuQcNst5vCHjsEMqYJeER5tUwFsSAQclAbybEqACEA50xkF4VhHGBZIHVCQRPjEOtWQxGkCvNgi3sg+dqiu4pOmDTx9GwDyEcOYQIpY7VISAjofbehPr64dR5BpHVcPow/VbYjPJZUjie3zhamvDczsbQykbysKo1QioSWdQn85jeRqLRpWAJiWLNUoe61I5NKfy2CjnsEUmsqBVKmCvRMB+aQBvEwEkAbwvCeADSSjeBp8Gos+OQ9EFpBV6NWH0agLw6EJgyIZoGoRgHICgi4CxhHBtIYd3GgdQXzeG4rIxuKofomn9xPnWPQ8lh7s++vE0THv6DW/7uvDfbKqLXKm1CajUcKjK8KNGzaEunUFDOo8VaQxWpfFYrWCxVhlnAXGBjMNWuYAdMgF7ZAHsIwJIAzgkebINyDgkeSCIcyQWK0PiNIi7gMLwCRZ49WQqRNBrC6CnIozTjUM42DKC9a/HUFUxjtLSMRSWjGJpA7Bq/X22edvEts277uW/sXP4i+d9clXUspzLa1r0IUp1fizWcXBp/KjScKjOYFCXwaNexWJFOofGNBarlbzIAuICORd3AYftch67ZDzaZAG8JQ2IbSAhgSiID0ggio/D0wrigjgM6XY4uR6LLiAiXE/ncSrrFvY0+bFhQxiNDcOorRhB5eIxLC4dQ3HxGPIKR5FfNorqFUBFffBR/TrO2tzsfiHx/f7P2rwy8k8rq/hIqU1Aod6PEgOHMq0fLh2HJWoG1WoeSzNYLIuLsDKdR2MaR1mwRsFhfarIgi1yHtvkPFrlASrAflkA78gCeFcaxPuSIJ0GFIZywoIwTYUX0j67HF1XkxWZCMKjI+MaduvOYa3+DGptl7GkKICqshG4SsdQWjQKu3MAubZ+ZGivbtFYeuwlrr5//kI/eaLUqgbOUlkSRY6JRZ7Bh4UGDkU6H8r0HBZp/Fii5VChZrBUzYksyODQoGLRmMajSclhjZLDOgVhAYdNctIGPHbKeOyRC9gnE3BAFsBBaQDtkjgMpWQkkkwgRuNJFpBWmATi1QyyMPlxRnYNR1POYZe0A8uNF1G5MIIK8pMv/AguUx8OZt/C8aLu/3qqW50VK87+oKrC90aOg4PDzMJp9CHfxKHA4EORgUOJzo9FOg7lGgaVWh5VahY1GYQFbJwFnMgCJRfPBRw2pvLUBdtTBeySC2iTx10gDeBdWRDvS4kLQuJ2+MREIMGIjkWaDqMUilcyQriczqJLdgVtycdRl92PiuIRlOSFcEhzC0J2BD4Xa0QzvpjdSeXmnv3BwqJr2202P2yZDOwmL5xmFjkGL/KNLG2DYj2LUu0kCxhUqlnKgtoMDsvSWSxXcViZxqKJtsKnLticylMXtMoJDAW8GXfBIeICqbgc0WQYD0Z0QaIixNdkVYSKQJzgVnE4uuAc1hjdcOWFsdLhR4+WR8D+IW4uZKw3XE9xxW02u19w5HXnZWb5YLayyMz0wm7h4DD5kGNmkWv0o9DIYSFhgZ5FmZaBSzvJAg41cRY0EAFILoizYK2Co7mAuOCNVAHb5QJ2P+kCWQCHpQG8JxUnwnEpGYukFcI4rSDhKEJ3hEuqKG0FcmN0UtaL1tQzKHFcR5upHze0YXisA3Bn3X75qWxPylJ49SW15eKI3uaHPrMfZgsDi9kDu5mBw+hFjomhLCg0sJQFpXoWiwgQNQxlQTVtBQbL0jksJ0BUcaILFJ9lAYWhTMBuGWFBfCKQVqC5gIhALkrEcERFoDyYFCGCM6l+tEsuY6eqB10ZDG5qozijv97tNvc9fdJzONpfzMjsWqJ3+qG1emG0szBl+mC1crCZ/cimLPAjz8SiwOBHkZ6wgPmEBRUkF8RZQNqAsIAIQFhA2oCwYEOcBWRJ2kFd8OlEILngsDT4CRBJK4g8CNKpQPcEZQTnFEGcljM4l+pHd1oIFzUMOvQ9SW0yPJf4Tl+oMszHfqWyX/CobB5o7H7oLB4YrQzMmV5YM/2UBdkmP5wGH/KMDAr0RARGBCJphSdYUEdagYhAWSC6gIzEtTQdkngsToQdMp66gMbjeDo8LAmgPUXMBseIE2SiCKeICCQfKIgQIbgzIvgg/dr+Dk3Pl9/vXa6O5xVZp9JV2beQ7mCgtnmhs7MwWHww21hYiACZLLKIAHEWFFAWMCghIzHOggoNG2cBR8NRg4rHCuoCEYaiC3i6KdKJIBdoK+yNp8MD0iDeoeEoSDfFo5KQ6AQiQjwfkNvjI8qbEyd0N/9z2rQvEWufrCT7sZ/IbKePpTkZpJHwYPdBY/VAZ/XBkOmB2eKDxeyF3eyHw+hDDmkFwgI9gyKdH6U6BoupC1hUxllQS10gsoAEI+qCJybCRjlPN8XtMh47pTz2SAXsk5BFKYi36bocFJ0QvzMgIpxKi+Bg2rW6NlnH1P3SwuVyfVdiP/YHWVbPY7nDi7RsBiq7F2o7Q1lgsDEwEQEsLGUBzQWmSRYwNBeU6lgs0rFUAMIC0QU8FUBkAR8fiTzWKXg0pwpokQvYTC5MZKQVAtglDWCvNEhFOCAJ4p3kAA4nh/A+uTqThnFAdoPdK736UuL5v3S9Vnj6LyTZ59fJcjyQZfsgt/cjLcsHygKbD1rKAh9MmV5YzH7YTF44SCsYfcgz+GkuICwgO8IkCyo+yQWfukCcCGRTJK3AiUCMR+St8XW5VSJgb4qAfckCDsSvzt6VkrzQY26a0/5i4tmnpCS2479OcpwflOSykDq8SHUyUGZ5n2ABA4NVzAWfYQGJxwSGRg5FBjbOAhblcRZUEReoeTEXZPB0R1ilIhOBuECI54JJFwjYTgUIYneKgLaUIPZLgtgpudq1I/nq3yWeecpKo+n4/gLH2ZyUAh8WOG5D4vRCmtWP1CwvlLZ+pJNWmGSBxQtTph+ZZq/YCp+wgLhAZAEZi4u1pBUYVFIgPjEWP5MOWcqCSRfQdZmIIOGoC7ZL+9Aicc8n7Zl45iktWVHXr15zXup+LdeLpFwWKdleyJwM5FlepDmeYIHNF2eBn7KABiMzIwYjEysGI8IC6gKOToRKLYdqDY9aNYdlGQKWky0xnUeTiseaNDEdNisEOhE2pwbo3WGrMowW+dXtzcqOpw80n7dkbW3PzXV2pszPvYZ5uV686ryNBU4vkh39tBUIC5R2L2WBOs4COhYzyUTwwWbyia1g9CHX4BdzgY7kAoaygIYjtR9VakaMyNQFhAUsVqWRqzNWvDqjt0Y81smvjKxTnf9N4jm/sprjaP/ZK86z++YXsZhLBMhjqAApOYzIgmwGSocvzgIfdDZGDEZWBpZMBrZMlrrASVxAliTjpAvIRBBdUKHlUa3hUKsWKAuWZwiUBU0qAa+n8VinFLApI4jVaZdda6ZytH2emus489tZzov3Z+XcxpxcD+Y6b+PVHC8WZPfTVphkgcLugcruoyzQUhaQieCDJdMHm9kXZ8H/NhH8cRZMToRPN8XVKgEr0npurVR3/TrxbF95kV8Jz8u9WDu32I9ZhSxm53kxL5/Bq7k+JOUySHH6RBZk+6EkuSDLD00WC62NEVlgY2CxsnQikB2BXpgQFpg4FJMbIwMnukDHUxYs1fD07rBeLdBc0KQlXOjWN5ubv/i+PhX1as7xX89ynGZmFHgwPa8Ps/I8mJNzG/NyPCILsgkLbkPq8CDVfhtKuwfplAVe6CxeGOlE8MYngg8OcmdgIi7wxRclMR1+uin6aTiqU3OoTO8+4tJ0/EPimb62krnavjcr54x5brEPRICZhQxm5nsxp4DB3Fwf5uexeC3Xj+RcBlKnH3KSC7L9UBEWkIlAcoGdgYnkAisrsiCThdPMINfMoYCwwMjTu8NFeh7lOg6VOgEu7Q0syrgwP/E8X3u9mnXyH2dnn+mcmX8L0/P78afcPszI78fM3D7Mye3H3BzCAg+Ssm8jJbsfMsoCD5RZhAWeeC4gE8FLN0XCAruZpEORBfnk0oTeGomb4hITuThxN5foTv15/Pfz2fYTs2c5zsRmFdzC9LzbmFHox4wCL2YVMpid78PcOAsWEBbk+CGNs0ARZwFxAUmHRhsDs4UVcwG5NSK5wMyJ6dDgx0JDPwq0Fz2F+tP/kXiGb6x+7+p4fnrmsQXTbR3cbOcFzHRexHTnBcxwXsIM50XMdrrxiuMi5jnceDXrEpLsbiRb3ZBYuyGzuKGwuJFm6YYqsxsa82VoTd0wmC7DbLwMi6EHVr0bTtMVZGlPn3doT/52ytbVqSt8Z17moV/MtH6QPjPr5KrptuMbZ9pPtEy3n2iZae9smW090TLH3tky13qiZb6ls+VVS2fLAlNnS7Kps0Vq6myRG062pBpOtigNJ1vSdZ0tasPJFq3uZItOc2qjQdtZb9WcnGc2u3867Wnv5L6OkrXhud9rOr7/eR6yK3yeZ86c9hdlsrYvdyX1rJ7Vs3pW/9/rvwF7HWh03T0tZQAAAABJRU5ErkJggg==;" vertex="1" parent="1">
                    <mxGeometry x="600" y="290" width="70" height="70" as="geometry"/>
                </mxCell>
                <mxCell id="18" value="Knowledge Agent" style="shape=image;verticalLabelPosition=bottom;labelBackgroundColor=default;verticalAlign=top;aspect=fixed;imageAspect=0;image=data:image/png,iVBORw0KGgoAAAANSUhEUgAAAD8AAAA/CAYAAABXXxDfAAAAAXNSR0IArs4c6QAAAARnQU1BAACxjwv8YQUAAAAJcEhZcwAADsMAAA7DAcdvqGQAABWbSURBVGhD7Zp5UNRnmsedSTKZqZk9pmZmt2pmZ/b4J7s1Vbv7x1bt1NRk5/CMmgj0QTcNfXfTB01zyqW0HAKCihgv8IgXHhhjooZEjYLibSOeiPTxu/oEDBGBxiN+t9731ySmt3YrMSSZyvpU/aosu6t8f1++z+f5Pi9Om/asntWzelbP6s+jmt14obkZL2AavpP42be6GrY//mH9gQc5y99+4Gxqf/yzxM+/1VW2bcRkb34ULWwF8reOyxM//1aXrim2dU7Fx3ilGlCvHF3rah35aeJ3vpVVuWPwpdTa2Nnpi4GXSx5DsWy8N3vtvX9N/N63sgo3jBjllbHIjOJH+F3BfcgbAEPjWEri9751BeC7eatjrWnVH2POwgnMKJzAgiogs2mi1bVr7OeJ3/+zKJcL333c/vjFx2cf/+BpHnTg++joeL5xd8zqbJwIK1yP8FpxDPOKYnil+D6MKx+hZFPM1NZ243uJ//Y3Vh0deH5o79gvwpuG/zi4bcQ2uG208M7W0YI720cLhneOFtzdOVowGn8myLN78hkveEAe8nfbhwsiOyO5h/cO19Rs+dhrrwcUZROQl04gpSRGRZBVPETe2thIXet9Xeth/Bj4hme/u9n9gm/z0Axh/d2uobWPcGflQ9xpuI+PGh5gZPkDjK54iPHGh5hY9RD3Vz3Ew9WP8PHqR0DTQ2D1fTxaN4HxlglENo/h3J4JNLcCecsfQO+KQbMohvRFMSjLYpCVTCC5JAZV1UMUtTxATevEplVtD3635cD4L48cefzDb0QIz9rhP3qWD0eZ4jHcMAygVxdFny4Kj34APsMAOOMgBPMgQpmDiGQOYsAyhAHrAILZEXhKorhYP4RDm0ewcdcEalruY2FdDFkVMVhcMZjKY9AvjkEbF4E4QVoyAUX5fTjXAK43HqF6x8T5+t0Ti5cdePxyc+vIT782ETxrx395s/rDI73Oe3CnhXFZFca1jAhuqCPo00TRrxuATz8I1jAI3jiIoGkIIfMgWD2Hrgoe2/eOYs3O+6hfOwFXQwzFS2MoqIohryoGZ+U4sirGYV0Sg9kVg748BvWiGNJKJyArnoCEtMHi+9Aue4zcDUD5TsC19aPlrrbojxLPOeXlbsYLVyoH9L0Lx3EmNYyLygjcqgiupEdxLSOKm+oB9Gmj8FABBkQBTOSJ4qauD3sLr6OilkVpZQSl1cNYtPQeFtWMo6xGFKGw+rMiECcYy2PQLo4hvSyG1JIYkheOY37BGObkjWBuXhj6au6Qvab3J4lnnfK63jjyL+eKI32nMwZxUhakApxXhnCJOCA97gBNBLe0xAFRKgBjHARjjKJX7cFR1QWsN5zB0iw3XAU3saiMQVnVIMpr76G89n+KkF0xDhtxARGgbAzKortIzgk+mGv3C38yXXe/rHVvmWm88O9k4iSedUrrxprojy647iy56BjD0ZQgjkuC6JKFcTo1hAuKMBWgRxXB1YwIbqqjuBVvAa9hEH7DIHyGEHo1HvQoe9CVegZvpZ/COuMZLM3pQXk5hyW1d1FRN/6JCEXVMeRXxZBDWFB+D4aiCLTO3oEks3vTTON56RxH+18mnvErq67qyG8686N326UhtCcFcEQSwAlpCJ1y4oAQzsUd0J0epgIQBhABbuui8BoG4KcOIE4Iw6vncUtzG1eUbhxVdGKd+Swqy1lULbuH6mUxLKkbx+KaGEqXxpBfOQZ7cQgNzts4Xd7bFWrw/33i2b7SOlYT+MmJxdEdJ0wjOPCagMNJQSrAsZQQjksDOCkLUQecV4RxkUJQdMANdRS9RADKgSj8ejIJhiCYyUP+HEKfug9dqV1osZ5HTVUItfXjWFofQyVxQc048pcMYrWzDx5LP1Azgok1Q9kkGCWe8Suptra25zpqBua/lzeAfZIA9iXxOJAUwMEFPNqTRQcclwapA4gAZ5UhKkC3Kowr6RFcU0dwUxtBnzZCBSCTgKEgHEKQiGCK4Ja6Dx8oTmJd4Q0sq7+L+oYYautjcNWOoqaUw3WbD6P2KB4tvIeJFR/xjzeP/lviOb+SOvr64M/fKx84vV87gF0pAvYk89iXHMD+JB6HkgJ4NzkgMkAapA7oIi1AHKAMozuNTIIIrpNJ8BkQEgGGwJnIyw+BMYbQo7iMPdaLaKqJYOWKcSxvIC//Id7NYxC1hzDmuEMfLP0Y99eMNA6/MfzXiWed0mpv6n/x3eqI5VDBCLZIOWyTCtgp4bFbEsDeZB77kwN4J0lAe3IQR5IDFIIdsiC65CGcVYRwQRmGWxVGTwZpgzDlQK82gtsEhDoRhKxpEJxpALfUHhxRn0Wzy4/Vq8bQuGIc9TUR9GQLuGsbxEjWHdzLuoPx3GGML/vo/sONsT8knndK6+1lgZf2lQW4rZoINso4vCEXsFXKY4c0gNYUHm0pAbyZLOCdlCB1wJGUID4gAkhDOEUEoKMwjEuqiMiB9CiuUwEICAfiiXAQrHEQHr2AM/Lz2FZ0E2tX3UXjylHsKBfgsQcxbBvCR/Y7uJt1h4rwcNE4oiuiBw+9Obxw1wf3/jbx3F+6jmwP//CduoH6XbnDWKvgsT6VRUsqj01EBJmAbVIerZIAdqfweFMi4ECKgMMpAbyXEsCxuAOIAGQSTIKwO520QRjXMyIUhCQQ0URoGITHEMElxTXstV3C60s51DUE8X4+A8ESwZB1CHdsdzBsv0NFiGYG0F0t4K23gI2tMWNbG6Zu4yNZef8K4Tc7ykLjqzM4rFYKWKNgsV4hoFnOYlOqgC0yHtukAewgbSAV0EYEkARwkAggCeKoJEhHIZ0E8rDIgbQIjcQkD5BEeEMTxS3tAHVBvz6Kq+k+HFFdwOasS9hYeA3dFhZh8yCiliEMWocwZBvCoG0QfvUtvFkZQPWyB1i2Zuzo8uYpvOpqq/P9VWtN4O0NjiHUpzFYqeKxSsnidSWPtQoWGxQ8WuQcNst5vCHjsEMqYJeER5tUwFsSAQclAbybEqACEA50xkF4VhHGBZIHVCQRPjEOtWQxGkCvNgi3sg+dqiu4pOmDTx9GwDyEcOYQIpY7VISAjofbehPr64dR5BpHVcPow/VbYjPJZUjie3zhamvDczsbQykbysKo1QioSWdQn85jeRqLRpWAJiWLNUoe61I5NKfy2CjnsEUmsqBVKmCvRMB+aQBvEwEkAbwvCeADSSjeBp8Gos+OQ9EFpBV6NWH0agLw6EJgyIZoGoRgHICgi4CxhHBtIYd3GgdQXzeG4rIxuKofomn9xPnWPQ8lh7s++vE0THv6DW/7uvDfbKqLXKm1CajUcKjK8KNGzaEunUFDOo8VaQxWpfFYrWCxVhlnAXGBjMNWuYAdMgF7ZAHsIwJIAzgkebINyDgkeSCIcyQWK0PiNIi7gMLwCRZ49WQqRNBrC6CnIozTjUM42DKC9a/HUFUxjtLSMRSWjGJpA7Bq/X22edvEts277uW/sXP4i+d9clXUspzLa1r0IUp1fizWcXBp/KjScKjOYFCXwaNexWJFOofGNBarlbzIAuICORd3AYftch67ZDzaZAG8JQ2IbSAhgSiID0ggio/D0wrigjgM6XY4uR6LLiAiXE/ncSrrFvY0+bFhQxiNDcOorRhB5eIxLC4dQ3HxGPIKR5FfNorqFUBFffBR/TrO2tzsfiHx/f7P2rwy8k8rq/hIqU1Aod6PEgOHMq0fLh2HJWoG1WoeSzNYLIuLsDKdR2MaR1mwRsFhfarIgi1yHtvkPFrlASrAflkA78gCeFcaxPuSIJ0GFIZywoIwTYUX0j67HF1XkxWZCMKjI+MaduvOYa3+DGptl7GkKICqshG4SsdQWjQKu3MAubZ+ZGivbtFYeuwlrr5//kI/eaLUqgbOUlkSRY6JRZ7Bh4UGDkU6H8r0HBZp/Fii5VChZrBUzYksyODQoGLRmMajSclhjZLDOgVhAYdNctIGPHbKeOyRC9gnE3BAFsBBaQDtkjgMpWQkkkwgRuNJFpBWmATi1QyyMPlxRnYNR1POYZe0A8uNF1G5MIIK8pMv/AguUx8OZt/C8aLu/3qqW50VK87+oKrC90aOg4PDzMJp9CHfxKHA4EORgUOJzo9FOg7lGgaVWh5VahY1GYQFbJwFnMgCJRfPBRw2pvLUBdtTBeySC2iTx10gDeBdWRDvS4kLQuJ2+MREIMGIjkWaDqMUilcyQriczqJLdgVtycdRl92PiuIRlOSFcEhzC0J2BD4Xa0QzvpjdSeXmnv3BwqJr2202P2yZDOwmL5xmFjkGL/KNLG2DYj2LUu0kCxhUqlnKgtoMDsvSWSxXcViZxqKJtsKnLticylMXtMoJDAW8GXfBIeICqbgc0WQYD0Z0QaIixNdkVYSKQJzgVnE4uuAc1hjdcOWFsdLhR4+WR8D+IW4uZKw3XE9xxW02u19w5HXnZWb5YLayyMz0wm7h4DD5kGNmkWv0o9DIYSFhgZ5FmZaBSzvJAg41cRY0EAFILoizYK2Co7mAuOCNVAHb5QJ2P+kCWQCHpQG8JxUnwnEpGYukFcI4rSDhKEJ3hEuqKG0FcmN0UtaL1tQzKHFcR5upHze0YXisA3Bn3X75qWxPylJ49SW15eKI3uaHPrMfZgsDi9kDu5mBw+hFjomhLCg0sJQFpXoWiwgQNQxlQTVtBQbL0jksJ0BUcaILFJ9lAYWhTMBuGWFBfCKQVqC5gIhALkrEcERFoDyYFCGCM6l+tEsuY6eqB10ZDG5qozijv97tNvc9fdJzONpfzMjsWqJ3+qG1emG0szBl+mC1crCZ/cimLPAjz8SiwOBHkZ6wgPmEBRUkF8RZQNqAsIAIQFhA2oCwYEOcBWRJ2kFd8OlEILngsDT4CRBJK4g8CNKpQPcEZQTnFEGcljM4l+pHd1oIFzUMOvQ9SW0yPJf4Tl+oMszHfqWyX/CobB5o7H7oLB4YrQzMmV5YM/2UBdkmP5wGH/KMDAr0RARGBCJphSdYUEdagYhAWSC6gIzEtTQdkngsToQdMp66gMbjeDo8LAmgPUXMBseIE2SiCKeICCQfKIgQIbgzIvgg/dr+Dk3Pl9/vXa6O5xVZp9JV2beQ7mCgtnmhs7MwWHww21hYiACZLLKIAHEWFFAWMCghIzHOggoNG2cBR8NRg4rHCuoCEYaiC3i6KdKJIBdoK+yNp8MD0iDeoeEoSDfFo5KQ6AQiQjwfkNvjI8qbEyd0N/9z2rQvEWufrCT7sZ/IbKePpTkZpJHwYPdBY/VAZ/XBkOmB2eKDxeyF3eyHw+hDDmkFwgI9gyKdH6U6BoupC1hUxllQS10gsoAEI+qCJybCRjlPN8XtMh47pTz2SAXsk5BFKYi36bocFJ0QvzMgIpxKi+Bg2rW6NlnH1P3SwuVyfVdiP/YHWVbPY7nDi7RsBiq7F2o7Q1lgsDEwEQEsLGUBzQWmSRYwNBeU6lgs0rFUAMIC0QU8FUBkAR8fiTzWKXg0pwpokQvYTC5MZKQVAtglDWCvNEhFOCAJ4p3kAA4nh/A+uTqThnFAdoPdK736UuL5v3S9Vnj6LyTZ59fJcjyQZfsgt/cjLcsHygKbD1rKAh9MmV5YzH7YTF44SCsYfcgz+GkuICwgO8IkCyo+yQWfukCcCGRTJK3AiUCMR+St8XW5VSJgb4qAfckCDsSvzt6VkrzQY26a0/5i4tmnpCS2479OcpwflOSykDq8SHUyUGZ5n2ABA4NVzAWfYQGJxwSGRg5FBjbOAhblcRZUEReoeTEXZPB0R1ilIhOBuECI54JJFwjYTgUIYneKgLaUIPZLgtgpudq1I/nq3yWeecpKo+n4/gLH2ZyUAh8WOG5D4vRCmtWP1CwvlLZ+pJNWmGSBxQtTph+ZZq/YCp+wgLhAZAEZi4u1pBUYVFIgPjEWP5MOWcqCSRfQdZmIIOGoC7ZL+9Aicc8n7Zl45iktWVHXr15zXup+LdeLpFwWKdleyJwM5FlepDmeYIHNF2eBn7KABiMzIwYjEysGI8IC6gKOToRKLYdqDY9aNYdlGQKWky0xnUeTiseaNDEdNisEOhE2pwbo3WGrMowW+dXtzcqOpw80n7dkbW3PzXV2pszPvYZ5uV686ryNBU4vkh39tBUIC5R2L2WBOs4COhYzyUTwwWbyia1g9CHX4BdzgY7kAoaygIYjtR9VakaMyNQFhAUsVqWRqzNWvDqjt0Y81smvjKxTnf9N4jm/sprjaP/ZK86z++YXsZhLBMhjqAApOYzIgmwGSocvzgIfdDZGDEZWBpZMBrZMlrrASVxAliTjpAvIRBBdUKHlUa3hUKsWKAuWZwiUBU0qAa+n8VinFLApI4jVaZdda6ZytH2emus489tZzov3Z+XcxpxcD+Y6b+PVHC8WZPfTVphkgcLugcruoyzQUhaQieCDJdMHm9kXZ8H/NhH8cRZMToRPN8XVKgEr0npurVR3/TrxbF95kV8Jz8u9WDu32I9ZhSxm53kxL5/Bq7k+JOUySHH6RBZk+6EkuSDLD00WC62NEVlgY2CxsnQikB2BXpgQFpg4FJMbIwMnukDHUxYs1fD07rBeLdBc0KQlXOjWN5ubv/i+PhX1as7xX89ynGZmFHgwPa8Ps/I8mJNzG/NyPCILsgkLbkPq8CDVfhtKuwfplAVe6CxeGOlE8MYngg8OcmdgIi7wxRclMR1+uin6aTiqU3OoTO8+4tJ0/EPimb62krnavjcr54x5brEPRICZhQxm5nsxp4DB3Fwf5uexeC3Xj+RcBlKnH3KSC7L9UBEWkIlAcoGdgYnkAisrsiCThdPMINfMoYCwwMjTu8NFeh7lOg6VOgEu7Q0syrgwP/E8X3u9mnXyH2dnn+mcmX8L0/P78afcPszI78fM3D7Mye3H3BzCAg+Ssm8jJbsfMsoCD5RZhAWeeC4gE8FLN0XCAruZpEORBfnk0oTeGomb4hITuThxN5foTv15/Pfz2fYTs2c5zsRmFdzC9LzbmFHox4wCL2YVMpid78PcOAsWEBbk+CGNs0ARZwFxAUmHRhsDs4UVcwG5NSK5wMyJ6dDgx0JDPwq0Fz2F+tP/kXiGb6x+7+p4fnrmsQXTbR3cbOcFzHRexHTnBcxwXsIM50XMdrrxiuMi5jnceDXrEpLsbiRb3ZBYuyGzuKGwuJFm6YYqsxsa82VoTd0wmC7DbLwMi6EHVr0bTtMVZGlPn3doT/52ytbVqSt8Z17moV/MtH6QPjPr5KrptuMbZ9pPtEy3n2iZae9smW090TLH3tky13qiZb6ls+VVS2fLAlNnS7Kps0Vq6myRG062pBpOtigNJ1vSdZ0tasPJFq3uZItOc2qjQdtZb9WcnGc2u3867Wnv5L6OkrXhud9rOr7/eR6yK3yeZ86c9hdlsrYvdyX1rJ7Vs3pW/9/rvwF7HWh03T0tZQAAAABJRU5ErkJggg==;" vertex="1" parent="1">
                    <mxGeometry x="600" y="470" width="70" height="70" as="geometry"/>
                </mxCell>
                <mxCell id="27" value="Code interpreter" style="shape=image;verticalLabelPosition=bottom;labelBackgroundColor=default;verticalAlign=top;aspect=fixed;imageAspect=0;image=data:image/svg+xml,PHN2ZyB4bWxucz0iaHR0cDovL3d3dy53My5vcmcvMjAwMC9zdmciIGZpbGw9Im5vbmUiIHZpZXdCb3g9IjAgMCAyNTYgMjU2IiBoZWlnaHQ9IjE2IiB3aWR0aD0iMTYiPjxwYXRoIGZpbGw9IndoaXRlIiBkPSJNNTIgMjMySDIwNEMyMDYuMjA5IDIzMiAyMDggMjMwLjIwOSAyMDggMjI4VjcySDE3MkMxNjUuMzczIDcyIDE2MCA2Ni42Mjc0IDE2MCA2MFYyNEg1MkM0OS43OTA5IDI0IDQ4IDI1Ljc5MDkgNDggMjhWMjI4QzQ4IDIzMC4yMDkgNDkuNzkwOSAyMzIgNTIgMjMyWiIvPjxwYXRoIGZpbGw9IndoaXRlIiBkPSJNMjA0LjM0IDY0LjAwMDJMMTY4IDI3LjY2MDJWNjAuMDAwMkMxNjggNjIuMjA5MyAxNjkuNzkxIDY0LjAwMDIgMTcyIDY0LjAwMDJIMjA0LjM0WiIvPjxwYXRoIGZpbGw9IiM2MDVFNUMiIGQ9Ik0yMTYgNjhDMjE1Ljk5NyA2Ny40MDcyIDIxNS44NiA2Ni44MjI3IDIxNS42IDY2LjI5QzIxNS4wNjcgNjQuMjI2MSAyMTMuOTkzIDYyLjM0MTUgMjEyLjQ5IDYwLjgzTDE3MS4xNyAxOS41MkMxNjguOTI4IDE3LjI1OTYgMTY1Ljg3NCAxNS45OTE4IDE2Mi42OSAxNkg1MkM0NS4zNzI2IDE2IDQwIDIxLjM3MjYgNDAgMjhWMjI4QzQwIDIzNC42MjcgNDUuMzcyNiAyNDAgNTIgMjQwSDIwNEMyMTAuNjI3IDI0MCAyMTYgMjM0LjYyNyAyMTYgMjI4VjY5LjMxVjY4LjQzVjY4Wk0yMDQuMzQgNjRIMTcyQzE2OS43OTEgNjQgMTY4IDYyLjIwOTIgMTY4IDYwVjI3LjY2TDIwNC4zNCA2NFpNNTIgMjMySDIwNEMyMDYuMjA5IDIzMiAyMDggMjMwLjIwOSAyMDggMjI4VjcySDE3MkMxNjUuMzczIDcyIDE2MCA2Ni42Mjc1IDE2MCA2MFYyNEg1MkM0OS43OTA5IDI0IDQ4IDI1Ljc5MDkgNDggMjhWMjI4QzQ4IDIzMC4yMDkgNDkuNzkwOSAyMzIgNTIgMjMyWiIgY2xpcC1ydWxlPSJldmVub2RkIiBmaWxsLXJ1bGU9ImV2ZW5vZGQiIG9wYWNpdHk9IjAuNjciLz48cmVjdCBmaWxsPSIjQzhDNkM0IiByeD0iNCIgaGVpZ2h0PSI4IiB3aWR0aD0iMTI4IiB5PSIxODAiIHg9IjY0Ii8+PHJlY3QgZmlsbD0iI0M4QzZDNCIgcng9IjQiIGhlaWdodD0iOCIgd2lkdGg9IjEyOCIgeT0iMTk2IiB4PSI2NCIvPjxyZWN0IGZpbGw9IiNEMkQwQ0UiIHJ4PSIwLjAzIiBoZWlnaHQ9IjAuMDYiIHdpZHRoPSIxIiB5PSIxODIuNDciIHg9IjEyNy43NSIvPjxwYXRoIHN0cm9rZS1saW5lY2FwPSJyb3VuZCIgc3Ryb2tlLXdpZHRoPSI4IiBzdHJva2U9IiM2OUFGRTUiIGQ9Ik0xNDIgODlMMTE0IDE2MSIvPjxwYXRoIHN0cm9rZS1saW5lam9pbj0icm91bmQiIHN0cm9rZS1saW5lY2FwPSJyb3VuZCIgc3Ryb2tlLXdpZHRoPSI4IiBzdHJva2U9IiM2OUFGRTUiIGQ9Ik05MiAxMDhMNzIgMTI0Ljg4TDkyIDE0MiIvPjxwYXRoIHN0cm9rZS1saW5lam9pbj0icm91bmQiIHN0cm9rZS1saW5lY2FwPSJyb3VuZCIgc3Ryb2tlLXdpZHRoPSI4IiBzdHJva2U9IiM2OUFGRTUiIGQ9Ik0xNjQgMTA4TDE4NCAxMjQuODhMMTY0IDE0MiIvPjwvc3ZnPg==;" vertex="1" parent="1">
                    <mxGeometry x="840" y="290" width="70" height="70" as="geometry"/>
                </mxCell>
                <mxCell id="28" value="OpenAPI 3.0 specified tool" style="shape=image;verticalLabelPosition=bottom;labelBackgroundColor=default;verticalAlign=top;aspect=fixed;imageAspect=0;image=data:image/svg+xml,PHN2ZyB4bWxucz0iaHR0cDovL3d3dy53My5vcmcvMjAwMC9zdmciIGZpbGw9Im5vbmUiIHZpZXdCb3g9IjAgMCAxNiAxNiIgaGVpZ2h0PSIxNiIgd2lkdGg9IjE2Ij48ZyBjbGlwLXBhdGg9InVybCgjY2xpcDBfODA5XzE0MDQ5OSkiPjxwYXRoIGZpbGw9IiMyOTI5MjkiIGQ9Ik0xMy43MTE4IDUuNDYwOUMxNC40OTQyIDYuOTk4NyAxNC43MDI0IDguNzY1MTkgMTQuMjk4OSAxMC40NDI4QzEzLjg5NTQgMTIuMTIwMyAxMi45MDY3IDEzLjU5ODkgMTEuNTEwNSAxNC42MTI3QzEwLjExNDMgMTUuNjI2NSA4LjQwMjMxIDE2LjEwOSA2LjY4MjIyIDE1Ljk3MzNDNC45NjIxNCAxNS44Mzc3IDMuMzQ2ODYgMTUuMDkyOSAyLjEyNjgxIDEzLjg3MjlDMC45MDY3NTEgMTIuNjUyOCAwLjE2MTk1OCAxMS4wMzc1IDAuMDI2MzQwMiA5LjMxNzQ2Qy0wLjEwOTI3OCA3LjU5NzM4IDAuMzczMTc3IDUuODg1MzQgMS4zODY5NiA0LjQ4OTE2QzIuNDAwNzQgMy4wOTI5OCAzLjg3OTM0IDIuMTA0MjUgNS41NTY5MiAxLjcwMDc1QzcuMjM0NDkgMS4yOTcyNSA5LjAwMDk5IDEuNTA1NDQgMTAuNTM4OCAyLjI4NzlDMTAuNjIzNiAxLjc5MDY1IDEwLjg0MzQgMS4zMjYzIDExLjE3NDQgMC45NDU2NDZDMTEuNTA1NCAwLjU2NDk4OSAxMS45MzQ2IDAuMjgyNjkzIDEyLjQxNTMgMC4xMjk2NDRDMTIuODk1OSAtMC4wMjM0MDYxIDEzLjQwOTQgLTAuMDQxMzEzMiAxMy44OTk1IDAuMDc3ODgxN0MxNC4zODk3IDAuMTk3MDc2IDE0LjgzNzYgMC40NDg3ODEgMTUuMTk0MiAwLjgwNTQ1N0MxNS41NTA5IDEuMTYyMTMgMTUuODAyNiAxLjYxMDA0IDE1LjkyMTggMi4xMDAxN0MxNi4wNDEgMi41OTAzIDE2LjAyMzEgMy4xMDM3NyAxNS44NyAzLjU4NDRDMTUuNzE3IDQuMDY1MDQgMTUuNDM0NyA0LjQ5NDMyIDE1LjA1NCA0LjgyNTI4QzE0LjY3MzQgNS4xNTYyNSAxNC4yMDkgNS4zNzYxNCAxMy43MTE4IDUuNDYwOVY1LjQ2MDlaIi8+PHBhdGggZmlsbD0iIzkzRDUwMCIgZD0iTTUuNDggNi43MTAxMkwzIDQuMjMwMTJDMy4yNDg4NCA0LjAwNDQxIDMuNTE2NDggMy44MDAzNCAzLjggMy42MjAxMkw1LjYgNi42MTExMkM1LjU1NyA2LjY0MTEyIDUuNTE5IDYuNjc3MTIgNS40OCA2LjcxMDEyWk00Ljc1NiA5Ljk3MTEyTDEuNzggMTEuODEwMUMxLjMwMDY3IDEwLjk0ODYgMS4wMzMzIDkuOTg1NDEgMSA5LjAwMDEySDQuNUM0LjUyMzQ5IDkuMzM3MDEgNC42MTAzNCA5LjY2NjQ0IDQuNzU2IDkuOTcxMTJWOS45NzExMlpNOC41NzMgMTEuMTM3MUwxMC4zOCAxNC4xMjAxQzkuNTUzODYgMTQuNjE0IDguNjI0MjIgMTQuOTA5IDcuNjY0NSAxNC45ODE5QzYuNzA0NzggMTUuMDU0NyA1Ljc0MTI1IDE0LjkwMzUgNC44NSAxNC41NDAxTDYuMiAxMS4zMjIxQzYuNTE3NTMgMTEuNDUxOSA2Ljg1Njk2IDExLjUxOTggNy4yIDExLjUyMjFINy4yMTZDNy42OTQ0MiAxMS41MTYxIDguMTYyNjggMTEuMzgzMiA4LjU3MyAxMS4xMzcxVjExLjEzNzFaIi8+PHBhdGggZmlsbD0iIzZCQTQzQSIgZD0iTTUuMjQ4MTYgMTAuNjg0MUwyLjgwMDE2IDEzLjE3MDFDMi40NTc5OCAxMi44MTY5IDIuMTU5MiAxMi40MjQxIDEuOTEwMTYgMTIuMDAwMUw0Ljg2NzE2IDEwLjE3MzFDNC45NzM3NiAxMC4zNTc3IDUuMTAxNjMgMTAuNTI5MiA1LjI0ODE2IDEwLjY4NDFWMTAuNjg0MVpNNS43ODExNiA2LjQ4OTFMNC4wMDAxNiAzLjQ4MDFDNC45NTE2IDIuOTA4MSA2LjA0MDAyIDIuNjA0MDQgNy4xNTAxNiAyLjYwMDFWNi4wODQxQzYuNjY1NjQgNi4wOTMxMyA2LjE5MjYgNi4yMzMwNyA1Ljc4MTE2IDYuNDg5MVY2LjQ4OTFaTTkuOTE4MTYgOC44MTAxSDEzLjQwMDJDMTMuNDAxMiA5LjYxNzk1IDEzLjI0MjcgMTAuNDE4MSAxMi45MzM4IDExLjE2NDVDMTIuNjI0OSAxMS45MTEgMTIuMTcxNyAxMi41ODkyIDExLjYwMDIgMTMuMTYwMUw5LjE0MjE2IDEwLjcwMDFDOS42Mzk1OSAxMC4xOTY5IDkuOTE4NDQgOS41MTc3IDkuOTE4MTYgOC44MTAxVjguODEwMVoiLz48cGF0aCBmaWxsPSIjNEQ1QTMxIiBkPSJNNC40ODQgOC43ODAxMUgxQzEuMDA0OCA3LjE0MDA2IDEuNjU5MjIgNS41Njg3MiAyLjgyIDQuNDEwMTFMNS4yOTMgNi44NjUxMUM1LjI4NSA2Ljg3MzExIDUuMjc0IDYuODc5MTEgNS4yNjYgNi44ODgxMUM0Ljc2NjI1IDcuMzkxMTIgNC40ODUyMiA4LjA3MTA0IDQuNDg0IDguNzgwMTFWOC43ODAxMVpNNy40NSA2LjEwMDExVjIuNjEwMTFDOC40NzUzMSAyLjY1MDY2IDkuNDczMzcgMi45NTE4IDEwLjM1IDMuNDg1MTFMNy42NTUgNi4xMjAxMUM3LjU4OSA2LjEwOTExIDcuNTE4IDYuMTA5MTEgNy40NSA2LjEwMDExWk01LjkyNSAxMS4xODcxTDQuNjIgMTQuNDQwMUM0LjAyNzk4IDE0LjE2MDggMy40ODE3NyAxMy43OTMzIDMgMTMuMzUwMUw1LjQ2NSAxMC44NzYxQzUuNjA3MzcgMTAuOTk1MSA1Ljc2MTUgMTEuMDk5MyA1LjkyNSAxMS4xODcxVjExLjE4NzFaTTEyLjUzNiA1LjY4MTExQzEzLjA1ODUgNi41NTM1OSAxMy4zNTIyIDcuNTQzODYgMTMuMzkgOC41NjAxMUg5LjlDOS44OTIgOC40NjcxMSA5Ljg5MSA4LjM3NDExIDkuODc0IDguMjgzMTFMMTIuNTM2IDUuNjgxMTFaTTguOTQ3IDEwLjg2ODFMMTEuNDIgMTMuMzUwMUMxMS4xNjQ2IDEzLjU4ODUgMTAuODkwNCAxMy44MDU4IDEwLjYgMTQuMDAwMUw4LjggMTAuOTkwMUM4Ljg1MiAxMC45NTIxIDguOSAxMC45MDkxIDguOTQ3IDEwLjg2ODFaIi8+PHBhdGggZmlsbD0id2hpdGUiIGQ9Ik0xNS4wMDAyIDIuNzJDMTUuMDAwMiAyLjk0NTg3IDE0Ljk1NTcgMy4xNjk1NCAxNC44NjkyIDMuMzc4MjJDMTQuNzgyOCAzLjU4NjkgMTQuNjU2MSAzLjc3NjUxIDE0LjQ5NjQgMy45MzYyMkMxNC4zMzY3IDQuMDk1OTQgMTQuMTQ3MSA0LjIyMjYzIDEzLjkzODQgNC4zMDkwN0MxMy43Mjk3IDQuMzk1NTEgMTMuNTA2IDQuNDQgMTMuMjgwMiA0LjQ0VjQuNDRDMTMuMDI0OSA0LjQ0MDI5IDEyLjc3MjUgNC4zODU3MiAxMi41NDAyIDQuMjhMOC43MzAxNyA4QzguOTA1NzcgOC4zMzI4MiA4Ljk2NzcxIDguNzEzOTQgOC45MDY1NyA5LjA4NTI0QzguODQ1NDIgOS40NTY1NCA4LjY2NDUzIDkuNzk3NjcgOC4zOTE0OSAxMC4wNTY2QzguMTE4NDQgMTAuMzE1NSA3Ljc2ODIxIDEwLjQ3ODEgNy4zOTQxOCAxMC41MTk1QzcuMDIwMTYgMTAuNTYwOSA2LjY0Mjg3IDEwLjQ3ODggNi4zMTk4MiAxMC4yODU4QzUuOTk2NzcgMTAuMDkyOCA1Ljc0NTY5IDkuNzk5NDkgNS42MDQ4NiA5LjQ1MDUzQzUuNDY0MDIgOS4xMDE1NyA1LjQ0MTE2IDguNzE2MTMgNS41Mzk3NSA4LjM1Mjk4QzUuNjM4MzUgNy45ODk4MiA1Ljg1Mjk5IDcuNjY4ODYgNi4xNTA5NiA3LjQzOTAzQzYuNDQ4OTMgNy4yMDkyMSA2LjgxMzg4IDcuMDgzMTIgNy4xOTAxNyA3LjA4SDcuMjAwMTdDNy40NTUyMyA3LjA4MTc4IDcuNzA3MTYgNy4xMzYyNSA3Ljk0MDE3IDcuMjRMMTEuNzUwMiAzLjUxQzExLjYyMDkgMy4yNjcwNCAxMS41NTU1IDIuOTk1MTggMTEuNTYwMiAyLjcyQzExLjU2MDIgMi4yNjM4MyAxMS43NDE0IDEuODI2MzQgMTIuMDYzOSAxLjUwMzc4QzEyLjM4NjUgMS4xODEyMSAxMi44MjQgMSAxMy4yODAyIDFDMTMuNzM2MyAxIDE0LjE3MzggMS4xODEyMSAxNC40OTY0IDEuNTAzNzhDMTQuODE5IDEuODI2MzQgMTUuMDAwMiAyLjI2MzgzIDE1LjAwMDIgMi43MlYyLjcyWiIvPjwvZz48ZGVmcz48Y2xpcFBhdGggaWQ9ImNsaXAwXzgwOV8xNDA0OTkiPjxyZWN0IGZpbGw9IndoaXRlIiBoZWlnaHQ9IjE2IiB3aWR0aD0iMTYiLz48L2NsaXBQYXRoPjwvZGVmcz48L3N2Zz4=;" vertex="1" parent="1">
                    <mxGeometry x="840" y="110" width="70" height="70" as="geometry"/>
                </mxCell>
                <mxCell id="32" value="File" style="shape=image;verticalLabelPosition=bottom;labelBackgroundColor=default;verticalAlign=top;aspect=fixed;imageAspect=0;image=data:image/svg+xml,PHN2ZyB4bWxucz0iaHR0cDovL3d3dy53My5vcmcvMjAwMC9zdmciIGZpbGw9Im5vbmUiIHZpZXdCb3g9IjAgMCAzMiAzMiIgaGVpZ2h0PSIzMiIgd2lkdGg9IjMyIj48cGF0aCBmaWxsPSJ3aGl0ZSIgZD0iTTkuNTk5NjEgMy4xOTkyMkM3LjgzMjMgMy4xOTkyMiA2LjM5OTYxIDQuNjMxOTEgNi4zOTk2MSA2LjM5OTIyVjE0LjczMDVDNi45MTUyNiAxNC41ODQ2IDcuNDUwMTUgMTQuNDg0NiA3Ljk5OTYxIDE0LjQzNTFWNi4zOTkyMkM3Ljk5OTYxIDUuNTE1NTYgOC43MTU5NSA0Ljc5OTIyIDkuNTk5NjEgNC43OTkyMkgxNS45OTk2VjEwLjM5OTJDMTUuOTk5NiAxMS43MjQ3IDE3LjA3NDEgMTIuNzk5MiAxOC4zOTk2IDEyLjc5OTJIMjMuOTk5NlYyNS41OTkyQzIzLjk5OTYgMjYuNDgyOSAyMy4yODMzIDI3LjE5OTIgMjIuMzk5NiAyNy4xOTkySDE2LjY0MDFDMTYuMzQ3NCAyNy43NzE3IDE1Ljk5NCAyOC4zMDc4IDE1LjU4ODIgMjguNzk5MkgyMi4zOTk2QzI0LjE2NjkgMjguNzk5MiAyNS41OTk2IDI3LjM2NjUgMjUuNTk5NiAyNS41OTkyVjExLjg2MkMyNS41OTk2IDExLjIyNTQgMjUuMzQ2OCAxMC42MTUgMjQuODk2NyAxMC4xNjQ5TDE4LjYzMzkgMy45MDIxNkMxOC4xODM4IDMuNDUyMDggMTcuNTczNCAzLjE5OTIyIDE2LjkzNjkgMy4xOTkyMkg5LjU5OTYxWk0yMy42NjgyIDExLjE5OTJIMTguMzk5NkMxNy45NTc4IDExLjE5OTIgMTcuNTk5NiAxMC44NDEgMTcuNTk5NiAxMC4zOTkyVjUuMTMwNTlMMjMuNjY4MiAxMS4xOTkyWk04Ljc5OTYxIDMwLjM5OTJDMTIuNzc2MSAzMC4zOTkyIDE1Ljk5OTYgMjcuMTc1NyAxNS45OTk2IDIzLjE5OTJDMTUuOTk5NiAxOS4yMjI4IDEyLjc3NjEgMTUuOTk5MiA4Ljc5OTYxIDE1Ljk5OTJDNC44MjMxNiAxNS45OTkyIDEuNTk5NjEgMTkuMjIyOCAxLjU5OTYxIDIzLjE5OTJDMS41OTk2MSAyNy4xNzU3IDQuODIzMTYgMzAuMzk5MiA4Ljc5OTYxIDMwLjM5OTJaTTEyLjU2NTMgMjIuNjMzNkMxMi44Nzc3IDIyLjk0NiAxMi44Nzc3IDIzLjQ1MjYgMTIuNTY1MyAyMy43NjVDMTIuMjUyOCAyNC4wNzc0IDExLjc0NjMgMjQuMDc3NCAxMS40MzM5IDIzLjc2NUw5LjU5OTU3IDIxLjkzMDdMOS41OTk1NyAyNi4zOTkzQzkuNTk5NTcgMjYuODQxMSA5LjI0MTM5IDI3LjE5OTMgOC43OTk1NyAyNy4xOTkzQzguMzU3NzQgMjcuMTk5MyA3Ljk5OTU3IDI2Ljg0MTEgNy45OTk1NyAyNi4zOTkzTDcuOTk5NTcgMjEuOTMwN0w2LjE2NTI1IDIzLjc2NUM1Ljg1MjgzIDI0LjA3NzQgNS4zNDYzIDI0LjA3NzQgNS4wMzM4OCAyMy43NjVDNC43MjE0NiAyMy40NTI2IDQuNzIxNDYgMjIuOTQ2IDUuMDMzODggMjIuNjMzNkw4LjIzMzg4IDE5LjQzMzZDOC4zMTA1OCAxOS4zNTY5IDguMzk4OTggMTkuMjk5IDguNDkzMzQgMTkuMjZDOC41ODYyNyAxOS4yMjE1IDguNjg4MDQgMTkuMTk5OSA4Ljc5NDc3IDE5LjE5OTNMOC43OTk1NyAxOS4xOTkzTDguODA0MzYgMTkuMTk5M0M4LjkxMTA5IDE5LjE5OTkgOS4wMTI4NiAxOS4yMjE1IDkuMTA1NzkgMTkuMjZDOS4xOTg3NiAxOS4yOTg1IDkuMjg1OTQgMTkuMzU1MiA5LjM2MTg1IDE5LjQzMDJMOS4zNjU4OSAxOS40MzQzTDEyLjU2NTMgMjIuNjMzNloiLz48L3N2Zz4=;" vertex="1" parent="1">
                    <mxGeometry x="840" y="470" width="70" height="70" as="geometry"/>
                </mxCell>
                <mxCell id="35" value="" style="edgeStyle=none;html=1;endArrow=none;endFill=0;exitX=1;exitY=0.5;exitDx=0;exitDy=0;entryX=0;entryY=0.5;entryDx=0;entryDy=0;" edge="1" parent="1" source="39" target="32">
                    <mxGeometry relative="1" as="geometry">
                        <mxPoint x="670" y="445" as="sourcePoint"/>
                        <mxPoint x="720" y="445" as="targetPoint"/>
                    </mxGeometry>
                </mxCell>
                <mxCell id="37" value="" style="edgeStyle=none;html=1;endArrow=none;endFill=0;" edge="1" parent="1" source="17" target="36">
                    <mxGeometry relative="1" as="geometry">
                        <mxPoint x="670" y="325" as="sourcePoint"/>
                        <mxPoint x="820" y="325" as="targetPoint"/>
                    </mxGeometry>
                </mxCell>
                <mxCell id="36" value="Action" style="shape=image;verticalLabelPosition=bottom;labelBackgroundColor=default;verticalAlign=top;aspect=fixed;imageAspect=0;image=data:image/svg+xml,PHN2ZyB4bWxucz0iaHR0cDovL3d3dy53My5vcmcvMjAwMC9zdmciIHJvbGU9InByZXNlbnRhdGlvbiIgZmlsbD0ibm9uZSIgdmlld0JveD0iMCAwIDMyIDMyIiBoZWlnaHQ9IjQwcHgiIHdpZHRoPSI0MHB4Ij48cGF0aCBmaWxsPSJ1cmwoI3BhaW50MF9saW5lYXJfMzUxMF8yNjA0NCkiIGQ9Ik0xMC41IDE5LjA5MDdWN0g4LjVWMTkuMDkwN0M1LjkzOTg4IDE5LjU2MDkgNCAyMS44MDM5IDQgMjQuNUM0IDI3LjUzNzYgNi40NjI0MyAzMCA5LjUgMzBDMTIuNTM3NiAzMCAxNSAyNy41Mzc2IDE1IDI0LjVDMTUgMjEuODAzOSAxMy4wNjAxIDE5LjU2MDkgMTAuNSAxOS4wOTA3WiIgY2xpcC1ydWxlPSJldmVub2RkIiBmaWxsLXJ1bGU9ImV2ZW5vZGQiLz48cGF0aCBmaWxsPSJ1cmwoI3BhaW50MV9saW5lYXJfMzUxMF8yNjA0NCkiIGQ9Ik0xMC41IDE5LjA5MDdWN0g4LjVWMTkuMDkwN0M1LjkzOTg4IDE5LjU2MDkgNCAyMS44MDM5IDQgMjQuNUM0IDI3LjUzNzYgNi40NjI0MyAzMCA5LjUgMzBDMTIuNTM3NiAzMCAxNSAyNy41Mzc2IDE1IDI0LjVDMTUgMjEuODAzOSAxMy4wNjAxIDE5LjU2MDkgMTAuNSAxOS4wOTA3WiIgY2xpcC1ydWxlPSJldmVub2RkIiBmaWxsLXJ1bGU9ImV2ZW5vZGQiLz48cGF0aCBmaWxsPSJibGFjayIgZD0iTTQuMDA1NTggMjQuMjVDNC4wMDE4NyAyNC4zMzI5IDQgMjQuNDE2MiA0IDI0LjVDNCAyNy41Mzc2IDYuNDYyNDMgMzAgOS41IDMwQzEyLjUzNzYgMzAgMTUgMjcuNTM3NiAxNSAyNC41QzE1IDI0LjQxNjIgMTQuOTk4MSAyNC4zMzI5IDE0Ljk5NDQgMjQuMjVDMTQuODYzNyAyNy4xNzE1IDEyLjQ1MzggMjkuNSA5LjUgMjkuNUM2LjU0NjIyIDI5LjUgNC4xMzYyOCAyNy4xNzE1IDQuMDA1NTggMjQuMjVaIiBjbGlwLXJ1bGU9ImV2ZW5vZGQiIGZpbGwtcnVsZT0iZXZlbm9kZCIgb3BhY2l0eT0iMC4zIi8+PHBhdGggZmlsbD0id2hpdGUiIGQ9Ik0xMC41IDdWNy41SDguNVY3SDEwLjVaTTguNSAxOS4wOTA3QzUuOTM5ODggMTkuNTYwOSA0IDIxLjgwMzkgNCAyNC41QzQgMjQuNTgzOCA0LjAwMTg3IDI0LjY2NzEgNC4wMDU1OCAyNC43NUM0LjEyMTE3IDIyLjE2NjIgNi4wMTk0NCAyMC4wNDYzIDguNSAxOS41OTA3VjE5LjA5MDdaTTE0Ljk5NDQgMjQuNzVDMTQuOTk4MSAyNC42NjcxIDE1IDI0LjU4MzggMTUgMjQuNUMxNSAyMS44MDM5IDEzLjA2MDEgMTkuNTYwOSAxMC41IDE5LjA5MDdWMTkuNTkwN0MxMi45ODA2IDIwLjA0NjMgMTQuODc4OCAyMi4xNjYyIDE0Ljk5NDQgMjQuNzVaIiBjbGlwLXJ1bGU9ImV2ZW5vZGQiIGZpbGwtcnVsZT0iZXZlbm9kZCIgb3BhY2l0eT0iMC4xIi8+PGNpcmNsZSBmaWxsPSIjRjRGM0Y1IiByPSIyLjc1IiBjeT0iNy41IiBjeD0iOS41Ii8+PHBhdGggZmlsbD0idXJsKCNwYWludDJfbGluZWFyXzM1MTBfMjYwNDQpIiBkPSJNNi41IDJDNS4xMTkyOSAyIDQgMy4xMTkyOSA0IDQuNVYxMC41QzQgMTEuODgwNyA1LjExOTI5IDEzIDYuNSAxM0g4LjVWMTMuNUM4LjUgMTUuNDMzIDEwLjA2NyAxNyAxMiAxN0gyMEMyMC44Mjg0IDE3IDIxLjUgMTcuNjcxNiAyMS41IDE4LjVWMTkuMDkwN0MxOC45Mzk5IDE5LjU2MDkgMTcgMjEuODAzOSAxNyAyNC41QzE3IDI3LjUzNzYgMTkuNDYyNCAzMCAyMi41IDMwQzI1LjUzNzYgMzAgMjggMjcuNTM3NiAyOCAyNC41QzI4IDIxLjgwMzkgMjYuMDYwMSAxOS41NjA5IDIzLjUgMTkuMDkwN1YxOC41QzIzLjUgMTYuNTY3IDIxLjkzMyAxNSAyMCAxNUgxMkMxMS4xNzE2IDE1IDEwLjUgMTQuMzI4NCAxMC41IDEzLjVWMTNIMTIuNUMxMy44ODA3IDEzIDE1IDExLjg4MDcgMTUgMTAuNVY0LjVDMTUgMy4xMTkyOSAxMy44ODA3IDIgMTIuNSAySDYuNVoiIGNsaXAtcnVsZT0iZXZlbm9kZCIgZmlsbC1ydWxlPSJldmVub2RkIi8+PHBhdGggZmlsbD0iYmxhY2siIGQ9Ik00IDEwVjEwLjVDNCAxMS44ODA3IDUuMTE5MjkgMTMgNi41IDEzSDguNVYxMy41QzguNSAxNS40MzMgMTAuMDY3IDE3IDEyIDE3SDIwQzIwLjgyODQgMTcgMjEuNSAxNy42NzE2IDIxLjUgMTguNVYxOEMyMS41IDE3LjE3MTYgMjAuODI4NCAxNi41IDIwIDE2LjVIMTJDMTAuMDY3IDE2LjUgOC41IDE0LjkzMyA4LjUgMTNWMTIuNUg2LjVDNS4xMTkyOSAxMi41IDQgMTEuMzgwNyA0IDEwWk0xNy4wMDU2IDI0LjI1QzE3LjAwMTkgMjQuMzMyOSAxNyAyNC40MTYyIDE3IDI0LjVDMTcgMjcuNTM3NiAxOS40NjI0IDMwIDIyLjUgMzBDMjUuNTM3NiAzMCAyOCAyNy41Mzc2IDI4IDI0LjVDMjggMjQuNDE2MiAyNy45OTgxIDI0LjMzMjkgMjcuOTk0NCAyNC4yNUMyNy44NjM3IDI3LjE3MTUgMjUuNDUzOCAyOS41IDIyLjUgMjkuNUMxOS41NDYyIDI5LjUgMTcuMTM2MyAyNy4xNzE1IDE3LjAwNTYgMjQuMjVaTTEwLjUgMTNIMTIuNUMxMy44ODA3IDEzIDE1IDExLjg4MDcgMTUgMTAuNVYxMEMxNSAxMS4zODA3IDEzLjg4MDcgMTIuNSAxMi41IDEyLjVIMTAuNVYxM1oiIGNsaXAtcnVsZT0iZXZlbm9kZCIgZmlsbC1ydWxlPSJldmVub2RkIiBvcGFjaXR5PSIwLjIiLz48cGF0aCBmaWxsPSJ3aGl0ZSIgZD0iTTQgNC41QzQgMy4xMTkyOSA1LjExOTI5IDIgNi41IDJIMTIuNUMxMy44ODA3IDIgMTUgMy4xMTkyOSAxNSA0LjVWNUMxNSAzLjYxOTI5IDEzLjg4MDcgMi41IDEyLjUgMi41SDYuNUM1LjExOTI5IDIuNSA0IDMuNjE5MjkgNCA1VjQuNVpNMjEuNSAxOS4wOTA3QzE4LjkzOTkgMTkuNTYwOSAxNyAyMS44MDM5IDE3IDI0LjVDMTcgMjQuNTgzOCAxNy4wMDE5IDI0LjY2NzEgMTcuMDA1NiAyNC43NUMxNy4xMjEyIDIyLjE2NjIgMTkuMDE5NCAyMC4wNDYzIDIxLjUgMTkuNTkwN1YxOS4wOTA3Wk0yNy45OTQ0IDI0Ljc1QzI3Ljk5ODEgMjQuNjY3MSAyOCAyNC41ODM4IDI4IDI0LjVDMjggMjEuODAzOSAyNi4wNjAxIDE5LjU2MDkgMjMuNSAxOS4wOTA3VjE5LjU5MDdDMjUuOTgwNiAyMC4wNDYzIDI3Ljg3ODggMjIuMTY2MiAyNy45OTQ0IDI0Ljc1Wk0yMy41IDE5VjE4LjVDMjMuNSAxNi41NjcgMjEuOTMzIDE1IDIwIDE1SDEyQzExLjE3MTYgMTUgMTAuNSAxNC4zMjg0IDEwLjUgMTMuNVYxNEMxMC41IDE0LjgyODQgMTEuMTcxNiAxNS41IDEyIDE1LjVIMjBDMjEuOTMzIDE1LjUgMjMuNSAxNy4wNjcgMjMuNSAxOVoiIGNsaXAtcnVsZT0iZXZlbm9kZCIgZmlsbC1ydWxlPSJldmVub2RkIiBvcGFjaXR5PSIwLjMiLz48Y2lyY2xlIGZpbGw9IiMwMDc4RDQiIHI9IjIuNSIgY3k9IjcuNSIgY3g9IjkuNSIvPjxwYXRoIGZpbGw9ImJsYWNrIiBkPSJNMTEuOTg3NyA3Ljc1QzExLjk5NTggNy42Njc3NyAxMiA3LjU4NDM3IDEyIDcuNUMxMiA2LjExOTI5IDEwLjg4MDcgNSA5LjUgNUM4LjExOTI5IDUgNyA2LjExOTI5IDcgNy41QzcgNy41ODQzNyA3LjAwNDE4IDcuNjY3NzcgNy4wMTIzNCA3Ljc1QzcuMTM3NzcgNi40ODY2NyA4LjIwMzY2IDUuNSA5LjUgNS41QzEwLjc5NjMgNS41IDExLjg2MjIgNi40ODY2NyAxMS45ODc3IDcuNzVaIiBjbGlwLXJ1bGU9ImV2ZW5vZGQiIGZpbGwtcnVsZT0iZXZlbm9kZCIgb3BhY2l0eT0iMC4yIi8+PGRlZnM+PGxpbmVhckdyYWRpZW50IGdyYWRpZW50VW5pdHM9InVzZXJTcGFjZU9uVXNlIiB5Mj0iMjEuMzMyMyIgeDI9Ii0yLjg3NTI1IiB5MT0iNS4yNTQ0NiIgeDE9IjE0LjMxMjUiIGlkPSJwYWludDBfbGluZWFyXzM1MTBfMjYwNDQiPjxzdG9wIHN0b3AtY29sb3I9IiMyQTQ0NkYiLz48c3RvcCBzdG9wLWNvbG9yPSIjMDkxRjJDIiBvZmZzZXQ9IjEiLz48L2xpbmVhckdyYWRpZW50PjxsaW5lYXJHcmFkaWVudCBncmFkaWVudFVuaXRzPSJ1c2VyU3BhY2VPblVzZSIgeTI9IjMwIiB4Mj0iOS41IiB5MT0iNyIgeDE9IjkuNSIgaWQ9InBhaW50MV9saW5lYXJfMzUxMF8yNjA0NCI+PHN0b3Agc3RvcC1vcGFjaXR5PSIwLjYiIG9mZnNldD0iMC4yMDc2OCIvPjxzdG9wIHN0b3Atb3BhY2l0eT0iMCIgb2Zmc2V0PSIwLjUwMzQ0NCIvPjwvbGluZWFyR3JhZGllbnQ+PGxpbmVhckdyYWRpZW50IGdyYWRpZW50VW5pdHM9InVzZXJTcGFjZU9uVXNlIiB5Mj0iMzUuNDM1NiIgeDI9IjIyLjU3MDIiIHkxPSI0LjI1IiB4MT0iNi43NSIgaWQ9InBhaW50Ml9saW5lYXJfMzUxMF8yNjA0NCI+PHN0b3Agc3RvcC1jb2xvcj0iIzhEQzhFOCIgb2Zmc2V0PSIwLjMxNDk5MyIvPjxzdG9wIHN0b3AtY29sb3I9IiMwMDc4RDQiIG9mZnNldD0iMC41Mzc5ODciLz48c3RvcCBzdG9wLWNvbG9yPSIjQzAzQkM0IiBvZmZzZXQ9IjAuOTQyNzY5Ii8+PC9saW5lYXJHcmFkaWVudD48L2RlZnM+PC9zdmc+;" vertex="1" parent="1">
                    <mxGeometry x="730" y="300" width="50" height="50" as="geometry"/>
                </mxCell>
                <mxCell id="40" value="" style="edgeStyle=none;html=1;endArrow=none;endFill=0;exitX=1;exitY=0.5;exitDx=0;exitDy=0;entryX=0;entryY=0.5;entryDx=0;entryDy=0;" edge="1" parent="1" source="18" target="39">
                    <mxGeometry relative="1" as="geometry">
                        <mxPoint x="670" y="445" as="sourcePoint"/>
                        <mxPoint x="820" y="445" as="targetPoint"/>
                    </mxGeometry>
                </mxCell>
                <mxCell id="39" value="Knowledge" style="shape=image;verticalLabelPosition=bottom;labelBackgroundColor=default;verticalAlign=top;aspect=fixed;imageAspect=0;image=data:image/svg+xml,PHN2ZyB4bWxucz0iaHR0cDovL3d3dy53My5vcmcvMjAwMC9zdmciIHJvbGU9InByZXNlbnRhdGlvbiIgZmlsbD0ibm9uZSIgdmlld0JveD0iMCAwIDU2IDUwIiBoZWlnaHQ9IjQwcHgiIHdpZHRoPSI0MHB4Ij48cGF0aCBmaWxsPSJ1cmwoI3BhaW50MF9saW5lYXJfMzQzMV85ODc4KSIgZD0iTTAgMjdDMCAzMy42Mjc0IDUuMzcyNTggMzkgMTIgMzlINDRDNTAuNjI3NCAzOSA1NiAzMy42Mjc0IDU2IDI3QzU2IDIwLjk3NDggNTEuNTU5NCAxNS45ODY3IDQ1Ljc3MjQgMTUuMTNDNDQuMzk4MSA2LjU1Mjk4IDM2Ljk2NDMgMCAyOCAwQzE5LjAzNTcgMCAxMS42MDE5IDYuNTUyOTggMTAuMjI3NiAxNS4xM0M0LjQ0MDU3IDE1Ljk4NjcgMCAyMC45NzQ4IDAgMjdaIiBjbGlwLXJ1bGU9ImV2ZW5vZGQiIGZpbGwtcnVsZT0iZXZlbm9kZCIvPjxwYXRoIGZpbGw9InVybCgjcGFpbnQxX2xpbmVhcl8zNDMxXzk4NzgpIiBkPSJNMCAyN0MwIDMzLjYyNzQgNS4zNzI1OCAzOSAxMiAzOUg0NEM1MC42Mjc0IDM5IDU2IDMzLjYyNzQgNTYgMjdDNTYgMjAuOTc0OCA1MS41NTk0IDE1Ljk4NjcgNDUuNzcyNCAxNS4xM0M0NC4zOTgxIDYuNTUyOTggMzYuOTY0MyAwIDI4IDBDMTkuMDM1NyAwIDExLjYwMTkgNi41NTI5OCAxMC4yMjc2IDE1LjEzQzQuNDQwNTcgMTUuOTg2NyAwIDIwLjk3NDggMCAyN1oiIGNsaXAtcnVsZT0iZXZlbm9kZCIgZmlsbC1ydWxlPSJldmVub2RkIi8+PHBhdGggZmlsbD0iYmxhY2siIGQ9Ik0wLjAxMDIyNzggMjYuNUMwLjI3MjM1NyAzMi44OTU1IDUuNTQwMDcgMzggMTIgMzhINDRDNTAuNDU5OSAzOCA1NS43Mjc2IDMyLjg5NTUgNTUuOTg5OCAyNi41QzU1Ljk5NjYgMjYuNjY1OCA1NiAyNi44MzI1IDU2IDI3QzU2IDMzLjYyNzQgNTAuNjI3NCAzOSA0NCAzOUgxMkM1LjM3MjU4IDM5IDAgMzMuNjI3NCAwIDI3QzAgMjYuODMyNSAwLjAwMzQzMTQyIDI2LjY2NTggMC4wMTAyMjc4IDI2LjVaIiBjbGlwLXJ1bGU9ImV2ZW5vZGQiIGZpbGwtcnVsZT0iZXZlbm9kZCIgb3BhY2l0eT0iMC4wNSIvPjxwYXRoIGZpbGw9IndoaXRlIiBkPSJNMC4wMTAyMjc4IDI3LjVDMC4wMDM0MzE0MiAyNy4zMzQyIDAgMjcuMTY3NSAwIDI3QzAgMjAuOTc0OCA0LjQ0MDU3IDE1Ljk4NjcgMTAuMjI3NiAxNS4xM0MxMS42MDE5IDYuNTUyOTggMTkuMDM1NyAwIDI4IDBDMzYuOTY0MyAwIDQ0LjM5ODEgNi41NTI5OCA0NS43NzI0IDE1LjEzQzUxLjU1OTQgMTUuOTg2NyA1NiAyMC45NzQ4IDU2IDI3QzU2IDI3LjE2NzUgNTUuOTk2NiAyNy4zMzQyIDU1Ljk4OTggMjcuNUM1NS43NTIxIDIxLjcwMDcgNTEuMzk4NiAxNi45NjI5IDQ1Ljc3MjQgMTYuMTNDNDQuMzk4MSA3LjU1Mjk4IDM2Ljk2NDMgMSAyOCAxQzE5LjAzNTcgMSAxMS42MDE5IDcuNTUyOTggMTAuMjI3NiAxNi4xM0M0LjYwMTQ0IDE2Ljk2MjkgMC4yNDc5MjEgMjEuNzAwNyAwLjAxMDIyNzggMjcuNVoiIGNsaXAtcnVsZT0iZXZlbm9kZCIgZmlsbC1ydWxlPSJldmVub2RkIiBvcGFjaXR5PSIwLjEiLz48cGF0aCBmaWxsPSJibGFjayIgZD0iTTM1LjczMjYgMzlDMzUuNjQ3IDM4Ljg1MTkgMzUuNTQwOSAzOC43MTI1IDM1LjQxNDIgMzguNTg1OEwyOS40MTQyIDMyLjU4NThDMjguNjMzMiAzMS44MDQ3IDI3LjM2NjggMzEuODA0NyAyNi41ODU4IDMyLjU4NThMMjAuNTg1OCAzOC41ODU4QzIwLjQ1OTEgMzguNzEyNSAyMC4zNTMgMzguODUxOSAyMC4yNjc0IDM5SDI1LjgyODRMMjYuMDAwMSAzOC44MjgzTDI2LjAwMDEgMzlIMzAuMDAwMUwzMC4wMDAxIDM4LjgyODVMMzAuMTcxNiAzOUgzNS43MzI2Wk0xOCAyOEMxOCAyNi44OTU0IDE4Ljg5NTQgMjYgMjAgMjZIMzZDMzcuMTA0NiAyNiAzOCAyNi44OTU0IDM4IDI4QzM4IDI5LjEwNDYgMzcuMTA0NiAzMCAzNiAzMEgyMEMxOC44OTU0IDMwIDE4IDI5LjEwNDYgMTggMjhaIiBjbGlwLXJ1bGU9ImV2ZW5vZGQiIGZpbGwtcnVsZT0iZXZlbm9kZCIgb3BhY2l0eT0iMC4xIi8+PHBhdGggZmlsbD0idXJsKCNwYWludDJfbGluZWFyXzM0MzFfOTg3OCkiIGQ9Ik0yMCAyNUMxOC44OTU0IDI1IDE4IDI1Ljg5NTQgMTggMjdDMTggMjguMTA0NiAxOC44OTU0IDI5IDIwIDI5SDM2QzM3LjEwNDYgMjkgMzggMjguMTA0NiAzOCAyN0MzOCAyNS44OTU0IDM3LjEwNDYgMjUgMzYgMjVIMjBaTTI5LjQxNDIgMzEuNTg1OEMyOC42MzMyIDMwLjgwNDcgMjcuMzY2OCAzMC44MDQ3IDI2LjU4NTggMzEuNTg1OEwyMC41ODU4IDM3LjU4NThDMTkuODA0NyAzOC4zNjY4IDE5LjgwNDcgMzkuNjMzMiAyMC41ODU4IDQwLjQxNDJDMjEuMzY2OCA0MS4xOTUzIDIyLjYzMzIgNDEuMTk1MyAyMy40MTQyIDQwLjQxNDJMMjYuMDAwMSAzNy44MjgzTDI2LjAwMDMgNDhDMjYuMDAwMyA0OS4xMDQ2IDI2Ljg5NTcgNTAgMjguMDAwMyA1MEMyOS4xMDQ5IDUwIDMwLjAwMDMgNDkuMTA0NSAzMC4wMDAzIDQ4TDMwLjAwMDEgMzcuODI4NUwzMi41ODU4IDQwLjQxNDJDMzMuMzY2OCA0MS4xOTUzIDM0LjYzMzIgNDEuMTk1MyAzNS40MTQyIDQwLjQxNDJDMzYuMTk1MyAzOS42MzMyIDM2LjE5NTMgMzguMzY2OCAzNS40MTQyIDM3LjU4NThMMjkuNDE0MiAzMS41ODU4WiIgY2xpcC1ydWxlPSJldmVub2RkIiBmaWxsLXJ1bGU9ImV2ZW5vZGQiLz48cGF0aCBmaWxsPSJ1cmwoI3BhaW50M19saW5lYXJfMzQzMV85ODc4KSIgZD0iTTIwIDI1QzE4Ljg5NTQgMjUgMTggMjUuODk1NCAxOCAyN0MxOCAyOC4xMDQ2IDE4Ljg5NTQgMjkgMjAgMjlIMzZDMzcuMTA0NiAyOSAzOCAyOC4xMDQ2IDM4IDI3QzM4IDI1Ljg5NTQgMzcuMTA0NiAyNSAzNiAyNUgyMFpNMjkuNDE0MiAzMS41ODU4QzI4LjYzMzIgMzAuODA0NyAyNy4zNjY4IDMwLjgwNDcgMjYuNTg1OCAzMS41ODU4TDIwLjU4NTggMzcuNTg1OEMxOS44MDQ3IDM4LjM2NjggMTkuODA0NyAzOS42MzMyIDIwLjU4NTggNDAuNDE0MkMyMS4zNjY4IDQxLjE5NTMgMjIuNjMzMiA0MS4xOTUzIDIzLjQxNDIgNDAuNDE0MkwyNi4wMDAxIDM3LjgyODNMMjYuMDAwMyA0OEMyNi4wMDAzIDQ5LjEwNDYgMjYuODk1NyA1MCAyOC4wMDAzIDUwQzI5LjEwNDkgNTAgMzAuMDAwMyA0OS4xMDQ1IDMwLjAwMDMgNDhMMzAuMDAwMSAzNy44Mjg1TDMyLjU4NTggNDAuNDE0MkMzMy4zNjY4IDQxLjE5NTMgMzQuNjMzMiA0MS4xOTUzIDM1LjQxNDIgNDAuNDE0MkMzNi4xOTUzIDM5LjYzMzIgMzYuMTk1MyAzOC4zNjY4IDM1LjQxNDIgMzcuNTg1OEwyOS40MTQyIDMxLjU4NThaIiBjbGlwLXJ1bGU9ImV2ZW5vZGQiIGZpbGwtcnVsZT0iZXZlbm9kZCIvPjxwYXRoIGZpbGw9ImJsYWNrIiBkPSJNMTguMDYzIDI2LjVDMTguMjg1IDI3LjM2MjYgMTkuMDY4MSAyOCAyMCAyOEgzNkMzNi45MzE5IDI4IDM3LjcxNSAyNy4zNjI2IDM3LjkzNyAyNi41QzM3Ljk3ODEgMjYuNjU5OCAzOCAyNi44MjczIDM4IDI3QzM4IDI4LjEwNDYgMzcuMTA0NiAyOSAzNiAyOUgyMEMxOC44OTU0IDI5IDE4IDI4LjEwNDYgMTggMjdDMTggMjYuODI3NCAxOC4wMjE5IDI2LjY1OTggMTguMDYzIDI2LjVaTTIwLjA2MzIgMzguNUMxOS44OTI4IDM5LjE2MjYgMjAuMDY3IDM5Ljg5NTQgMjAuNTg1OCA0MC40MTQyQzIxLjM2NjggNDEuMTk1MyAyMi42MzMyIDQxLjE5NTMgMjMuNDE0MiA0MC40MTQyTDI2LjAwMDEgMzcuODI4M1YzNi44MjgzTDIzLjQxNDIgMzkuNDE0MkMyMi42MzMyIDQwLjE5NTMgMjEuMzY2OCA0MC4xOTUzIDIwLjU4NTggMzkuNDE0MkMyMC4zMjM1IDM5LjE1MTkgMjAuMTQ5MyAzOC44MzUgMjAuMDYzMiAzOC41Wk0yNi4wMDAzIDQ3VjQ4QzI2LjAwMDMgNDkuMTA0NiAyNi44OTU3IDUwIDI4LjAwMDMgNTBDMjkuMTA0OSA1MCAzMC4wMDAzIDQ5LjEwNDUgMzAuMDAwMyA0OEwzMC4wMDAzIDQ3LjAwODVDMjkuOTk1NyA0OC4xMDkyIDI5LjEwMiA0OSAyOC4wMDAzIDQ5QzI2Ljg5NTcgNDkgMjYuMDAwMyA0OC4xMDQ2IDI2LjAwMDMgNDdaTTMwLjAwMDEgMzcuODI4NVYzNi44Mjg1TDMyLjU4NTggMzkuNDE0MkMzMy4zNjY4IDQwLjE5NTMgMzQuNjMzMiA0MC4xOTUzIDM1LjQxNDIgMzkuNDE0MkMzNS42NzY1IDM5LjE1MTkgMzUuODUwNyAzOC44MzUgMzUuOTM2OCAzOC41QzM2LjEwNzIgMzkuMTYyNiAzNS45MzMgMzkuODk1NCAzNS40MTQyIDQwLjQxNDJDMzQuNjMzMiA0MS4xOTUzIDMzLjM2NjggNDEuMTk1MyAzMi41ODU4IDQwLjQxNDJMMzAuMDAwMSAzNy44Mjg1WiIgY2xpcC1ydWxlPSJldmVub2RkIiBmaWxsLXJ1bGU9ImV2ZW5vZGQiIG9wYWNpdHk9IjAuMiIvPjxwYXRoIGZpbGw9IndoaXRlIiBkPSJNMTggMjdDMTggMjUuODk1NCAxOC44OTU0IDI1IDIwIDI1SDM2QzM3LjEwNDYgMjUgMzggMjUuODk1NCAzOCAyN0MzOCAyNy4xNzI2IDM3Ljk3ODEgMjcuMzQwMiAzNy45MzcgMjcuNUMzNy43MTUgMjYuNjM3NCAzNi45MzE5IDI2IDM2IDI2SDIwQzE5LjA2ODEgMjYgMTguMjg1IDI2LjYzNzQgMTguMDYzIDI3LjVDMTguMDIxOSAyNy4zNDAyIDE4IDI3LjE3MjcgMTggMjdaTTI2LjU4NTggMzEuNTg1OEMyNy4zNjY4IDMwLjgwNDcgMjguNjMzMiAzMC44MDQ3IDI5LjQxNDIgMzEuNTg1OEwzNS40MTQyIDM3LjU4NThDMzUuOTMzIDM4LjEwNDYgMzYuMTA3MiAzOC44Mzc0IDM1LjkzNjggMzkuNUMzNS44NTA3IDM5LjE2NSAzNS42NzY1IDM4Ljg0ODEgMzUuNDE0MiAzOC41ODU4TDI5LjQxNDIgMzIuNTg1OEMyOC42MzMyIDMxLjgwNDcgMjcuMzY2OCAzMS44MDQ3IDI2LjU4NTggMzIuNTg1OEwyMC41ODU4IDM4LjU4NThDMjAuMzIzNSAzOC44NDgxIDIwLjE0OTMgMzkuMTY1IDIwLjA2MzIgMzkuNUMxOS44OTI4IDM4LjgzNzQgMjAuMDY3IDM4LjEwNDYgMjAuNTg1OCAzNy41ODU4TDI2LjU4NTggMzEuNTg1OFoiIGNsaXAtcnVsZT0iZXZlbm9kZCIgZmlsbC1ydWxlPSJldmVub2RkIiBvcGFjaXR5PSIwLjIiLz48ZGVmcz48bGluZWFyR3JhZGllbnQgZ3JhZGllbnRVbml0cz0idXNlclNwYWNlT25Vc2UiIHkyPSI0Ni43NTA4IiB4Mj0iMzYuMjUyNyIgeTE9Ii0yLjI1NTg2IiB4MT0iNTIuNSIgaWQ9InBhaW50MF9saW5lYXJfMzQzMV85ODc4Ij48c3RvcCBzdG9wLWNvbG9yPSIjMkE0NDZGIi8+PHN0b3Agc3RvcC1jb2xvcj0iIzA5MUYyQyIgb2Zmc2V0PSIxIi8+PC9saW5lYXJHcmFkaWVudD48bGluZWFyR3JhZGllbnQgZ3JhZGllbnRVbml0cz0idXNlclNwYWNlT25Vc2UiIHkyPSIzOSIgeDI9IjI4IiB5MT0iMC41IiB4MT0iMjgiIGlkPSJwYWludDFfbGluZWFyXzM0MzFfOTg3OCI+PHN0b3Agc3RvcC1vcGFjaXR5PSIwLjEiIHN0b3AtY29sb3I9IndoaXRlIi8+PHN0b3Agc3RvcC1vcGFjaXR5PSIwIiBzdG9wLWNvbG9yPSJ3aGl0ZSIgb2Zmc2V0PSIwLjAyMzE2NTQiLz48c3RvcCBzdG9wLW9wYWNpdHk9IjAiIG9mZnNldD0iMC45NyIvPjxzdG9wIHN0b3Atb3BhY2l0eT0iMC4zIiBvZmZzZXQ9IjEiLz48L2xpbmVhckdyYWRpZW50PjxsaW5lYXJHcmFkaWVudCBncmFkaWVudFVuaXRzPSJ1c2VyU3BhY2VPblVzZSIgeTI9IjQ1LjE5MiIgeDI9IjE2LjMyNjYiIHkxPSIyMi42NzQ5IiB4MT0iMzkuMzA0OCIgaWQ9InBhaW50Ml9saW5lYXJfMzQzMV85ODc4Ij48c3RvcCBzdG9wLWNvbG9yPSIjNDlDNUIxIiBvZmZzZXQ9IjAuMDg0ODYwNCIvPjxzdG9wIHN0b3AtY29sb3I9IiMwMDc4RDQiIG9mZnNldD0iMC40NzcxMjIiLz48L2xpbmVhckdyYWRpZW50PjxsaW5lYXJHcmFkaWVudCBncmFkaWVudFVuaXRzPSJ1c2VyU3BhY2VPblVzZSIgeTI9IjM1Ljc1MDYiIHgyPSIzOS45NDg3IiB5MT0iNTMuMjc1NCIgeDE9IjE2LjY5NTIiIGlkPSJwYWludDNfbGluZWFyXzM0MzFfOTg3OCI+PHN0b3Agc3RvcC1jb2xvcj0iI0MwM0JDNCIgb2Zmc2V0PSIwLjAwMDEiLz48c3RvcCBzdG9wLW9wYWNpdHk9IjAiIHN0b3AtY29sb3I9IiNDMDNCQzQiIG9mZnNldD0iMSIvPjwvbGluZWFyR3JhZGllbnQ+PC9kZWZzPjwvc3ZnPg==;" vertex="1" parent="1">
                    <mxGeometry x="730" y="480" width="50" height="50" as="geometry"/>
                </mxCell>
                <mxCell id="52" value="" style="edgeStyle=none;html=1;entryX=0;entryY=0.5;entryDx=0;entryDy=0;startArrow=classic;startFill=1;" edge="1" parent="1" source="15" target="48">
                    <mxGeometry relative="1" as="geometry">
                        <mxPoint x="360" y="325" as="sourcePoint"/>
                        <mxPoint x="550" y="325" as="targetPoint"/>
                    </mxGeometry>
                </mxCell>
                <mxCell id="48" value="Connected agents" style="shape=image;verticalLabelPosition=bottom;labelBackgroundColor=default;verticalAlign=top;aspect=fixed;imageAspect=0;image=data:image/png,iVBORw0KGgoAAAANSUhEUgAAAKgAAACoCAYAAAB0S6W0AAAACXBIWXMAACE4AAAhOAFFljFgAAAAAXNSR0IArs4c6QAAAARnQU1BAACxjwv8YQUAAFDBSURBVHgB7b0JkGXXeR72n/ter7N0zwz2tTEgsYsYgJAEMgoxQ4okQDLmUJIrilIpgEqUUhylALhSkl2VCoCUU1ZUqiIYl1OUrIQDl2UrtsscmRQJqWxiIFIiTEJYuACgCAI9ADgzwCzd09tb7/19ln87972eGWxET6MP0PPeu8u5Z/nO93//f869F2AjbaSNtJE20kbaSBtpI22kjbSRNtJG2kgbaSNtpI20kTbSRtpIG2kjbaSNtJE20kbaSBtpI22kjbSRNtJG2kinSQ420hmlvb95/0zZhd0I1eUNKGZ8y01jhTN+1zT6v/Ab0GE41hX+F7p5RJzHAub98fMA1Syim/WHPN0oYHb/P7v/KdhIp00bAB2S9t51/3Qb+rsa4D7tG2hX4YpdHljTiGl/aDSM/zv/NW118XtKCA4Lv6FC8J+8HeP2gNxwdOXP83se9Ruf8j8ebQAc2L/v/nnYSFnaACilvXvvn16cbN3pIbTXA+c2F4AVoBfg5L+WVYUBhAQ3TOiMW6AK+3wKoE27I3DjcXwGRnzG3CK2w5kJ2ijn+t8esNVDjdHRAw/vu38WNtK7G6C7994z3SuKuzxSPu0KdxsYFgwpYQsj1LBE7Pb7zoMRyrKCKiDO7+iXZaREj9FwSgRxxGIR2LJwjUbKcqTZhMLTaqNRYLPZdI2iCIhEf5xL5EpXwwRYv+VA5XDfX/7r33sI3sXpXQnQAMx2Vd3tEXSPB9Q0menAaOhBFECI/X7lOt0eegC6Xq8MaIxWXI16SolkCciYGJOOQZcYk45DiFg0546OjgTAwqgH75j/bkibShQPm/WIPzACIw8c2P+7s/AuS+8qgN66954ZT4X3+a93kYiMKZlphHanC91uD7q9fgbYwGrMrmy8A/bidqeoczkB2102JVOPevlAugHJIyNNmBgbg9GRwLYFE2s8x6Xy7Ks8UB97FwH1XQHQwJgtLD/n7fKdpAMj0BiUnW4/ApNTHWiaBrYjHe/QIJFBBUyGSMcIDQtLKk9G8iSV63cwWMfHR9Xs88EO9o1U7w5GXdcADcBcqfp3+/4lUw7i1LRaHbfS7gA7KjX9ye4Rfcd0pnMEloSvBMz6OQq6AaDX9QE4ol7tB/M1XqvRaARGdZsmxwOrolMO9x6/e/Cv9//+A7CO07oF6K17f2t3VeIX/dfLieHQA9Mtr7Q9a/ZOcaawH/+wwKNtzoDPqkYjA5B3Mmca5LKLT6EAIwXMISYCkA7GifExBSqNFn/2Qf/rs9/c//sHYB2mdQfQwJrLZe8+X7G744bIf+iWllvQbnet8ItuDYGD/BMJD4GNbKopDscXq7WZ6FZ2yM0+s8mxAwV6PA+A7BsBk7SsSFfAibHRAFQMOtVR5j7Q9eC39v/+vbDO0roC6K17f3OmKhuP+K8z0YHxfbrSbkPLAzOEh4Acm+T4xFOE/giOBl+cBpuIycvuZ9Y0jvjA8cyU5nzWDvxF6ZL5mNGZruHIu/cTAIWb8Pp00+QEGC6f9S7WnvWkTRuwTtLP/Z3/+U5vwfd7f/iC0Ie9Xt/NLyxBJzPnHGpH1noRKXFbwoEzGjAehNlGBaNNDCxl3JBlQd9zaSB5s6hlU04DipmVrsnXle/KvAi9fj86ec1mI2jVsGu6hPKuS675YPuV5771n2AdpHUB0J/71N+7z/fXg/7reOi45ZUVXFxaiRBzHFF0zEthY+FyP2iQM8nxFv2Ywpx1a8shqAGa5fyRWM+AiwgbKNdcEbi6Y4UUYoJsalUFcLh8AGn49LHUsH3c/3P7pdd8AF5+7luPwlmezmoTH/Vmr/s53093hd/BjJ84uYhxVtIkMbHghrjaZNfzcI+zoR0QPZlLSQDLrBlOM2cHSFwiqKk2xRPFyRKgfm0OY9F+s08uE7+E2alt05ujExV+F1DsG4Et9x7Yf/bO8Z+1AE3g7Dzi+2ZX6N92u4OLy604CyRTPlmYMYv/GJWHYC14FkM3RjfXjY4cJp6ZlzyHxVAZYBnQsgMEdAOYHwhZST7KrMyyzPkQHKjJiTG+ylM+kup16YNnJUjPSoBGcHY9OJ0Hp0/Lyy1carVpr4loi+89oCMJUgYcxmMXZwQGPCY+VzKC/KrMxsbjyQ4TkAItGjHn19g4u8QAUIeXSVWwd55iSIpy8SCd2nM2MulZB9AEzpYHp9sV2NKHj1zLa7CYiJ4MC6IEiwbkm7BR3KsbIS7gEFDnWDEBIGVmZWSdJkI7taT+UCpTAGmFQ9lZ2BaM6DDFcy7z8dFcwNYp/hgfG8XNmyaCyXfuLGXSswqgAk6AXaF/504uQr9fpp0WZ2oG46+0xyg/VHIF5wYEJBjdmH7oFGVylsLCj8IlxxtyvciAUkbWjGWQAAwyaxZD5WrUdbC1AlnKvDdSImGb9/BheuvmuJIqgRTOKpAWcBalxe7y53wn3BiAMTe/4MMsZcKaklM60GVz42TTEciJB7OHwjtYY7yYIvw4BJmOQJn8qTwFktQlxgOKFCHKsTFLzgUxQ2vah5APDmfO1sMoby1YcqWyvVw3zpdyDAN4/uRSXHfg99zobc3n4CxKZ02Y6ZZP/I/3+RYO8+rBU3e+4VlXsknHhLg0wU28yDFGGAzgZLFIEYC8kUnTHO0sBzumLCMayMdyicjEa6Jd+bkEJ8fMWZMOdVYX00+X4fNSKUzUwRnlIUX3B3a7fRgbGw2H7rrsmlt9COqxR+EsSGcFQH/2E79xt++G3w19MBfAWYZZIQ0LOnbbCaMSjiHLDhmCaxEaiZKGxCABE5oCdafUm1KrzSWhXXpdOwAyzRg/03ahfqdRgSxrs1+RycdK9Z2Mkng+jQszl48x9Nbt9dz42EjYvPuSaz8w+8pzjz0NazyteQ0api973f6TPuQ9vbC4DN4hIkgZxwGsrBR2k8TGsrYdrXAz/avhIuTjjPYzAq/mIMkmc76ZjVKAKuhz0+0Gw0+Qn1WXyjKQWNuIcFb9avWPi9OjW7dMhl/z/oCbHtv/4Cys4bTmNWivUz7iG3M6LPZY6XTCJuqASmRYclVUgwW6YJ2WQpmQzrPgTJlA9GtI86lOJe8nfXGUvQpDRoX/WaV7PSISSD+C0aN0YfZc0MmeqgLVmSQcjRZmXSsFFhCKdo0/6PpULOuPOce10E0ALR8vDm2J4U5UxEeC4wlrOK1pgN788V//nG/EmVarA0srrbiNYZSvm4wfZCZJ77moJwlcegQlB+I8AdooOBtsNq0csiIryn48suF15DZrcF85Md0YJ06SXBtVm1LEIZad8+YKORowPMjMDILTwUAaGswAyRy0msMV/paW2xGoftPlfsjfB2s4rVkTf8vt/8Nu37xfL6vKHZ9f8ISpEZzcfcgcCDhFWCY35ezh2EPsmjYQLanZaPjKKFgRmVo61a/5FcX2Mwmr5U5L/7KlfOlmPAyrrwqOStQnDmo2P+tOtM3BAQin2hi2T2+BsCDa/9rjTf0BWINpzTKo77Av+g93Yn4RUObWKVQDAjmKH1bIvIkiEpGhzCEXZkzLZvQ9mFwjBsF4KGxR0ZxFhAZqmI1gxRQBACsgjTQAASudbAg3bqkI/ygRBaNTHTNi+jOyRUWJiJOUv0gJR9uFaVP4KUil6otr1dSvSYDefPuv3+c/ZhaWl6GsSoMLg5vUEZFhaLdjOHJfASQzj5lORcG56D1Iplr1JoMOhjEasNCgoBJdnMHn+Cy+2S4CiYETTq7Y/rJpVnmgskCsOw9KBakcDEY3O9AwFOZ61NZBvvhDvXWCcIeB/3p5u6rugTWY1pyJv/X235zpYvfJXq8/7eOdaSOpr2ReU7/IdKTAwamppOgO5uTJni1vsNSl8mF4GpwyBZED9tYMMf18fBxFZspUTbkGB5AKl1DlDPvSZjALmkGFcARzXfCAZV0nE2WIg+ta+Zxt01vcSLMxP1E0rlhrs0xrjkE9OO/zH9MLS8u0RdwYQSAQKzrgu86AQIME2GTaGIXiHTtQzxnUUyLJmVGUeNFGJAhbpYMENezIJB8NqFzsGKEzdEhFrehwjRpYS820rmUl1lZqZVbm4gLzvtTBcS0qrpOAMzvQbwjhO79pulWWa26WaU0x6K7b75opsHjRe+y4nLz2gfJxEJ7dEaYTYlc0Xg3aT+uUsCFMDCRMlpFMwEfBzpd1TNilp3PJqDNdMapyR8ac72pMb0oIMlTo2hXiwGqqLHoBej8Till3ZjfY2SxuBqDKCkmHHWGJXlj95IrmzrUUG11TDOrBeV+/6uNKq00uj2NeYBGGyUwDOSJgQo0AWbinBlIVdKAaEVBcCzCyjU5ifevEeBuNJzoXWeGKA6d2OP7V3O6K9TBwkeULszybaC0QmiX4+p9jnSsWRpwyAIm5CmIdCIPr2gGqKqysdMJ8vc8vPthizaQ1w6CJPd2L84tL2Ol0s5U9dRLjZGZRklV1WdySmXaYv6BuhGFVZRQNVbGR5dlUKYychyYvtKujgHUzfR22tlR4jog8m+1CMLd7EABxkFUzxpZpXl7E4miUgAwzU0DI2nV8LM0yTRTNbWtFi64ZBi0Q7uuXZbg12CyKIHo03WH1k9GTsi2uMlLiECVWu1zMO7nTiGwF2cknvUfEZcKnzDjiyQMwdzEYmfppXDhD8U6krikOMa9j2SBMCkrpKCoZjQYxloKiAmFHmlmiNdPgKCpRsf7lSQVTAGT2jsH7sixxpeqvGY9+zQDUN9PupDvRspk4OJy40wWcyGyZpj5ZhEUnyQXAovIRoAFr6my1/6QkHK+mV2ChkQ7q/NjCVchOSvqrhMXBDB7DdRJHcgJwJCABzd9TXhZMID6gtR7cWIYxRXiw/ec2UYMwtFgQHmwRMr57rcRF1wRAd330v7vLj9wZrz3FYHIHSXCHpzBFCzLzOVF7lJ20t+4XRoz75JM6kPgU+By18qxOOWOjHRWoLlu5Ervfmbw0BlpFytbBBeThpxrSvxwJINA6q3kZ2Fx3ZWUHXA/NX+9Z4qUJdlpLR4o9h54hgFOtXu8uWANpbTBoUdy5tLximC5jTvpJwBFbmqDHnc7norgsbIdtxzhmDg3R0GwMeeXqjAigkX/wwFDkEfgsowObUSVqhjKaBVDODAjkaqHh0YpGZ0VWg/NGIzm4hUDoG7iazkF+jrYtX7eiPxoR0siI3tQ7j4xPwxpIDt7hFJwj3wsvHjsxHx4Mq70sYFImG+ZjgKwxpqZPHBx31EJQYr2189h/YcGqURk8pYOV7niji8p16sdrKEkQwJWjn7SuE+QxPLWAvjP3RDl7fam8va54WsCtxoLA1JbaVre5fGdoPT+PsGPbVtw8Mrb9nXaW3nkGLcvdrXY7inMyVfHPkpaSERq25JZHJ9oSSfNbO5wnyyy8QfoQyToTPbqMTcEwJJAXwmFXsp9CackpQQe8Kq+KK4b17JTYqRIpUKHoRHFwyM6n87mCqrWNguXSKhBBQOpokkqcrnh9qEsbrW8w9a3ynTfza8HE3xk8dwAwE4IhqTliic92nYGam6a0aMQKQgKfQwk+AuQEhMZas4FNqKBeB1qIgmpPkXc7oV4+P8b+Ex7SflkV6GrOXRooIgVQtCXbAlaGLgEX04yVFDy7d4llkLQa6h4zeMkMiQJ1Otp5qowEBoZbRLrhJRDvuJl/RwG6a/dd02VV7e72wm3D4sDEfWh6kpPpDMchSWE/lE9AFFaNm+h0x+yk/ZU5TzoiaCWRuEjMfQR+Zb1Me5prKVlGjCFRbY3YFUQ5q6MyMptip7ZB1zFn1iBb34xg8qRLoziOpAXAhgIY2MyyvV4/gHX3O+3Nv6MALZvVbeHJxoQTZjG26dKgKP2tjkvFy+O0qelTFkhY6cW84ZSxBC4a1jGdL2Y7/ZBYJ1OTRoeExdQEE7Yzs0nyAYxcAY3+c0FddhJXQz160LlRlOiDIzZnvDP8jUYS0047Ujswo5rvduCFheLtfn8XvIPpHQVoA3B3CC2BjO7Ui6KmuOEMG+ZeC9st4c+MZTNWjbeBVOkgMB96QafjA+lSmjMwCBN3i0Z2An15rUwOdJaBzNZqzk0d7L8kH6Tu3DAiOawZB9KpwBQq+TP4nIZ6UyXFxGsb84ZUH8nBm3koodoL72B6ZxkUq13hMYlmE1lQIRHqAv6BIgEUqMKKkDV76jW5Z90Zn0HICKxlR0UMX7hmvx17PQwLwYj2v6o62SMCFkw5WANWhrq5BgasvAKLVvcrYKEmCyjfpG0dWMYHsBqbmgfkOvSJqmmBIlXdfh+qsrwR3sH0jgK01+vtFrOdXFhQSkgsBqpLqeWEPait03IyPQTt4fEUtL9yMNK5qGBWtyb9q+YfBEvCOilnJ8Y2gdJllxfKylfGg4wS3WcJMW12LAV0OEglWMOaBslGFF0DSQaYSTMQ6zQwAB1nn7okvIbn3Wnid33013ZF/Zl+phvcANQ0YQa6eAzk7Kns6CRyKWYqJWIi6g3nrIUTUw5ZAF0GCQqtSFYEHmfAhobgOfOqEmMej+CfIPijeCWTOxouk/l/LoJcxOhIdMKquelwA2MPBMh0HGr4DNjW8GCXcSW5+D6aDrd+wzuUHPwU0669d03DcnfGB4N2e0TeeOLkwl1d7y1SQRKLpUPrazVpAZFp/KRX2YkB7j+CajKjLusLlgRDSpbUpMvUWdbx5rdusvH34ZMINj89ncmZJa2hfJoDcgqRPMiP0hBOFEfMKrWXPuMJENljFLEMsibKgXqiMsuWGxbaPDrSxO1bt/4pFtWBBrinH/vKFw7ATzG97QDdtXfvdLWw6S501ad9YwQ9s42v/OprJ+w0Hm3mmypVq2knEULVCEuvG/FEH+IySDSl3olGxzK7IHDPC6EPXyVnJa1uq2NaYR+uRy8FAzslLkSsU0GDTWK/1jhTFjcRDdtZM1sqWxZGNUhMNC8zNwZNKcN5O0ykKZX/gN/7UGMUDjy2/wuz8DamtwWgEZSLk3f6hgoe4G10IXnoavj0M0fu+NwCsPzj7fWV5Gx7QzKMU7/VGCCDupJCOk/7iD7pfF2Rbvcrq/F8ToZQtN67XLE2fWlZlTWuy7UHtQeHmZRdUX7W6g3mWVN8JE+H0njkbLjOclFbS76gEdwk+7PH5fDec7ZPufDKxmFw8cc84sv3z7/z1S/sg7chvaUADcDsL4zf7aC4B+Lrq81tDZAaOryItdvrQb/Xx1anK82mTJM9skX1n50ot52NMNxcmV6TPahZcSdbpRCuTfegCyj5NDMgbJn5EEu1DC9Lp2oR3MA9/BnBqSMkwEJ2lvL863ztQCy3TKFKaetyR5vL1CnczMdMTKMjXju8UzS8S7TZKHA0PAcfQSQBqpSa9SfvK0bhobeSVd8SgO7a7YFZeGC64h7vVU/ZTggfbQ/Ejp/bDQuS6bbdZI7ogQSubrcosTnWohpuofZhRiF2FtQgirmOG4WGrF4FXWkyYMuz4sj16qwsoMuLbbkwnamsmgFn2LXl2FpB0LYNmXK929SOxGEMO6SeduAZ82+YGmiAcH3SRcZGmvEVjaMjI+nBD5AN0AjUb3/1Cw/AW5DeNEBv2P2ru30Vv+gLPmPqCCEA3/HzuYEtHYAaxTqvxFLQSGYwSeHcKr6QHsFbGT9Q68iUozId/xaeon8IPFifCgBU16JWeGVZO1jsqTnrxUP5uLpGHpIsnG1dnCE4sMBxgxWvF1XNBnCtDNPbUaif/DSVPGvKZmxkBMfHx+JDyXhPqjfMNpz79TfrVL1hgAbWLIux+3w9wu0BSVP5HwGY4aY3CcMYV1ysNN0/NKw4WW9m3wUj9lzDVvb3cHarS46aBa4RthPxl7GOaDvL7Fy3iuzrQNWG4odZzjCmrJdzFlDSvmBW4EPG08aUS6Ewvz7rjqwNMo9eGMaUuV4XUxPTP+g1qgsvv50YH6N3ikr2D/ZGJh546g0u23tDAN21+1dnfATzEd+sM0BhxpV2xy2vtBiodlTaYY46Vt1qJbFNYMMlaScpBwlDKbuiMqGMBM7KGD4yjcaE5eXLTS1dU2d66uirSQFQRq9JZ2aWwrzpw9rxPF9b3WGIF99KykpuuzA5Mqvz9fXNIHJu3bAxA0CdP3QIaLvZuko5PU5hfGIMNk9MqGUCN+s9/j1vRJu+boAmk159CcPj+3wKccyFxaWoL7NKaQ8BZOqtxoyWVUEw4rgzLQK0T8mZcDWWtCw0vGqsuRQwbOdUz5poIWlZAxBnnAP67SyrpnxsaaUR+PpAeGepIYACKyHlrLpNAd2Jg4aXrwMWHhwbzZE+hAsdlTGPAmRaV3K15TD5EXwbnkWntmxyQaemnTjvz/vs33ztD/fD60ivC6A37P6v7/ZFD290i3cPhkciroTXv5jh59TwAIDElNEIP6y7r5CpUTI5oREK5wY0YGpoOraWh21yHulUS9ZMzDBorpuZPtpgQlDS6hNT22D75VfA2NZpnNg27fyf3zYd5+PG/fd4dJF6r99pQa/Thvb8vP/ehsXDR2DJ/7VOzOPS4de0usOTNeA5W+rQAcvYRgugq+WdS3hxlAAynKXbS6xAQY2XUjHMo4eM1JC2qknwsG/Cs+mWTZPO6TzL33/8a3/4IJxhOmOA3rD7V+7z+d8XSuHZEudOLriyrMBWEEzF+FGCNQLKmdUEG9OuHNh0uB7EwBG7na1wlos52yMwKDBj0NyIPFssNZGAzfFxd9F174ftl+2EbR6YI+PjaaWooxxDaLCgXELZOFSYHlkWb53wExThlW90nosALjsdmPvxLBz9/g/950sBtMKWpr1qKlNYVouc9prj6onOFXJwBuAAVs4bOwVp4bcDuaaZ1HNZ31gyKbJpVrZQEM1+kR71WBR8rfsf/+ofPgBnkM4IoDfs/rt3+1I8GArU8fPn84vxkYiEnmzWIjMiFWqwN0eN6QCX2QwcwioSDgIAWMVZAi2Ms7ZVu89qp8xiumwUjYyNw0XX3gLnv+d62HbpFWl3OD+CD4GXRgWgxezCp4CWrsXAdWmfAhQE0K7Q4+dfOAiHvv00zD3PYDXMqC3Cv4X9wodMapjasqPPdh5sPxuTrKbfmA5tH3tevIZeCzNajgXhPjHn2NYOAJ7aPBle5MAzXvd+56t/8Hk4TTotQK/d/ct7fR/8u3DsSqsD4aFeqpggH52aBuJrHDc0XG+eAFfHWqoXm1aos3Ct6Oz0sPmiPCzyLWUIWFEvBdsvuRIuvuYWOO/K68EzpwEcldYDqocVrPRK6FZV/B7/wqO8fQP1kYGK8dUURcNPV/hzfMgwBLhhrOmdh9ECRpvhe6GAhwTycK2gaH7y7afghYe/GYEqTQH1R0TlNj8TlpjdJGi2J7M+SLfOsrc4W8yOFrsC9zqPGMCbppapVy0ywhYP0smJ8dQ12Njz+MOnDkOdEqA+lDTTx8aTPqsprzfd0vKKnmbP1DlkZzahRSPwaNJWQs1FP7J4OkDusABkBAjKGCxPazNX1HAGk3U23n7RlfCen/0YbPMATWFQAF5bFZYGz7X70OpXsBRugfBbqgAkD67KkRQukqlHNvl8fkPzcQ3Kl4Ho902ONmDrWDN+Nr11LIhdHUnswKgv/Pk3YeX4vA5sjmAMjlZrv1Vns+ZXVpXGZj/PpbfQGdzJdUBbHmzboavjZlBSERhcBlQiG/QgdR6kYev8CBY3P/bwF2ZhlbQqQEOcs4fFk/6QGR9Cip66qSxkM3JGdKNhxgFupGOtuHK5FlQni/lP88+OA9D4wCCEzQDhjADAgnRi8za47oOfgXNnrk85RbOcHuo670G52OlHtrSgQ2I913ARkMggbSjLugjeSkw9FqxHQUCq29PvTWMNmPJTiZs8WEc92zJIQy0Of+e78PzXvoHtuZMMLKmLTdapq0UGeIUX9/cwgEtbm2Nll40yZI1c/0EEJPFmAMNlGWnD5skJ2OSZNISgemOTN60WJ131PUk7LrvuH/uL397pdvDk4rLYFsxiDJmdkbVftkJOq8F1cYY2E6qzVnEy+owLZCortsaIhqHs6tSLEFaOV3nvzR93N972a7Blx8VUdD/z1Snh6EIXjiz0YNl/75VmaDmmcqeKBkGNQeJoaRI+TktrbYurVclFybDUL+FEp+slA8K4nz5kh2LrJRfA5bt/NmZ04kcHMwvNNa/HSp0ZrdGS5vtV/LC4JasVPfmqsmEy06KYNWqmpEyb0zYVdkBG1IF9AjSGtcCjo00/VVpsK8r++KHn/+bPYUhywzbe/LG/++F2p/8fgpd+fO5kJDADH7mqbRTWmy53GG1kKTaJ0Z/164uelTykad2gpjGtzXlmpqR+jD99cvMOuOUX/3vYGoGZBtpyt4Jjy13/WeaOjIPcwZFtEDVjjF8U6qnLeWzywZh5Yt6BY/y2gtm00GNDDabHRuBcH6IZLRK4wzbPovDtf/IvoHX8pKmbDlWuq+2PWlNgNpLS+TKLRfqT2c+SoyUikhBGq64uPcx18n7h4RkeENFseJPUwD2Pf+WPDtRPHsqg2y65+uveS992bP5kGFHkfkhps1KIIGetaBSN47EqwAOnIJNbz10GVmkaZ4anvFlNbYyzNG6l6mAbhS07r90NN992JwTTHlJgyENzXc+aPej2K64LmKiDYWRHGjdvBOH4bKyFeCLQy1vVAZGmoGiMA8PAxLYGZdDx5DDnGbXvN455Rg1KccQD9uKffx9U/R6cnP2JpQGodUvePwpWY7ws7WeLWbgN5TyDasf9iiZiosqv5liBYBnMUguxtKHfPJP6KdLR0GK7z7/hfQ8dee6pti3/AECv+9Av3ec/9i4urwQaHtLbjoUfV1ita6JxoBCo9phpLYA8vCH1A4AMYyy4deSx9tWGcXVMu1pgNOHq+p/9JXf1jZ/w5iTNahxf6Edw9vrIcy0Z4DUbl40TxwX3AAl/Za8DVWcZsNeCsrUMVdd/dlb8tpb/3vZA6vpjul6U8huZCwEnmoGAaAYDDxKyIh0/QzdHrxufbDah8H/nXntlnMTwJr/eMSDj3ElxQQ1ufT2tjI9wQTRsKg0u54BEo2r9Kj8lL8Oswp75AKHxCfqQ4LHRkelGv+gcev6JA2BrZX8Er71TwSO9Xn/mxPxJ0JgbmhU09lQNfVTsKNmArnqRoOY/bySoJRQ6sGOTrmfjb5CPDruFzVRzdAJ+7kO/ATvOf2801UHfvXLcz+70KqAH7EB0nzm+aWKdSIH2eJOvN+FV6QFXdn38tyfeOAffUyxUpUDsTHauCjXtMU/vDDVGR8O9FB5sRTTvLBvs9V2DKQCjeQ/FHPEO1OVbJmCEvP655w/CE3/0b6C/0gFrlVdrW8jNera+lIwcmOiLnpPHms4gOe0KgQn3pz6mncgmbt8xtSWsO53vj/WveGr/PnGYMgadvuyau/3hn/bgNI+gVnjoKM00jrUvZL21cjxyXB4mt+wLPJqNrZff1lHRrw4kGmA6gjKMmzdt2gEf2P1bsO2cK+LFTyx61jxGrGkYk8af5ut0IFZlzzPhEpRtH8Eo+4kJnToYZgiZIZXimamNaKCCmm6vmaDyrIrdTjTVrmiGUA+1cKpk4Ww/KyjCWtoF71yE/CcaTZjYMRXZ9NgPX4B+eL4ACvlSU0hnIAEXCn47CnWU8e71ksaE1cwU1sAt/ZyBI+vnfKBYhtU8MLxaPZj6sUbZyFg0O/na2/a+uLy0MrO43DLqRAOwHMhl/WAlYbp4Zj6gZnKyvFZPtVCHdBLCwHlCmMraIU1u2g6/8OF7YcJ/hk1HT/bg2GIvOTyQwkURK5G5gFgShOWqKphvb6qrLmhYic71TNo6Pgv99jx05o9Ad+FVD7g29JfnwZa0uWkampu3QjE6DqPbz4exCy+F0R3nQzE+lnrRhJm8yw6NTZug8I5RzqbJgSo4vEXdHVr/3MlRONfnFX635+bgP/3fwXmar/cHdxOKvjSCncFVb9i6DFA9lccD1CdndVWbcFH8cL+6PDoJRjGm0NPmTRPz5VgpLCq5XfNf7r2rwuqLJ+biYxBhSDKiPBsXyIxi52it7gHDlIIqXNXrywZthdnbMDLSzEwZIWNkZBI+9OF7YGrbpTGm+ZPjXVhqlwQ+ENOcgOAIsKnzK/Dhpc6iP6CXA9aDcn72sQjM9onZYQWGbDDC6mnsgstgYuYqmLj8vdDYOhXNN8/pexvngT3hJ1gKEz1A8uzTYEox0lTeEDe91B8flrgtvnI4evi9lvgY9SgL5M0dy6wuK6qtrEuEurUcqK8hFOsnCPJYNjBLcdmUhCRycO72aT95D/c+8bX/Ly4oERN/zuXXfG55ZWWmE1537XLBrTVyVNOcBR07+eHMIhPDAAMmPVvrQQ2g5h1yVsbaiHCpska/UBPT6MUP3fZbbseOndFL/8lrXWi1KxhUUE7XeBTpKmW/7R2cRZ9DJcVtzc3Cq9/bD8d+8BVoE2u+/pTzf7l0ElqvvACLP3gcuodfgsaWaWhsnkoHYBnNf2xQb8JlPLNVMXmGvzDNutzvw6aREZiY2gJTMxf7Gajv8hGuZqR1qSE4I/SldFRE5YDYxohyaw6A5U8+jzsSDQlJ3zIw6QhZLeWy9pH+TEeOjYyMH37+yYf4KnCNd46gDA+RnfPsWeposupyeMKcKZ0V4TCU6aTRnD3HjOJ8dAqswaxAMmbCMDJcf8On4IYbPgk+pAkvHWn7z3RgCezUOBPrpNmgwJv9FV/vFaJ5gNbJF+H4i4940zmbk8UQlTEsZZa0dtqw740tU7Dtgx+B8Zn3As9YNcMsy6ZJYc44tUqygBnUUcw0zD5dtnnCh6MKOPjoY/Dcv/sLLkl2uRy0HPrJ7m7ILFS9rRHzNRY1n5XONx1IXcO6FUzm1sOXSwVj4QfDudunACdxWzDzkUHPufS9e1vt9t5Wq4PDUJkXOAObyyvF5w4u7rCg1dnO3IMkGokN65wKfJZP9hwrksPPq6/+MNz4vk/Hn4de60CnR2+ac84YBHWOOOd+x8d6+/E99JEhD3//X8KJFw8ktjwVKE8H2NOA2VlUeIdp+cfPenZdgJGgU0e9TvVOWdXtQjEyqnWIMgQgMzaB/X092l6WbfWRgW0zlwSHKcRJc6SJMeJAl7CsMxzPlpbVJegYU8vITEzf82qjMnMdAqC586SOG2ySoLkLGIWRVw//+MnH6NE3xZ3hUXvcnfI2CHNV5Pm9wWYXBjXHpJCFbJOgb+1U88xKyGmRn7kEOlrsoEjH04mbvDP0vus/CWEW+7A36x0fK0tkk0x5muhxtEwzgdWFFUmtOa8v+3Hf3CvfgoN/809hZf5FkrpSdq1HfVhSMQBhMJ2GaVmvo8lo+Yffg6Nf/lfQ+uEPIL60xE9/9hcWwHnwYQillr4+VYqbhhdAY8UD28V1Ay8trsTfV95xm/fwp0278jyckE/8ow2YHtLruCfB+MJDapPMPjMgpiTt5Jz2D/d96mc6KZ1ln9UqW/kibT8wfTbx4bmRQacvvvKLi+HdmM4EX9xgixsD69REQI1wnRuk/UyDDh5h8shNPAIYOWxxYQroPvXx/w3Gx6bghPfWl5ZL48bysWakE677bT9dGB5l6Nnz2MG/gOMvfd3/7NdqnNVeyoVWew0drkNqPzQNUkzl2bQ1+6PIqhOX7IynRyYdGwMmGQaP2tGUT9Ckodu3enmw/b0z8PJfPU4dn5SgRGEoukSSyeU0SCPRgbO+jnNZPwqVgpUQasrFkgOAmaHSHqlZYafOVXy2lZsYH5u+4H27/qBxzS98ardH7J3tTpeKZVvMaZEHRxMVGOkI1rjiBWYXB2tDah3GA53BmcVEySgkRwhE07B9u/G6T8GlF98IJxfKCNCBgBwXw+A+mO8qOiRteOmZP4LFE89CrURgITmk0lALK+SnOxjWboOpPpLo5PCr8+ohaL/4Ixi/dGdYRe0L7eOfIcAPcuuKAY8OvpZn24Y/ZmrbVGzpuednhXOoPSnIYqukLeYEdOzhZ6Zap00HQ48urxgYEKqkYw1bq3QG/vBZNIrxkUbz//fumdvl9WcaYSYrUX+QXdoYNnQmX8djJN4ukF8MLIMjUb8x/zw6wXqKYgLpuPgGNUwDoaL3XW2a3AG7rv9U6DuY8+CESm2XvTMjhhfi4MQYePei02vPOXjh+/8E2suHYNBGK/hgyB5uArT1c1Q3kGKqu1BLOLANs+8sMbrHX4Wj//5fQrlwEspuH8rwbvcQvC1dlCrR7AdzH99hRjNB/vvRVjey6WUfuhXGtk/ZtnXS7rYn6e3LRjVRN6gJxuwR41pWFrDKQSojrMSzlRxiQeVBH3xsx1sNH7S/raj87Fl6DLc2G5tuUUlJUMZWyMBmNI6DHIhynqk5Gu1ir4X8IioA0a4EWa2QmggZTDdd98moMQ+/6juuRAIkyq1CRQZSn1vpZ2/8vHm/OwcHPXP22nNcVKVxbWSwwMEhf1xZGpnyPYveAAyA9JSsWkv9xZNwzIMU235e3zs/VbsdQRmBGjRoRW1WYdSl4a/vv7+02ILG+Dhc+5k7HDU82KGBrCVBbkYAmVfCjDCcdhXyN20XA3wAK2iyUWCwVVnNaocJnxPz6HlNXVblFUW71dollCtIBDCOAipUwXrh6h2DARVXGxW0TChUW1crtOk+A3in+XLetiybJ7bBVTMfhLk5Px0ZPPYATBSahsLUO27z05RVdzmy6MEf/gvodgicluuzEq2CLtDTdK91dVDLXT8Xa98d5GhfJUWQftmD1Duy1UrL6+YqxM6SxfAxKUeOUwQugbTlp3SP+uPPueEa2PaeGTbozlxQH09UJdBk5leKzyAVEiFLi5lzBEI0DDYw3+Up2CIFBPzKsnwODZUKuv3eTNHr9ac1zoOZaTYnpS8JcWzME8YcirhlMwfSxbaTBWECWlPQgZRGfa0gJob2/uv/Kx+/RJif7yUQYipf8OQ5CM8zhuGv8lOXAaSHXvoqtFYO1y425DtCDh6UOtROwQxrukW/i9mHep5csVXKYX4Hc7/wN9+MwCy9Q4vEomF5QAx4lGzqQbz7Y62ejwVXcOXtewRQYsVSnyn1E+ZIXkU3QAdQVrDYCE7AbpgnSYLsFTmcsfXus0ydYqBuXXvd/o2Fnw6cBosFc3AdPAxEffcj8KmE+mwkZElCY0RxTs2Cq1GIFkVpn0sUt2/ZtMNdfXliT27fNF3NWhOMufWH9LvRITpx7Ak4euSv8oLhaiW229HI9+G0Z7NxQ7JkVVv/zyJbhjbCUGZf+t53YOm73/EzsT7a4DVp5JMqATJ8L0zoKXyGeYojy12YvvIKz6JX2DFEbGmvlOgXrVkXW5jp1iTppbQMRsaC1MI5YWnUmmjTOYaks16e5IfeUJRYhJe4prJkxhTqcVTiPL7lw2m7cSwz/etUnyqC1dwJytJMC/AhasoBjTlIFeGsaITCLdcl9lxe7gtjptYAAau58xfK3pIfjXNw+Cf/EerAMhWkq62yD+sHcqUdGHMwSJADjEuXkQgJMzMdNez6BlqBRYPT1F9ZSVF7D0THWrQiwJLjVPnfCx7IS17PXXjLLi5U7KMK+c110v6syaTCtvxSI8KJJU9hYu1+V6+z6V800sZIDmQXgs8PLzCbKSrWH3bgW8DonzMmImNpuQjXN9ocNv1ZVMlZVubutB4g5r0rncnX3brpHLh25gMwP9cFe6eEWXOR2oDLHVYk+enbAM5udy4vb448c90hydX2WcAKy7rBDIbE5xIOcMglXA3d2c6YwkLouUf/zNu/vo+V9olBIS3Nsp9J3kU9enSlC+f+zHUwMjFuJ7AMR+er4LUsmE0JJsbn3mL+kREotIUZQJJ2lSkkUx/T27VxnD76/b4LAHXZaZhdQAsCxnQKZ+KwFpbbOig4rBVBMe1GhILVZ9l1kf9B1TwXnXOVDyshLC32Sa3XrDDmTNr3jtHcyWfg6PEnYPVk67oKYGtjkepbw3l9wCLU2RVqV3DZ1WsDBzPTKqn9k4P+7yWoWq3U3BGY/mtZY1Ji06VuCd3GiGfRm4DeIwpWyoFaPeqn+BZpKh6mc+hJHYF8hHOY2BAN1LMCM1KS4S04/GTeUM39S1yss5ipDYKJ51XzIK3hIPOuWKpI0xGxKeFLZblgqDpVhI4TM5IZMkMlvMpCu45WkogRgWsv/wAseMeoQVMidXNub02PPVT14OBLX5HyDYFgLVnUAZzu6Ow0MKdQwWXDKrGlYWDNsoBs3BKpASw+8Q2vRXspvEYhp3h0ZXQpmf7Q5XOdvvfor81jkCLXDGM4cCK/6EiZN89BDZXpYZKNehbmVVdQMn5R7rO3llmmKH3qex0X1vQcxGxMgSDN8eIXQqUwaCpUfteVoUEQPaGlrJsErlS8iPG6UDUoSJfQKNvqA/MXbrsKlhb6qTyoQzQLzGO6RSLEPRcWX/Bzu3PJAtBANLDJkstKCgYiqySsfbeoIpOmx3ELY+37YHZ1gtYW1NXH3cOJRcsWx0Xj/EMM4HPoydH28HuhU8LWnTuhOT4mdilliwlCHOkHJRWRm2QJzEAhs23n7LShEvCyS2ROPM9WUUtnzg5h0dE1DxYlyhXZz5CLRS1pWsv4dFmBeC/3CdO8KgFuh3hhOwkrXiObijS15sAwuBx+yblXQ6dd8W1ExiFyCk7+HcyUn2d/6dDXwVZ+WKpDxQ3dWz9qeF7ZKe4Uh8sowfyzNjzyU6yBccSifZlRCvWOYafwZnNi0cKDM0zChdDpCR92uuD974/LteOiIO5Hw2HpKkaaDiuL0z7GzHwynyXZYPlSrHLk0gq1nYiY0AKFrulgPvT1UyByj0YMo0tGCArQuCWZ0o3RNEMEsq0y7pKWhIqm1nKuQi0vYq1z03HvuWgXLC/0M7ZM7Emm3kHG8q3Wa3By6YWsYfVaKN+GMeow+Fk2g1V5+AwyQVgFsKfIi66r5OxZ9MhBwOUl4xylUFMKPxkdWqZp0QWvRaffszMHk9GgLjEpQdWsaNPBQ7Ys9WxtwLNznYqp13AgWEnHMRnRWUxuputSx/oLzIfhNYtQn2cVM4u2EGbEAQjLovR3pe9l14g6ol0Vr2tFMhVqqZKyq9REcLpw+r2eQUvDnFZzYubNY9mFE/PPDAeDJSuEDKRsVh3kAwjMtlxknQFQV0tyoVpeuBpbY1ad8Ln4/W9HLSpgjIDMgZnMvotPTNlyxc54IbliLXRgpEQsTJUtvcz0K/eZE/Pv+P90sFhSx0t+lHWFsVCtMjIxCR/i0yFSc1ARjtr2hiaUcVy9udLGbBSgVizBUeKaPP5AwQ2kbeU6pt8dmCjAuVOX+HDRuNGZAJn2BBAmjdmUPTh28tm8j+u9C2AwoYyqux3kLH8q828BXf88RcpwOGwk2W1u4Jjuqwe9lKkSY5KpZzZNp6fvLAOWsAnj27YBoSAP+5nKZ5aRKTt1mAMYIK10SFWhSEHQ25fFAQJdWa8V0v4DziOeG3H0YujPA0C6kBiCUaIrTNAWh2mHax+sQTXQrs6C0CoZKmx8BpBmjTAoxLM05R2kzkqZAbIgvap3cTiZTep1l2Bu8QXTDLVm0QrnyEOA1YDnwEJ4tTTQ/nBKoLpTnJ79pvLYyID/63gzX60sS0gp6M6IqCw2qsy6Esz8zp3WNLL805V1DmzfmL5my2bL5DgTAPX00w76SifEnlcoGJmhbRrpNl4t4KMqny5GAGb9sXPIohKs656pSc2Ty5XQRNIFTdeKPuDvILjXxT7OqE6a/+UjORetwHnTl0KnVWYMGgtaoQnW67Tn4sohGOzkvK8l1UFSOy9zTsCtengmm2sgH5qx/XqqMmafgyOq85MXkhlnFi2dhJj4k838kjfznkFdZoqpjyrUSRs03aFFSQE/lXppt8E6QQKtBk07nEx9Qi4psVZhvimycke+/x8OFPOzT4VbFZ8GY6oh050R1UzROR/ThVJknqfPpNJ8VVtZkdmmfWUiicaiXactp26fuCR6pwWmEBJ78g1qablLk/KZW/qRqUPe+wMcuBpIeLM1q6g6LccQwmrcidk3hDNi1oFCQG0gaf/3F+eAJu/S5vhdTT1Wujyv76eIi83TYNSgTII4EKmIztllE1z1CmqWNhJU1hJaTodyBQSjH1hUpewNIzOmo3VFPBC2xX719dkvISW6AKlXMDrFUKSQIgJm3KIAx5pg5qzFiFAmTL4yMnmxQxqlpBOgCROZ1tQYqNGjoE7TwvJPqL1wgNlkmQ5mO7gSOY4MMFBHkZxkf+qpmF17kHEtbC3MT5PqZEMZ944diqwZdSbFP62JL2RRCURclJumgMmCl9hpadJTA8JMkmVGEBBIfztUi000a3iIDSgAzyjyBYGPpJ9O+JkWOkOcrXIPhW0RoGMAD6nniAMEw1mmDqi4SAQqyEBr0YoMVtpBQpqPcphWybusA7gcBhThoE3N7ZCtlIdg2lEAGReNSMuFp9e1wAKoDgTMtpuEp4DLECzlThRKBtzketrwXGXWcOhoWaUMnDUz6NwRGqiFMKYsZq4so0Lc3tia3l6cwKn9KQg09cn70OzBChVaNiCZWDV5B8bplsqiwNNyAagnH8+HRuNA2BwBSmb+AJGmE++ci5NMcjavbjzwSP0oA8aMHQSuIDJVUsBB722RCqOuKTVqlCvYxDGa3tRAvMwaoTJn/O6PS7NHinnTn1QmZTg12NyOciDoAARYhQ5hlREt+5zJFYecPfz78KOzXVSpstcmIKI4RcKkmVeftvV6tfYFnhRiTweEI9gRB8j9m3DDHYcCWRfktScaBeZKjRigHcTG+Un7qnDcgSNPPTwbfhd8UQ+xP43sJq1pVRYvAAHDxlx4AZYsWHG6rsWa9PgZ7y2iHBjUIroTUKk+Mrbi9UeLiTgQkiYx065aM1MZhJXOiYxtuAWklWVo6E8ZYOa/mkW3KB/+G2on8Pg0bDQMhrkZgVNcyJ6YtpVL82TW7cr6xJyuKjQ2SvHRYss2QFah9F90kEwfIJc69RcZUQ1Oh2+0+ANI+jjLvtSRDBk1EwhyCw9NBjjWwNLvDh/ibKRPx6DY58+bjwsJpXi2HZDfVCwNXyXdKtRA/jhXhokRDdjrj/Zz9fZOcHYu6xJ/StmrZEoze2Cxc2LqGaSF5IwDyGRzAjhYAOuf18kyg9UQrAxkxsc5Y/+ABJnZjTCUlAeyyc8YPJNXNDlmUArQy1I8AnDw9LtdXqlknAQOxVDHO/UT2HPigLsDsPdtoHV0nGFEN7BAxiWQk0KlGol2xOiEIc4e/d7X9/EpAtBg5v0xD8ZRUqmNZVuOplPlesygtq1QnJ7YQs6QHICEGWojgAc06oWYdVhul5WElSxISZNkK5qMhTXlQv0zpgDM7mFQAGFSJYGBVCc9/s6DokYsbDdAGHU1xJ8uGbAaE17x8/VJe7LTxCa/7FfANtlIP7mdmBgxbFYcmrKD1AF0tZmSkAI4MbMtp7PrSxnwNAEZC1cZ9gypsD9Gofi8P/4kqLh1fAswR3GzLuTBlvW3MmwmRkGMRjwH0Qhm9eRSqCsjh3RO2S9pvt0G5iFf0cQZ14FSt+84BBBOD3W10/mb1awWvllCGASsG7yW7HeQ5aPQxVVPr/O+5EUOUcG3Ipv5eLtutOyVwHLDeNFO5BUVp9axtSLI6JMeZ4lnHJDMe+JTKyYjlXtADvNss1/ts5fJABqdJawejJdIU05A/hFNU8YHriirpQJixghkHbjNsg6Tb2z2+RjTo+LRSNnj5qXu8dq0JuRL7IAcJkjAndp0LgykeluzZULMQJyXSU/Nuyv9OiWzwkD9B7fZqtc2ulVOz7cgTEydk4eWYtDemHsJ2NOyvHYHaDWTsehoBzDHMA3bA9jH1aifANJ+wqaomDT+T75QnciIcAXxUW4IDx157sCsrWlRr/po0fy8z2IWeO5ceCVd3pjC/KY3RKNQU8GccCOLX3KumNzzAhvBqhWPd6QEIGAZa55eO6RO0sCikVQwGB/dBGeULBBtg5vkhn63DKqx1VOZ6yxbNyTjOhkj1vTqcKhObD03xUDZrNtpTnaexMR7xe6nRulom72SAi13zJlF6dDGLjPvHdVKGgPI5l+jNmxZGUvxkT04e+yZr99fr98AQAOLNhx+Nv6oKm4VA0zbMab0NsaVCpnIr+LFIE5WKDEbAwPYaHMnFlvgH7ctdI7ruk+wYSaQ8WPXhZ7vp0bfUMIBlAijKuPDEPNr+S8HL9YYkXYqLQ+UQTO3EsnuQmNhmmOT4sXzQx1Yb6ZFIhAfOgbkzZcLJ1hDcm7ZbT8SaTFtwO2CUv1c8OWHi+uiJUVDeDR3HMOTtI6jgcW9w/Iqhm1cmv3+AV/i9MpkinE6N7Qo3PgOMudI92b/OnUb5OzkkDlTN1Bm1rTQOQr8CJuCLqgs6vRmOUg6dcfmy8B27BtKNblR17JY++PERt/RLysDXH6QZjRw7VW2g3Sy7J7Yfmn6wbFQ1pvsHFXkkLMGbbXIUEUhyADibfa2kOFARQpLSc9RYWlA1c539nw0bCS/AT//2rP/ceh75IcCNKSRovGAv9IspIf/2OfsmE8dDMDhT8TBYU6i2GVVMf0HTIOQ2xYjc4MGlfgnm3hmUTrWLhqZmjwH3pJUBwkOB7xb5bQ6iwpTIZz6s57ZKmANafMFVxsvvlCPPXOOyMz7v/7xQy7toaKnptcnjai0czhM90i4SRaWcBfLUKQ6m1s/0g69mbKK2tPvnC1X4H5YJa0K0GDqK9fbE77GnKv0DnFrWmTKQd5Ex4BiE5GJGRXJKOEKBS3qWIRMtKcty35mqMJePmMEdtGIxkhDZhdtvWagToMabjjYzigZNslyMu1jMedq5bCm+1S6NduFw3YjbN5+ObEjitZkBnXZNCfER4yXJ48aEHLObLVkAMVDnE6eq93QZ7ca18P0K5g6swYV4oxW0/8uQzHnPao+PD97YNVnq68K0JDas8/NViV8RkDIL6QCGmWGqQEtteQzs6D947JDGLTWPEgjOalwaKfDKy+k17bgkFX0gMQa3JIOmjAOl593HZeWWkphgwOweR1piE6t1Yvll7D76YgRM6Bi7fcqJ/m04+LrfEx+wmhQEMbUqU4Qdg0ArZbpBRrEeiDujx1S6eTsFmFQPkQdndmiEfuPUG+SiIk5w+vLfaA2Cp++++x8zWuvp1MCNKT2K98/4C90L2uxkLkpC2kWNdmsV1G/8wjKWpcWKSA1VFZDHt0MofC31JuDlmdRJtUIVIpp5Lcdp0UjZQ9g5txra7XRhnZDtr3uZIedsYRoVUrcr+TjVs2KQ8AIVreumuhyF1z5flhuV+qlVyp92EFCs3AZWsvQm38VqFiiFmkxPGdMoEokomTDLAvchJFFjH/Co1MYNVUlhSmrCM6K3vNZ3Xv8bw/sh9Ok0wI0pNZLP3jQD6T7OXQUmRSBBS6odqmUWQ3VC7WrxtHXdyfhQnG3NMMh04E183lo+YX4pjdeA1r35G24qbtSwq1X35GdPwhFBFxlzxmlgYxr59eAmz4w262H0ZAUDjqzGOt5l98C8cUsZmEIP5KRwRkGbdze70PnyIs2xg5orsfGjh0lO9Cyi+alcrnfY0AcihTihBVpD/Lg/CEPnHj2Gw/CGaQzAmhI7Vee8U4T/n0ZHFUKriYtqiEHp5PNbKd5u3h3RPUxo3gmzeXSafqIHQC0YD/SehH64YUHFWReu2hP0GnQyAj9Mbg8sqiFJGTfB3lKmd7qxDeVsIZk1uG2HOyxuHppc8fD5rPj4msBR3f4NqlkWV0csLx6ydzuEX3dThu6R/62Zs0UXEBePYjjg1JMY+d5AQm74GBXpSWvw9xWTE+REOC66t4Tz/3l/XCG6YwBGlLrpWcfdND4jL/MfCxfomzAXDRzA1i6l+gC/RFrQip0diOW+JasR6VhfnTyCT8l3wEnQMR80YiwaapYt1XBnht+OQ0o4QcDSmp9fF34ex0H1w+1sbpa3M6SsDiOMDigLJ++95ZfgYXwALXwoAaue6W6U0w+ATcwaO/4wQxskI9RMdumVRzLOMOozhybWUgKCETtWnk5iBURjgu3EOOeE8/+1RkxJ6fXBdCQVl7+3n4sypt80WZFEKaAaxxutA7DDj6pDJpK6+A1I5Owqz4fcn/Fb51yBQ8t/Rj6ZTeFnNDpohGziIS3Lc/3vQ69DmaMs6T6FmXGxJ1C7ilI+FvmD7y+ZHHBGKj/ORhqVOvbJracA+dccB0sp5Cm8dzT9zgfTyuaInt2O9A7+iKUK/yGQW5s6QOsVdIxIyoIASzZDimZM8SV1v4lEzuL2Lzp2HPfPACvM71ugIYUvPuxYvQmX3EK5scS26kucifByEj20JVPgRvCgZ7nxPI7EP9Lee7g8rNQlm1xkBiU6ZMABymgHyxNt1XCnut/GaSc9CnLF4eAk8aOpYkBs5tnWP/+JlJNs9Ypnr9d/4E7YcU7Rz2vP8EutYt8gWZqE2j+fcXLtKc1QzIoasXEG3egHQk52WaD2WU+EyYfIjrRZgWTv8Dnsd246XTe+mrpDQE0pBAnbb38g3t9KT8T2ZRwRw+mBHXucGglnQnQG9OB8oGiZ/jE2Jg/nH8cWr2F+CZiO+WZaVJUJl2c68FOz6BXnHtdVn40ABB2MDIgLo80xw0j2ZxZ861vLlmQYl2YwmVX3QYXeufoKD1dmiJCwpxgmDSa/F4nPoKyF96clxJZMyUN+k7X5js2zMAwTpB5Ah2SKfffSpq2FLk26xGw58QPv3nPqeKcp0sNeJOpt3Dsuf7Jo59vTp8blMeML9qUs8FA5IZw5mkW/Bo9hoI4jmJQyNNSuZhqHl5c6LaNnQfbR8+DkcY432YFfLCrKarwFu3RiQLec9H18OSLfwn98L53m/MpzLseI05pZuRPdeqZHnFGWRBmQntObjkPbr7tf/IT8JPwqh982dAwdKgN4c17ewHah5+E1qGnsuWYkFcnZsF9M2QfRYuYZSuympVjR5cc5HCvze9Bd/Sz88//5XPwJtObBignD9IDzW3n/GkBzZN+fM74TdO0K1XI6m7U0YvAQtWZe6HQxgIQzErusKVbttxVW3d5M9/0fw0Ac2jKKQdGuNX2nB1T0GiMwPNHnoYzTgb43J3CrmmErcqsw3o/y/QNpvd98E4412vPw8d70O0nKeMMGFOZzDW8HAqPP5//7p94J6ldK5eu9dUMpBYUb0J9tA3y7aGmHyU0Ayf9P/+XB+Z/M//jbzzcnp9tw1uQ3jKAhtSfPzbfO/nagcioUzsO+sabRihnzJNFgR+7hmlxIqZl/uF3Gdw9RzfOYHx+dUUPGKpoGQ4du+jn5S/etBM2NbcmFhWX3w0waEjhceGj4w244vyrfLB/GV4+9kMqC1B5AFZ1WkiOOetg0W+7P8+LOvE0+UZJgiZufMo/gKtu+ARcdeNe77mXcDw8wLdmMgaERoBTZ8Ez53dg+ZXvYGjLqkw3J6H/rKq+b/4yLLHH8EpIP1XnsAzb+i5NyITl92XSlf64EP9OZpxiV+k+50f9989Db/KzbyUwa1349qXxC66ZgUa523vZd/oa7U61zlxhV2OaFKFGMil2F+oNeRdteg98Zuf/Et8PP+LNXYRM8iHjQRVpN5brrungvEsnYm7/z5//NhyeexFOW31LN2i2gdk+cNCZN6nNqp6TXiL92rbjCvjor/x+ZM2Dr3Xim5zFFUk2J9aZf4c3Ifd7y541V+DIN/4R9FdOJLczu4xcSefcU0HShAxLBpmOj80fnqP+tN/mrSXsozuC37b0tgO0nsYvmNnta3qjr9yMb4VdfiBO+6aY9i0zkwHB9A/hVRIrwk9c8Ruwc+pGmBz3WXhzn24Fc2DXR6D5vnl6BLbuGI0s+k8f/l9hbum14YXMy7H6dlkLAwasb33a5HXnR/7OP4LJzefCoRM9mPexz1Qvx4+jl5lMqa9v2LJ9HJYOPQZzP/hjdQrZ4ZJ2RVVGwhVhcBezMXRXuKf8b+/wjByEojwwAiOzbzcobfqpA/StTP/g9q/N9KvqSVcU05Nj22KHcceFT3kqNipIp3aMwabpJix3Fxe/+Oj/+eVDcy8swRpO23fs3PzhO/73T42Nb90azPpr812pTxIIaeKIBVSgwtKDs9+ZxxQBaex8bt+eWThL01uqQX/a6ZvP//H8L1z5306QdPB6dDTToWnpBRECbet1KpiYbMDY2PjY9Zf+/Myr8wcPH196tQVrMF10yU3bf/GO+/aOjkxuavcQDx3tJOlTsOkPyxydeb528jur/ooLYbjC4f/x7L6PnHZBxlpOZzWDcvrtj/3Zk0EujI5sgmYj6czKGdfMsdlLn2ER6XmXjEMxUsTf3/rbP/vWV5586HuwhtLP//yv33DNDZ8KwdvpoDdferUNHQ/SMBsRHyCSJAXS1AZZCxcfO1l63en16OwzD33sCjjLUxPWQSqK4jOlN/Xd3vJ0DD35cFJ8yjKkpxHy/DxNw8aFJMcOtWHHRePQ8CD9wHs/+YHztl624+Hv/vHj77TJ3zS5ffTWW3/j/ZfP/NzPBHUYXmX4yqudECoLb7wQrzGYvoqe+JJ4M0xtdhF7K2GW7WTTNffAOkhntYnnFE39e36t4zvp9gq70ChGfScV1ssa8F1DR7d9uGZsouEB7WD75vN3BJM/2hzrvvjaM8fhHUjvufJDF33sF3/njh07dsY7/jp+TuHlI23XL8m55tkLpFl7p4MumvbuAoXv4B8+/c8/8jCsg7QuTDyn3/nolx+sXHG3KxowMTblO6+ACpyaeYAUinEu8+6nzxmDyammxA5fPvGj2X//+P/71z8tNr1q54cuuul9v3Tz1LZLL8RE+Di32HfH/VRmP7nZQWvGJZ2hhDZKASZaUfn/+t35B57Y95H7YZ2kdQXQkH7n4199JDhN4GeYxke3hAAoe7yiRWNnUlSPf09sacKW7SNRl4YUtr968pVDjz7zpSe+e/Abh+BtSFd7YN78M7908/T0pRcx0EovP46f7OOJhV7kSAr5Oyk3zalFPV1Etx3ja5FSfQ489ge71oVp57TuAHr/7i9Nt0ZHHwlOU7B/4yNbvQkfzQL3dkmDAtZr2VEHW7eNRrCCAAJgpbO4+OLRZw4++8q3Z787++bAGkB5+QU/c+GVM//FDY3m2KjHl0vLYZy/TglHjvWwV1bOMrw4ewXNGMv24CTF8+PzEP0E3E1//c9uegrWUVp3AA0pxEd9Tz7iQTkTw08y28QxUkymn2pfD+yPb2rC1nNGogMl4AgHuvBg3F7nxPKrx1858ePDR068eLzVXewePfny4pG52UVbhvO3zWyZHJ8au+ica7afs/2ycyYnt2/eMX35hc3m6JgMjjTR6VbaiCdOdt1Kp4o3ZtL6YwGgBOUDOgsH7MWn/ZxXePAWzJ63Hfbs/92bZmGdpHUJ0JACSP288ZcCkwbgjTQnfJx0Mrj8mf7UDq5vczAyUURGDauhWO+BOQ5Az43nFU6Wu0B8WA/SWleHsiKO5578XOFyu4QT8z1caZcuA20w2ZUCVbQmpkWMdjsF62OZxscLd+kFY7NVUe3Z9w+vnYV1kNYtQEMK5r49NvaligL5UZdG56mRmXcFpp3DR9GtRTOx6pj/G58scrMLCczWWYkpWFwg810AmWYXFxm3PDBPLvShX0XdiOn2dSQ9SQ4R0MxQLAO6bGYMeFBoHDSU87ILx2FstAjHzeI6Aem6Biinf/CxL99fQXFffOiG700/MwMhqK9ThqvoUkigCq3ETwQILDkyVvjwVAFN/+l8iCqEqZojRZZHWOIX1gN1ulX4w26/cu0OJlAOu56dSIjmnB6xpGY+gbXAFKiPu+S2o1jGounAMyg0GmECws+fF3jWg/RdAdCQfvvjX7nH9/R9vkPTOlUfigomv9kcXzUElQMpMhmBSL3/SgCFWbQgW2kEUFttRMegODk1qZG0afDY+2XHzwy1sREiEkXheAapirxq846Xdg0P0kvO9yBtxlmys55J3zUADSno0oqcp/A7sVUjOlGNYkyWrQ1o0nBw5pxgtjCFwWmX91lWTOci5SeasQbMBDqOHvSrvmfdJVdWaeWSlyXYHJ8KdA0sGxjgBqTx2GYA6YVjfto3MWl1FjPpuwqgnPzc/f0eCvdZADoGamN8gD2ZIXU5H8dQk06V40BlQQJxBKR63zDAlMLCHJvtV35as2x7edATnRnjobGQvozj0xiZFOoamo4DASl6kLpg7v32s9ZxesM3zZ3N6ff+4pP3N1xxhY8bPkR+R7zpq9tbhFbnRPysqp6+kAHN3aMO9Y5S8lDqD9BN35NATGtT9LiBZ0sFIPe7fgZoCbr+2mV3MT63xzy570+rstrjj5sNK9j7nbl4P7ED0GcCxDzTrRlchl4f3StHulCWcb3nTFEVj9z1j5+dgbMsvSsZ1KZg9nvhsT4F3pk8cNaQGBkrBPnj3H5jJNOeWPP0JdxUY8hhzlfATFn1sF/1XL9qAz/DhNg3qlz/zwFv3B94+N/ecSCU6vZfDfLEPeL/ZsJUbnN82h9VDEQjRC4khnfB3F/sNWmzeXYy6bseoJzu8UD1XXq/7947KU5pgMor1xsQwFH4uJOLU6guboufRZFp1z7dLl2GGXLPfGX4CxMElWc1ficRRwc4fIQuvGllv4+KPvQVAqZNAaSlB6m/wAzUNCnfa1mimnrO32rSsw2kGwCtpQBUD5XdPo4egLq7fksFuEHvXIP1g4yaWNXp1Kk5F4CdJnzUA3x/WS4/tH//Z055OwUzKQaQFgGk0y4Mjiw2WwuTRU3q46OXnDcambQ6i0JQGwA9RUpghd2e0T7tcbTbg2/aeungoObxu3yGiR0pNA5RZORivirggN/6aKdq7TsdKOspgbTwIA33danjhDI5wJGCRKdJnYI39wVefMGoG2mePcH8DYC+jvT3PvFnu4poXnFXWTRu9NCLN/v5MI6PrQbwRlc7gtCDZJZkwmwVn7KBB31jz/a8tvyT/XfMwptMNSb1mnRK5Ia9uzOFwSCFpSCY+wIvOX/Ux0uLMAt1cK2DdAOgZ3FiJvUAZMcp3oY5fL2oSg8/64WXeCY9G0JQ78ow03pJD//JHbMejntcMNdVif32fHwYRnhuvw19FWAetBYcuF7lXj7iZ6jC6yXBg7tyazYEtcGg6yAl7z5pUmfMfWWW6/F3MNOsPnLmwrRoMy0rnMXe6E377r/ip3bP+5mkDQZdBykwacMzaZGYFPrtk3HilJ+AHVII5BdxRiL9hX1lD+MNeeFpNy4E80e6d8MaSxsAXSeJzX0RQkgepL32fLx9Nb6ih46h2SmUJ1FDmLRCePlwuDHPg7SqdsMaSxsAXUcpgRSZSb0mnXOJSeMbkON/Ba2BMhoVw9LAV460Xa/X2g1rLG0AdJ0ldZzwYHgCXT8xKTlJaSK1SCY+sqlLDyqBfreE48cXYa2lDYCuw5Q0KYq5DyAN95DY15mH6SQCbHhDG5TteVxa6q25G+42ALpOkzX3YRVUr33chZVS4T1TKdzkcdnv+Z/Lrtc6AeHZob1e9XlYY2kjzLTOk10FZefp0/Or4kpCXoE1+1f/6uNXwBpLGwy6zpMyKc7GRVfgdD1qlZYUeE06O4LVHliDaYNB30Xpo7/6tbuwKnys090Y74Vy7gBC+Si02w8eeJ0LVjbSRtpIG2kjbaSNtJHeRPrP5oaTD1ltQPwAAAAASUVORK5CYII=;" vertex="1" parent="1">
                    <mxGeometry x="440" y="300" width="50" height="50" as="geometry"/>
                </mxCell>
                <mxCell id="53" value="" style="edgeStyle=none;html=1;startArrow=classic;startFill=1;" edge="1" parent="1" source="15" target="49">
                    <mxGeometry relative="1" as="geometry">
                        <mxPoint x="360" y="301" as="sourcePoint"/>
                        <mxPoint x="550" y="169" as="targetPoint"/>
                    </mxGeometry>
                </mxCell>
                <mxCell id="49" value="Connected agents" style="shape=image;verticalLabelPosition=bottom;labelBackgroundColor=default;verticalAlign=top;aspect=fixed;imageAspect=0;image=data:image/png,iVBORw0KGgoAAAANSUhEUgAAAKgAAACoCAYAAAB0S6W0AAAACXBIWXMAACE4AAAhOAFFljFgAAAAAXNSR0IArs4c6QAAAARnQU1BAACxjwv8YQUAAFDBSURBVHgB7b0JkGXXeR72n/ter7N0zwz2tTEgsYsYgJAEMgoxQ4okQDLmUJIrilIpgEqUUhylALhSkl2VCoCUU1ZUqiIYl1OUrIQDl2UrtsscmRQJqWxiIFIiTEJYuACgCAI9ADgzwCzd09tb7/19ln87972eGWxET6MP0PPeu8u5Z/nO93//f869F2AjbaSNtJE20kbaSBtpI22kjbSRNtJG2kgbaSNtpI20kTbSRtpIG2kjbaSNtJE20kbaSBtpI22kjbSRNtJG2kinSQ420hmlvb95/0zZhd0I1eUNKGZ8y01jhTN+1zT6v/Ab0GE41hX+F7p5RJzHAub98fMA1Syim/WHPN0oYHb/P7v/KdhIp00bAB2S9t51/3Qb+rsa4D7tG2hX4YpdHljTiGl/aDSM/zv/NW118XtKCA4Lv6FC8J+8HeP2gNxwdOXP83se9Ruf8j8ebQAc2L/v/nnYSFnaACilvXvvn16cbN3pIbTXA+c2F4AVoBfg5L+WVYUBhAQ3TOiMW6AK+3wKoE27I3DjcXwGRnzG3CK2w5kJ2ijn+t8esNVDjdHRAw/vu38WNtK7G6C7994z3SuKuzxSPu0KdxsYFgwpYQsj1LBE7Pb7zoMRyrKCKiDO7+iXZaREj9FwSgRxxGIR2LJwjUbKcqTZhMLTaqNRYLPZdI2iCIhEf5xL5EpXwwRYv+VA5XDfX/7r33sI3sXpXQnQAMx2Vd3tEXSPB9Q0menAaOhBFECI/X7lOt0eegC6Xq8MaIxWXI16SolkCciYGJOOQZcYk45DiFg0546OjgTAwqgH75j/bkibShQPm/WIPzACIw8c2P+7s/AuS+8qgN66954ZT4X3+a93kYiMKZlphHanC91uD7q9fgbYwGrMrmy8A/bidqeoczkB2102JVOPevlAugHJIyNNmBgbg9GRwLYFE2s8x6Xy7Ks8UB97FwH1XQHQwJgtLD/n7fKdpAMj0BiUnW4/ApNTHWiaBrYjHe/QIJFBBUyGSMcIDQtLKk9G8iSV63cwWMfHR9Xs88EO9o1U7w5GXdcADcBcqfp3+/4lUw7i1LRaHbfS7gA7KjX9ye4Rfcd0pnMEloSvBMz6OQq6AaDX9QE4ol7tB/M1XqvRaARGdZsmxwOrolMO9x6/e/Cv9//+A7CO07oF6K17f2t3VeIX/dfLieHQA9Mtr7Q9a/ZOcaawH/+wwKNtzoDPqkYjA5B3Mmca5LKLT6EAIwXMISYCkA7GifExBSqNFn/2Qf/rs9/c//sHYB2mdQfQwJrLZe8+X7G744bIf+iWllvQbnet8ItuDYGD/BMJD4GNbKopDscXq7WZ6FZ2yM0+s8mxAwV6PA+A7BsBk7SsSFfAibHRAFQMOtVR5j7Q9eC39v/+vbDO0roC6K17f3OmKhuP+K8z0YHxfbrSbkPLAzOEh4Acm+T4xFOE/giOBl+cBpuIycvuZ9Y0jvjA8cyU5nzWDvxF6ZL5mNGZruHIu/cTAIWb8Pp00+QEGC6f9S7WnvWkTRuwTtLP/Z3/+U5vwfd7f/iC0Ie9Xt/NLyxBJzPnHGpH1noRKXFbwoEzGjAehNlGBaNNDCxl3JBlQd9zaSB5s6hlU04DipmVrsnXle/KvAi9fj86ec1mI2jVsGu6hPKuS675YPuV5771n2AdpHUB0J/71N+7z/fXg/7reOi45ZUVXFxaiRBzHFF0zEthY+FyP2iQM8nxFv2Ywpx1a8shqAGa5fyRWM+AiwgbKNdcEbi6Y4UUYoJsalUFcLh8AGn49LHUsH3c/3P7pdd8AF5+7luPwlmezmoTH/Vmr/s53093hd/BjJ84uYhxVtIkMbHghrjaZNfzcI+zoR0QPZlLSQDLrBlOM2cHSFwiqKk2xRPFyRKgfm0OY9F+s08uE7+E2alt05ujExV+F1DsG4Et9x7Yf/bO8Z+1AE3g7Dzi+2ZX6N92u4OLy604CyRTPlmYMYv/GJWHYC14FkM3RjfXjY4cJp6ZlzyHxVAZYBnQsgMEdAOYHwhZST7KrMyyzPkQHKjJiTG+ylM+kup16YNnJUjPSoBGcHY9OJ0Hp0/Lyy1carVpr4loi+89oCMJUgYcxmMXZwQGPCY+VzKC/KrMxsbjyQ4TkAItGjHn19g4u8QAUIeXSVWwd55iSIpy8SCd2nM2MulZB9AEzpYHp9sV2NKHj1zLa7CYiJ4MC6IEiwbkm7BR3KsbIS7gEFDnWDEBIGVmZWSdJkI7taT+UCpTAGmFQ9lZ2BaM6DDFcy7z8dFcwNYp/hgfG8XNmyaCyXfuLGXSswqgAk6AXaF/504uQr9fpp0WZ2oG46+0xyg/VHIF5wYEJBjdmH7oFGVylsLCj8IlxxtyvciAUkbWjGWQAAwyaxZD5WrUdbC1AlnKvDdSImGb9/BheuvmuJIqgRTOKpAWcBalxe7y53wn3BiAMTe/4MMsZcKaklM60GVz42TTEciJB7OHwjtYY7yYIvw4BJmOQJn8qTwFktQlxgOKFCHKsTFLzgUxQ2vah5APDmfO1sMoby1YcqWyvVw3zpdyDAN4/uRSXHfg99zobc3n4CxKZ02Y6ZZP/I/3+RYO8+rBU3e+4VlXsknHhLg0wU28yDFGGAzgZLFIEYC8kUnTHO0sBzumLCMayMdyicjEa6Jd+bkEJ8fMWZMOdVYX00+X4fNSKUzUwRnlIUX3B3a7fRgbGw2H7rrsmlt9COqxR+EsSGcFQH/2E79xt++G3w19MBfAWYZZIQ0LOnbbCaMSjiHLDhmCaxEaiZKGxCABE5oCdafUm1KrzSWhXXpdOwAyzRg/03ahfqdRgSxrs1+RycdK9Z2Mkng+jQszl48x9Nbt9dz42EjYvPuSaz8w+8pzjz0NazyteQ0api973f6TPuQ9vbC4DN4hIkgZxwGsrBR2k8TGsrYdrXAz/avhIuTjjPYzAq/mIMkmc76ZjVKAKuhz0+0Gw0+Qn1WXyjKQWNuIcFb9avWPi9OjW7dMhl/z/oCbHtv/4Cys4bTmNWivUz7iG3M6LPZY6XTCJuqASmRYclVUgwW6YJ2WQpmQzrPgTJlA9GtI86lOJe8nfXGUvQpDRoX/WaV7PSISSD+C0aN0YfZc0MmeqgLVmSQcjRZmXSsFFhCKdo0/6PpULOuPOce10E0ALR8vDm2J4U5UxEeC4wlrOK1pgN788V//nG/EmVarA0srrbiNYZSvm4wfZCZJ77moJwlcegQlB+I8AdooOBtsNq0csiIryn48suF15DZrcF85Md0YJ06SXBtVm1LEIZad8+YKORowPMjMDILTwUAaGswAyRy0msMV/paW2xGoftPlfsjfB2s4rVkTf8vt/8Nu37xfL6vKHZ9f8ISpEZzcfcgcCDhFWCY35ezh2EPsmjYQLanZaPjKKFgRmVo61a/5FcX2Mwmr5U5L/7KlfOlmPAyrrwqOStQnDmo2P+tOtM3BAQin2hi2T2+BsCDa/9rjTf0BWINpzTKo77Av+g93Yn4RUObWKVQDAjmKH1bIvIkiEpGhzCEXZkzLZvQ9mFwjBsF4KGxR0ZxFhAZqmI1gxRQBACsgjTQAASudbAg3bqkI/ygRBaNTHTNi+jOyRUWJiJOUv0gJR9uFaVP4KUil6otr1dSvSYDefPuv3+c/ZhaWl6GsSoMLg5vUEZFhaLdjOHJfASQzj5lORcG56D1Iplr1JoMOhjEasNCgoBJdnMHn+Cy+2S4CiYETTq7Y/rJpVnmgskCsOw9KBakcDEY3O9AwFOZ61NZBvvhDvXWCcIeB/3p5u6rugTWY1pyJv/X235zpYvfJXq8/7eOdaSOpr2ReU7/IdKTAwamppOgO5uTJni1vsNSl8mF4GpwyBZED9tYMMf18fBxFZspUTbkGB5AKl1DlDPvSZjALmkGFcARzXfCAZV0nE2WIg+ta+Zxt01vcSLMxP1E0rlhrs0xrjkE9OO/zH9MLS8u0RdwYQSAQKzrgu86AQIME2GTaGIXiHTtQzxnUUyLJmVGUeNFGJAhbpYMENezIJB8NqFzsGKEzdEhFrehwjRpYS820rmUl1lZqZVbm4gLzvtTBcS0qrpOAMzvQbwjhO79pulWWa26WaU0x6K7b75opsHjRe+y4nLz2gfJxEJ7dEaYTYlc0Xg3aT+uUsCFMDCRMlpFMwEfBzpd1TNilp3PJqDNdMapyR8ac72pMb0oIMlTo2hXiwGqqLHoBej8Till3ZjfY2SxuBqDKCkmHHWGJXlj95IrmzrUUG11TDOrBeV+/6uNKq00uj2NeYBGGyUwDOSJgQo0AWbinBlIVdKAaEVBcCzCyjU5ifevEeBuNJzoXWeGKA6d2OP7V3O6K9TBwkeULszybaC0QmiX4+p9jnSsWRpwyAIm5CmIdCIPr2gGqKqysdMJ8vc8vPthizaQ1w6CJPd2L84tL2Ol0s5U9dRLjZGZRklV1WdySmXaYv6BuhGFVZRQNVbGR5dlUKYychyYvtKujgHUzfR22tlR4jog8m+1CMLd7EABxkFUzxpZpXl7E4miUgAwzU0DI2nV8LM0yTRTNbWtFi64ZBi0Q7uuXZbg12CyKIHo03WH1k9GTsi2uMlLiECVWu1zMO7nTiGwF2cknvUfEZcKnzDjiyQMwdzEYmfppXDhD8U6krikOMa9j2SBMCkrpKCoZjQYxloKiAmFHmlmiNdPgKCpRsf7lSQVTAGT2jsH7sixxpeqvGY9+zQDUN9PupDvRspk4OJy40wWcyGyZpj5ZhEUnyQXAovIRoAFr6my1/6QkHK+mV2ChkQ7q/NjCVchOSvqrhMXBDB7DdRJHcgJwJCABzd9TXhZMID6gtR7cWIYxRXiw/ec2UYMwtFgQHmwRMr57rcRF1wRAd330v7vLj9wZrz3FYHIHSXCHpzBFCzLzOVF7lJ20t+4XRoz75JM6kPgU+By18qxOOWOjHRWoLlu5Ervfmbw0BlpFytbBBeThpxrSvxwJINA6q3kZ2Fx3ZWUHXA/NX+9Z4qUJdlpLR4o9h54hgFOtXu8uWANpbTBoUdy5tLximC5jTvpJwBFbmqDHnc7norgsbIdtxzhmDg3R0GwMeeXqjAigkX/wwFDkEfgsowObUSVqhjKaBVDODAjkaqHh0YpGZ0VWg/NGIzm4hUDoG7iazkF+jrYtX7eiPxoR0siI3tQ7j4xPwxpIDt7hFJwj3wsvHjsxHx4Mq70sYFImG+ZjgKwxpqZPHBx31EJQYr2189h/YcGqURk8pYOV7niji8p16sdrKEkQwJWjn7SuE+QxPLWAvjP3RDl7fam8va54WsCtxoLA1JbaVre5fGdoPT+PsGPbVtw8Mrb9nXaW3nkGLcvdrXY7inMyVfHPkpaSERq25JZHJ9oSSfNbO5wnyyy8QfoQyToTPbqMTcEwJJAXwmFXsp9CackpQQe8Kq+KK4b17JTYqRIpUKHoRHFwyM6n87mCqrWNguXSKhBBQOpokkqcrnh9qEsbrW8w9a3ynTfza8HE3xk8dwAwE4IhqTliic92nYGam6a0aMQKQgKfQwk+AuQEhMZas4FNqKBeB1qIgmpPkXc7oV4+P8b+Ex7SflkV6GrOXRooIgVQtCXbAlaGLgEX04yVFDy7d4llkLQa6h4zeMkMiQJ1Otp5qowEBoZbRLrhJRDvuJl/RwG6a/dd02VV7e72wm3D4sDEfWh6kpPpDMchSWE/lE9AFFaNm+h0x+yk/ZU5TzoiaCWRuEjMfQR+Zb1Me5prKVlGjCFRbY3YFUQ5q6MyMptip7ZB1zFn1iBb34xg8qRLoziOpAXAhgIY2MyyvV4/gHX3O+3Nv6MALZvVbeHJxoQTZjG26dKgKP2tjkvFy+O0qelTFkhY6cW84ZSxBC4a1jGdL2Y7/ZBYJ1OTRoeExdQEE7Yzs0nyAYxcAY3+c0FddhJXQz160LlRlOiDIzZnvDP8jUYS0047Ujswo5rvduCFheLtfn8XvIPpHQVoA3B3CC2BjO7Ui6KmuOEMG+ZeC9st4c+MZTNWjbeBVOkgMB96QafjA+lSmjMwCBN3i0Z2An15rUwOdJaBzNZqzk0d7L8kH6Tu3DAiOawZB9KpwBQq+TP4nIZ6UyXFxGsb84ZUH8nBm3koodoL72B6ZxkUq13hMYlmE1lQIRHqAv6BIgEUqMKKkDV76jW5Z90Zn0HICKxlR0UMX7hmvx17PQwLwYj2v6o62SMCFkw5WANWhrq5BgasvAKLVvcrYKEmCyjfpG0dWMYHsBqbmgfkOvSJqmmBIlXdfh+qsrwR3sH0jgK01+vtFrOdXFhQSkgsBqpLqeWEPait03IyPQTt4fEUtL9yMNK5qGBWtyb9q+YfBEvCOilnJ8Y2gdJllxfKylfGg4wS3WcJMW12LAV0OEglWMOaBslGFF0DSQaYSTMQ6zQwAB1nn7okvIbn3Wnid33013ZF/Zl+phvcANQ0YQa6eAzk7Kns6CRyKWYqJWIi6g3nrIUTUw5ZAF0GCQqtSFYEHmfAhobgOfOqEmMej+CfIPijeCWTOxouk/l/LoJcxOhIdMKquelwA2MPBMh0HGr4DNjW8GCXcSW5+D6aDrd+wzuUHPwU0669d03DcnfGB4N2e0TeeOLkwl1d7y1SQRKLpUPrazVpAZFp/KRX2YkB7j+CajKjLusLlgRDSpbUpMvUWdbx5rdusvH34ZMINj89ncmZJa2hfJoDcgqRPMiP0hBOFEfMKrWXPuMJENljFLEMsibKgXqiMsuWGxbaPDrSxO1bt/4pFtWBBrinH/vKFw7ATzG97QDdtXfvdLWw6S501ad9YwQ9s42v/OprJ+w0Hm3mmypVq2knEULVCEuvG/FEH+IySDSl3olGxzK7IHDPC6EPXyVnJa1uq2NaYR+uRy8FAzslLkSsU0GDTWK/1jhTFjcRDdtZM1sqWxZGNUhMNC8zNwZNKcN5O0ykKZX/gN/7UGMUDjy2/wuz8DamtwWgEZSLk3f6hgoe4G10IXnoavj0M0fu+NwCsPzj7fWV5Gx7QzKMU7/VGCCDupJCOk/7iD7pfF2Rbvcrq/F8ToZQtN67XLE2fWlZlTWuy7UHtQeHmZRdUX7W6g3mWVN8JE+H0njkbLjOclFbS76gEdwk+7PH5fDec7ZPufDKxmFw8cc84sv3z7/z1S/sg7chvaUADcDsL4zf7aC4B+Lrq81tDZAaOryItdvrQb/Xx1anK82mTJM9skX1n50ot52NMNxcmV6TPahZcSdbpRCuTfegCyj5NDMgbJn5EEu1DC9Lp2oR3MA9/BnBqSMkwEJ2lvL863ztQCy3TKFKaetyR5vL1CnczMdMTKMjXju8UzS8S7TZKHA0PAcfQSQBqpSa9SfvK0bhobeSVd8SgO7a7YFZeGC64h7vVU/ZTggfbQ/Ejp/bDQuS6bbdZI7ogQSubrcosTnWohpuofZhRiF2FtQgirmOG4WGrF4FXWkyYMuz4sj16qwsoMuLbbkwnamsmgFn2LXl2FpB0LYNmXK929SOxGEMO6SeduAZ82+YGmiAcH3SRcZGmvEVjaMjI+nBD5AN0AjUb3/1Cw/AW5DeNEBv2P2ru30Vv+gLPmPqCCEA3/HzuYEtHYAaxTqvxFLQSGYwSeHcKr6QHsFbGT9Q68iUozId/xaeon8IPFifCgBU16JWeGVZO1jsqTnrxUP5uLpGHpIsnG1dnCE4sMBxgxWvF1XNBnCtDNPbUaif/DSVPGvKZmxkBMfHx+JDyXhPqjfMNpz79TfrVL1hgAbWLIux+3w9wu0BSVP5HwGY4aY3CcMYV1ysNN0/NKw4WW9m3wUj9lzDVvb3cHarS46aBa4RthPxl7GOaDvL7Fy3iuzrQNWG4odZzjCmrJdzFlDSvmBW4EPG08aUS6Ewvz7rjqwNMo9eGMaUuV4XUxPTP+g1qgsvv50YH6N3ikr2D/ZGJh546g0u23tDAN21+1dnfATzEd+sM0BhxpV2xy2vtBiodlTaYY46Vt1qJbFNYMMlaScpBwlDKbuiMqGMBM7KGD4yjcaE5eXLTS1dU2d66uirSQFQRq9JZ2aWwrzpw9rxPF9b3WGIF99KykpuuzA5Mqvz9fXNIHJu3bAxA0CdP3QIaLvZuko5PU5hfGIMNk9MqGUCN+s9/j1vRJu+boAmk159CcPj+3wKccyFxaWoL7NKaQ8BZOqtxoyWVUEw4rgzLQK0T8mZcDWWtCw0vGqsuRQwbOdUz5poIWlZAxBnnAP67SyrpnxsaaUR+PpAeGepIYACKyHlrLpNAd2Jg4aXrwMWHhwbzZE+hAsdlTGPAmRaV3K15TD5EXwbnkWntmxyQaemnTjvz/vs33ztD/fD60ivC6A37P6v7/ZFD290i3cPhkciroTXv5jh59TwAIDElNEIP6y7r5CpUTI5oREK5wY0YGpoOraWh21yHulUS9ZMzDBorpuZPtpgQlDS6hNT22D75VfA2NZpnNg27fyf3zYd5+PG/fd4dJF6r99pQa/Thvb8vP/ehsXDR2DJ/7VOzOPS4de0usOTNeA5W+rQAcvYRgugq+WdS3hxlAAynKXbS6xAQY2XUjHMo4eM1JC2qknwsG/Cs+mWTZPO6TzL33/8a3/4IJxhOmOA3rD7V+7z+d8XSuHZEudOLriyrMBWEEzF+FGCNQLKmdUEG9OuHNh0uB7EwBG7na1wlos52yMwKDBj0NyIPFssNZGAzfFxd9F174ftl+2EbR6YI+PjaaWooxxDaLCgXELZOFSYHlkWb53wExThlW90nosALjsdmPvxLBz9/g/950sBtMKWpr1qKlNYVouc9prj6onOFXJwBuAAVs4bOwVp4bcDuaaZ1HNZ31gyKbJpVrZQEM1+kR71WBR8rfsf/+ofPgBnkM4IoDfs/rt3+1I8GArU8fPn84vxkYiEnmzWIjMiFWqwN0eN6QCX2QwcwioSDgIAWMVZAi2Ms7ZVu89qp8xiumwUjYyNw0XX3gLnv+d62HbpFWl3OD+CD4GXRgWgxezCp4CWrsXAdWmfAhQE0K7Q4+dfOAiHvv00zD3PYDXMqC3Cv4X9wodMapjasqPPdh5sPxuTrKbfmA5tH3tevIZeCzNajgXhPjHn2NYOAJ7aPBle5MAzXvd+56t/8Hk4TTotQK/d/ct7fR/8u3DsSqsD4aFeqpggH52aBuJrHDc0XG+eAFfHWqoXm1aos3Ct6Oz0sPmiPCzyLWUIWFEvBdsvuRIuvuYWOO/K68EzpwEcldYDqocVrPRK6FZV/B7/wqO8fQP1kYGK8dUURcNPV/hzfMgwBLhhrOmdh9ECRpvhe6GAhwTycK2gaH7y7afghYe/GYEqTQH1R0TlNj8TlpjdJGi2J7M+SLfOsrc4W8yOFrsC9zqPGMCbppapVy0ywhYP0smJ8dQ12Njz+MOnDkOdEqA+lDTTx8aTPqsprzfd0vKKnmbP1DlkZzahRSPwaNJWQs1FP7J4OkDusABkBAjKGCxPazNX1HAGk3U23n7RlfCen/0YbPMATWFQAF5bFZYGz7X70OpXsBRugfBbqgAkD67KkRQukqlHNvl8fkPzcQ3Kl4Ho902ONmDrWDN+Nr11LIhdHUnswKgv/Pk3YeX4vA5sjmAMjlZrv1Vns+ZXVpXGZj/PpbfQGdzJdUBbHmzboavjZlBSERhcBlQiG/QgdR6kYev8CBY3P/bwF2ZhlbQqQEOcs4fFk/6QGR9Cip66qSxkM3JGdKNhxgFupGOtuHK5FlQni/lP88+OA9D4wCCEzQDhjADAgnRi8za47oOfgXNnrk85RbOcHuo670G52OlHtrSgQ2I913ARkMggbSjLugjeSkw9FqxHQUCq29PvTWMNmPJTiZs8WEc92zJIQy0Of+e78PzXvoHtuZMMLKmLTdapq0UGeIUX9/cwgEtbm2Nll40yZI1c/0EEJPFmAMNlGWnD5skJ2OSZNISgemOTN60WJ131PUk7LrvuH/uL397pdvDk4rLYFsxiDJmdkbVftkJOq8F1cYY2E6qzVnEy+owLZCortsaIhqHs6tSLEFaOV3nvzR93N972a7Blx8VUdD/z1Snh6EIXjiz0YNl/75VmaDmmcqeKBkGNQeJoaRI+TktrbYurVclFybDUL+FEp+slA8K4nz5kh2LrJRfA5bt/NmZ04kcHMwvNNa/HSp0ZrdGS5vtV/LC4JasVPfmqsmEy06KYNWqmpEyb0zYVdkBG1IF9AjSGtcCjo00/VVpsK8r++KHn/+bPYUhywzbe/LG/++F2p/8fgpd+fO5kJDADH7mqbRTWmy53GG1kKTaJ0Z/164uelTykad2gpjGtzXlmpqR+jD99cvMOuOUX/3vYGoGZBtpyt4Jjy13/WeaOjIPcwZFtEDVjjF8U6qnLeWzywZh5Yt6BY/y2gtm00GNDDabHRuBcH6IZLRK4wzbPovDtf/IvoHX8pKmbDlWuq+2PWlNgNpLS+TKLRfqT2c+SoyUikhBGq64uPcx18n7h4RkeENFseJPUwD2Pf+WPDtRPHsqg2y65+uveS992bP5kGFHkfkhps1KIIGetaBSN47EqwAOnIJNbz10GVmkaZ4anvFlNbYyzNG6l6mAbhS07r90NN992JwTTHlJgyENzXc+aPej2K64LmKiDYWRHGjdvBOH4bKyFeCLQy1vVAZGmoGiMA8PAxLYGZdDx5DDnGbXvN455Rg1KccQD9uKffx9U/R6cnP2JpQGodUvePwpWY7ws7WeLWbgN5TyDasf9iiZiosqv5liBYBnMUguxtKHfPJP6KdLR0GK7z7/hfQ8dee6pti3/AECv+9Av3ec/9i4urwQaHtLbjoUfV1ita6JxoBCo9phpLYA8vCH1A4AMYyy4deSx9tWGcXVMu1pgNOHq+p/9JXf1jZ/w5iTNahxf6Edw9vrIcy0Z4DUbl40TxwX3AAl/Za8DVWcZsNeCsrUMVdd/dlb8tpb/3vZA6vpjul6U8huZCwEnmoGAaAYDDxKyIh0/QzdHrxufbDah8H/nXntlnMTwJr/eMSDj3ElxQQ1ufT2tjI9wQTRsKg0u54BEo2r9Kj8lL8Oswp75AKHxCfqQ4LHRkelGv+gcev6JA2BrZX8Er71TwSO9Xn/mxPxJ0JgbmhU09lQNfVTsKNmArnqRoOY/bySoJRQ6sGOTrmfjb5CPDruFzVRzdAJ+7kO/ATvOf2801UHfvXLcz+70KqAH7EB0nzm+aWKdSIH2eJOvN+FV6QFXdn38tyfeOAffUyxUpUDsTHauCjXtMU/vDDVGR8O9FB5sRTTvLBvs9V2DKQCjeQ/FHPEO1OVbJmCEvP655w/CE3/0b6C/0gFrlVdrW8jNera+lIwcmOiLnpPHms4gOe0KgQn3pz6mncgmbt8xtSWsO53vj/WveGr/PnGYMgadvuyau/3hn/bgNI+gVnjoKM00jrUvZL21cjxyXB4mt+wLPJqNrZff1lHRrw4kGmA6gjKMmzdt2gEf2P1bsO2cK+LFTyx61jxGrGkYk8af5ut0IFZlzzPhEpRtH8Eo+4kJnToYZgiZIZXimamNaKCCmm6vmaDyrIrdTjTVrmiGUA+1cKpk4Ww/KyjCWtoF71yE/CcaTZjYMRXZ9NgPX4B+eL4ACvlSU0hnIAEXCn47CnWU8e71ksaE1cwU1sAt/ZyBI+vnfKBYhtU8MLxaPZj6sUbZyFg0O/na2/a+uLy0MrO43DLqRAOwHMhl/WAlYbp4Zj6gZnKyvFZPtVCHdBLCwHlCmMraIU1u2g6/8OF7YcJ/hk1HT/bg2GIvOTyQwkURK5G5gFgShOWqKphvb6qrLmhYic71TNo6Pgv99jx05o9Ad+FVD7g29JfnwZa0uWkampu3QjE6DqPbz4exCy+F0R3nQzE+lnrRhJm8yw6NTZug8I5RzqbJgSo4vEXdHVr/3MlRONfnFX635+bgP/3fwXmar/cHdxOKvjSCncFVb9i6DFA9lccD1CdndVWbcFH8cL+6PDoJRjGm0NPmTRPz5VgpLCq5XfNf7r2rwuqLJ+biYxBhSDKiPBsXyIxi52it7gHDlIIqXNXrywZthdnbMDLSzEwZIWNkZBI+9OF7YGrbpTGm+ZPjXVhqlwQ+ENOcgOAIsKnzK/Dhpc6iP6CXA9aDcn72sQjM9onZYQWGbDDC6mnsgstgYuYqmLj8vdDYOhXNN8/pexvngT3hJ1gKEz1A8uzTYEox0lTeEDe91B8flrgtvnI4evi9lvgY9SgL5M0dy6wuK6qtrEuEurUcqK8hFOsnCPJYNjBLcdmUhCRycO72aT95D/c+8bX/Ly4oERN/zuXXfG55ZWWmE1537XLBrTVyVNOcBR07+eHMIhPDAAMmPVvrQQ2g5h1yVsbaiHCpska/UBPT6MUP3fZbbseOndFL/8lrXWi1KxhUUE7XeBTpKmW/7R2cRZ9DJcVtzc3Cq9/bD8d+8BVoE2u+/pTzf7l0ElqvvACLP3gcuodfgsaWaWhsnkoHYBnNf2xQb8JlPLNVMXmGvzDNutzvw6aREZiY2gJTMxf7Gajv8hGuZqR1qSE4I/SldFRE5YDYxohyaw6A5U8+jzsSDQlJ3zIw6QhZLeWy9pH+TEeOjYyMH37+yYf4KnCNd46gDA+RnfPsWeposupyeMKcKZ0V4TCU6aTRnD3HjOJ8dAqswaxAMmbCMDJcf8On4IYbPgk+pAkvHWn7z3RgCezUOBPrpNmgwJv9FV/vFaJ5gNbJF+H4i4940zmbk8UQlTEsZZa0dtqw740tU7Dtgx+B8Zn3As9YNcMsy6ZJYc44tUqygBnUUcw0zD5dtnnCh6MKOPjoY/Dcv/sLLkl2uRy0HPrJ7m7ILFS9rRHzNRY1n5XONx1IXcO6FUzm1sOXSwVj4QfDudunACdxWzDzkUHPufS9e1vt9t5Wq4PDUJkXOAObyyvF5w4u7rCg1dnO3IMkGokN65wKfJZP9hwrksPPq6/+MNz4vk/Hn4de60CnR2+ac84YBHWOOOd+x8d6+/E99JEhD3//X8KJFw8ktjwVKE8H2NOA2VlUeIdp+cfPenZdgJGgU0e9TvVOWdXtQjEyqnWIMgQgMzaB/X092l6WbfWRgW0zlwSHKcRJc6SJMeJAl7CsMxzPlpbVJegYU8vITEzf82qjMnMdAqC586SOG2ySoLkLGIWRVw//+MnH6NE3xZ3hUXvcnfI2CHNV5Pm9wWYXBjXHpJCFbJOgb+1U88xKyGmRn7kEOlrsoEjH04mbvDP0vus/CWEW+7A36x0fK0tkk0x5muhxtEwzgdWFFUmtOa8v+3Hf3CvfgoN/809hZf5FkrpSdq1HfVhSMQBhMJ2GaVmvo8lo+Yffg6Nf/lfQ+uEPIL60xE9/9hcWwHnwYQillr4+VYqbhhdAY8UD28V1Ay8trsTfV95xm/fwp0278jyckE/8ow2YHtLruCfB+MJDapPMPjMgpiTt5Jz2D/d96mc6KZ1ln9UqW/kibT8wfTbx4bmRQacvvvKLi+HdmM4EX9xgixsD69REQI1wnRuk/UyDDh5h8shNPAIYOWxxYQroPvXx/w3Gx6bghPfWl5ZL48bysWakE677bT9dGB5l6Nnz2MG/gOMvfd3/7NdqnNVeyoVWew0drkNqPzQNUkzl2bQ1+6PIqhOX7IynRyYdGwMmGQaP2tGUT9Ckodu3enmw/b0z8PJfPU4dn5SgRGEoukSSyeU0SCPRgbO+jnNZPwqVgpUQasrFkgOAmaHSHqlZYafOVXy2lZsYH5u+4H27/qBxzS98ardH7J3tTpeKZVvMaZEHRxMVGOkI1rjiBWYXB2tDah3GA53BmcVEySgkRwhE07B9u/G6T8GlF98IJxfKCNCBgBwXw+A+mO8qOiRteOmZP4LFE89CrURgITmk0lALK+SnOxjWboOpPpLo5PCr8+ohaL/4Ixi/dGdYRe0L7eOfIcAPcuuKAY8OvpZn24Y/ZmrbVGzpuednhXOoPSnIYqukLeYEdOzhZ6Zap00HQ48urxgYEKqkYw1bq3QG/vBZNIrxkUbz//fumdvl9WcaYSYrUX+QXdoYNnQmX8djJN4ukF8MLIMjUb8x/zw6wXqKYgLpuPgGNUwDoaL3XW2a3AG7rv9U6DuY8+CESm2XvTMjhhfi4MQYePei02vPOXjh+/8E2suHYNBGK/hgyB5uArT1c1Q3kGKqu1BLOLANs+8sMbrHX4Wj//5fQrlwEspuH8rwbvcQvC1dlCrR7AdzH99hRjNB/vvRVjey6WUfuhXGtk/ZtnXS7rYn6e3LRjVRN6gJxuwR41pWFrDKQSojrMSzlRxiQeVBH3xsx1sNH7S/raj87Fl6DLc2G5tuUUlJUMZWyMBmNI6DHIhynqk5Gu1ir4X8IioA0a4EWa2QmggZTDdd98moMQ+/6juuRAIkyq1CRQZSn1vpZ2/8vHm/OwcHPXP22nNcVKVxbWSwwMEhf1xZGpnyPYveAAyA9JSsWkv9xZNwzIMU235e3zs/VbsdQRmBGjRoRW1WYdSl4a/vv7+02ILG+Dhc+5k7HDU82KGBrCVBbkYAmVfCjDCcdhXyN20XA3wAK2iyUWCwVVnNaocJnxPz6HlNXVblFUW71dollCtIBDCOAipUwXrh6h2DARVXGxW0TChUW1crtOk+A3in+XLetiybJ7bBVTMfhLk5Px0ZPPYATBSahsLUO27z05RVdzmy6MEf/gvodgicluuzEq2CLtDTdK91dVDLXT8Xa98d5GhfJUWQftmD1Duy1UrL6+YqxM6SxfAxKUeOUwQugbTlp3SP+uPPueEa2PaeGTbozlxQH09UJdBk5leKzyAVEiFLi5lzBEI0DDYw3+Up2CIFBPzKsnwODZUKuv3eTNHr9ac1zoOZaTYnpS8JcWzME8YcirhlMwfSxbaTBWECWlPQgZRGfa0gJob2/uv/Kx+/RJif7yUQYipf8OQ5CM8zhuGv8lOXAaSHXvoqtFYO1y425DtCDh6UOtROwQxrukW/i9mHep5csVXKYX4Hc7/wN9+MwCy9Q4vEomF5QAx4lGzqQbz7Y62ejwVXcOXtewRQYsVSnyn1E+ZIXkU3QAdQVrDYCE7AbpgnSYLsFTmcsfXus0ydYqBuXXvd/o2Fnw6cBosFc3AdPAxEffcj8KmE+mwkZElCY0RxTs2Cq1GIFkVpn0sUt2/ZtMNdfXliT27fNF3NWhOMufWH9LvRITpx7Ak4euSv8oLhaiW229HI9+G0Z7NxQ7JkVVv/zyJbhjbCUGZf+t53YOm73/EzsT7a4DVp5JMqATJ8L0zoKXyGeYojy12YvvIKz6JX2DFEbGmvlOgXrVkXW5jp1iTppbQMRsaC1MI5YWnUmmjTOYaks16e5IfeUJRYhJe4prJkxhTqcVTiPL7lw2m7cSwz/etUnyqC1dwJytJMC/AhasoBjTlIFeGsaITCLdcl9lxe7gtjptYAAau58xfK3pIfjXNw+Cf/EerAMhWkq62yD+sHcqUdGHMwSJADjEuXkQgJMzMdNez6BlqBRYPT1F9ZSVF7D0THWrQiwJLjVPnfCx7IS17PXXjLLi5U7KMK+c110v6syaTCtvxSI8KJJU9hYu1+V6+z6V800sZIDmQXgs8PLzCbKSrWH3bgW8DonzMmImNpuQjXN9ocNv1ZVMlZVubutB4g5r0rncnX3brpHLh25gMwP9cFe6eEWXOR2oDLHVYk+enbAM5udy4vb448c90hydX2WcAKy7rBDIbE5xIOcMglXA3d2c6YwkLouUf/zNu/vo+V9olBIS3Nsp9J3kU9enSlC+f+zHUwMjFuJ7AMR+er4LUsmE0JJsbn3mL+kREotIUZQJJ2lSkkUx/T27VxnD76/b4LAHXZaZhdQAsCxnQKZ+KwFpbbOig4rBVBMe1GhILVZ9l1kf9B1TwXnXOVDyshLC32Sa3XrDDmTNr3jtHcyWfg6PEnYPVk67oKYGtjkepbw3l9wCLU2RVqV3DZ1WsDBzPTKqn9k4P+7yWoWq3U3BGY/mtZY1Ji06VuCd3GiGfRm4DeIwpWyoFaPeqn+BZpKh6mc+hJHYF8hHOY2BAN1LMCM1KS4S04/GTeUM39S1yss5ipDYKJ51XzIK3hIPOuWKpI0xGxKeFLZblgqDpVhI4TM5IZMkMlvMpCu45WkogRgWsv/wAseMeoQVMidXNub02PPVT14OBLX5HyDYFgLVnUAZzu6Ow0MKdQwWXDKrGlYWDNsoBs3BKpASw+8Q2vRXspvEYhp3h0ZXQpmf7Q5XOdvvfor81jkCLXDGM4cCK/6EiZN89BDZXpYZKNehbmVVdQMn5R7rO3llmmKH3qex0X1vQcxGxMgSDN8eIXQqUwaCpUfteVoUEQPaGlrJsErlS8iPG6UDUoSJfQKNvqA/MXbrsKlhb6qTyoQzQLzGO6RSLEPRcWX/Bzu3PJAtBANLDJkstKCgYiqySsfbeoIpOmx3ELY+37YHZ1gtYW1NXH3cOJRcsWx0Xj/EMM4HPoydH28HuhU8LWnTuhOT4mdilliwlCHOkHJRWRm2QJzEAhs23n7LShEvCyS2ROPM9WUUtnzg5h0dE1DxYlyhXZz5CLRS1pWsv4dFmBeC/3CdO8KgFuh3hhOwkrXiObijS15sAwuBx+yblXQ6dd8W1ExiFyCk7+HcyUn2d/6dDXwVZ+WKpDxQ3dWz9qeF7ZKe4Uh8sowfyzNjzyU6yBccSifZlRCvWOYafwZnNi0cKDM0zChdDpCR92uuD974/LteOiIO5Hw2HpKkaaDiuL0z7GzHwynyXZYPlSrHLk0gq1nYiY0AKFrulgPvT1UyByj0YMo0tGCArQuCWZ0o3RNEMEsq0y7pKWhIqm1nKuQi0vYq1z03HvuWgXLC/0M7ZM7Emm3kHG8q3Wa3By6YWsYfVaKN+GMeow+Fk2g1V5+AwyQVgFsKfIi66r5OxZ9MhBwOUl4xylUFMKPxkdWqZp0QWvRaffszMHk9GgLjEpQdWsaNPBQ7Ys9WxtwLNznYqp13AgWEnHMRnRWUxuputSx/oLzIfhNYtQn2cVM4u2EGbEAQjLovR3pe9l14g6ol0Vr2tFMhVqqZKyq9REcLpw+r2eQUvDnFZzYubNY9mFE/PPDAeDJSuEDKRsVh3kAwjMtlxknQFQV0tyoVpeuBpbY1ad8Ln4/W9HLSpgjIDMgZnMvotPTNlyxc54IbliLXRgpEQsTJUtvcz0K/eZE/Pv+P90sFhSx0t+lHWFsVCtMjIxCR/i0yFSc1ARjtr2hiaUcVy9udLGbBSgVizBUeKaPP5AwQ2kbeU6pt8dmCjAuVOX+HDRuNGZAJn2BBAmjdmUPTh28tm8j+u9C2AwoYyqux3kLH8q828BXf88RcpwOGwk2W1u4Jjuqwe9lKkSY5KpZzZNp6fvLAOWsAnj27YBoSAP+5nKZ5aRKTt1mAMYIK10SFWhSEHQ25fFAQJdWa8V0v4DziOeG3H0YujPA0C6kBiCUaIrTNAWh2mHax+sQTXQrs6C0CoZKmx8BpBmjTAoxLM05R2kzkqZAbIgvap3cTiZTep1l2Bu8QXTDLVm0QrnyEOA1YDnwEJ4tTTQ/nBKoLpTnJ79pvLYyID/63gzX60sS0gp6M6IqCw2qsy6Esz8zp3WNLL805V1DmzfmL5my2bL5DgTAPX00w76SifEnlcoGJmhbRrpNl4t4KMqny5GAGb9sXPIohKs656pSc2Ty5XQRNIFTdeKPuDvILjXxT7OqE6a/+UjORetwHnTl0KnVWYMGgtaoQnW67Tn4sohGOzkvK8l1UFSOy9zTsCtengmm2sgH5qx/XqqMmafgyOq85MXkhlnFi2dhJj4k838kjfznkFdZoqpjyrUSRs03aFFSQE/lXppt8E6QQKtBk07nEx9Qi4psVZhvimycke+/x8OFPOzT4VbFZ8GY6oh050R1UzROR/ThVJknqfPpNJ8VVtZkdmmfWUiicaiXactp26fuCR6pwWmEBJ78g1qablLk/KZW/qRqUPe+wMcuBpIeLM1q6g6LccQwmrcidk3hDNi1oFCQG0gaf/3F+eAJu/S5vhdTT1Wujyv76eIi83TYNSgTII4EKmIztllE1z1CmqWNhJU1hJaTodyBQSjH1hUpewNIzOmo3VFPBC2xX719dkvISW6AKlXMDrFUKSQIgJm3KIAx5pg5qzFiFAmTL4yMnmxQxqlpBOgCROZ1tQYqNGjoE7TwvJPqL1wgNlkmQ5mO7gSOY4MMFBHkZxkf+qpmF17kHEtbC3MT5PqZEMZ944diqwZdSbFP62JL2RRCURclJumgMmCl9hpadJTA8JMkmVGEBBIfztUi000a3iIDSgAzyjyBYGPpJ9O+JkWOkOcrXIPhW0RoGMAD6nniAMEw1mmDqi4SAQqyEBr0YoMVtpBQpqPcphWybusA7gcBhThoE3N7ZCtlIdg2lEAGReNSMuFp9e1wAKoDgTMtpuEp4DLECzlThRKBtzketrwXGXWcOhoWaUMnDUz6NwRGqiFMKYsZq4so0Lc3tia3l6cwKn9KQg09cn70OzBChVaNiCZWDV5B8bplsqiwNNyAagnH8+HRuNA2BwBSmb+AJGmE++ci5NMcjavbjzwSP0oA8aMHQSuIDJVUsBB722RCqOuKTVqlCvYxDGa3tRAvMwaoTJn/O6PS7NHinnTn1QmZTg12NyOciDoAARYhQ5hlREt+5zJFYecPfz78KOzXVSpstcmIKI4RcKkmVeftvV6tfYFnhRiTweEI9gRB8j9m3DDHYcCWRfktScaBeZKjRigHcTG+Un7qnDcgSNPPTwbfhd8UQ+xP43sJq1pVRYvAAHDxlx4AZYsWHG6rsWa9PgZ7y2iHBjUIroTUKk+Mrbi9UeLiTgQkiYx065aM1MZhJXOiYxtuAWklWVo6E8ZYOa/mkW3KB/+G2on8Pg0bDQMhrkZgVNcyJ6YtpVL82TW7cr6xJyuKjQ2SvHRYss2QFah9F90kEwfIJc69RcZUQ1Oh2+0+ANI+jjLvtSRDBk1EwhyCw9NBjjWwNLvDh/ibKRPx6DY58+bjwsJpXi2HZDfVCwNXyXdKtRA/jhXhokRDdjrj/Zz9fZOcHYu6xJ/StmrZEoze2Cxc2LqGaSF5IwDyGRzAjhYAOuf18kyg9UQrAxkxsc5Y/+ABJnZjTCUlAeyyc8YPJNXNDlmUArQy1I8AnDw9LtdXqlknAQOxVDHO/UT2HPigLsDsPdtoHV0nGFEN7BAxiWQk0KlGol2xOiEIc4e/d7X9/EpAtBg5v0xD8ZRUqmNZVuOplPlesygtq1QnJ7YQs6QHICEGWojgAc06oWYdVhul5WElSxISZNkK5qMhTXlQv0zpgDM7mFQAGFSJYGBVCc9/s6DokYsbDdAGHU1xJ8uGbAaE17x8/VJe7LTxCa/7FfANtlIP7mdmBgxbFYcmrKD1AF0tZmSkAI4MbMtp7PrSxnwNAEZC1cZ9gypsD9Gofi8P/4kqLh1fAswR3GzLuTBlvW3MmwmRkGMRjwH0Qhm9eRSqCsjh3RO2S9pvt0G5iFf0cQZ14FSt+84BBBOD3W10/mb1awWvllCGASsG7yW7HeQ5aPQxVVPr/O+5EUOUcG3Ipv5eLtutOyVwHLDeNFO5BUVp9axtSLI6JMeZ4lnHJDMe+JTKyYjlXtADvNss1/ts5fJABqdJawejJdIU05A/hFNU8YHriirpQJixghkHbjNsg6Tb2z2+RjTo+LRSNnj5qXu8dq0JuRL7IAcJkjAndp0LgykeluzZULMQJyXSU/Nuyv9OiWzwkD9B7fZqtc2ulVOz7cgTEydk4eWYtDemHsJ2NOyvHYHaDWTsehoBzDHMA3bA9jH1aifANJ+wqaomDT+T75QnciIcAXxUW4IDx157sCsrWlRr/po0fy8z2IWeO5ceCVd3pjC/KY3RKNQU8GccCOLX3KumNzzAhvBqhWPd6QEIGAZa55eO6RO0sCikVQwGB/dBGeULBBtg5vkhn63DKqx1VOZ6yxbNyTjOhkj1vTqcKhObD03xUDZrNtpTnaexMR7xe6nRulom72SAi13zJlF6dDGLjPvHdVKGgPI5l+jNmxZGUvxkT04e+yZr99fr98AQAOLNhx+Nv6oKm4VA0zbMab0NsaVCpnIr+LFIE5WKDEbAwPYaHMnFlvgH7ctdI7ruk+wYSaQ8WPXhZ7vp0bfUMIBlAijKuPDEPNr+S8HL9YYkXYqLQ+UQTO3EsnuQmNhmmOT4sXzQx1Yb6ZFIhAfOgbkzZcLJ1hDcm7ZbT8SaTFtwO2CUv1c8OWHi+uiJUVDeDR3HMOTtI6jgcW9w/Iqhm1cmv3+AV/i9MpkinE6N7Qo3PgOMudI92b/OnUb5OzkkDlTN1Bm1rTQOQr8CJuCLqgs6vRmOUg6dcfmy8B27BtKNblR17JY++PERt/RLysDXH6QZjRw7VW2g3Sy7J7Yfmn6wbFQ1pvsHFXkkLMGbbXIUEUhyADibfa2kOFARQpLSc9RYWlA1c539nw0bCS/AT//2rP/ceh75IcCNKSRovGAv9IspIf/2OfsmE8dDMDhT8TBYU6i2GVVMf0HTIOQ2xYjc4MGlfgnm3hmUTrWLhqZmjwH3pJUBwkOB7xb5bQ6iwpTIZz6s57ZKmANafMFVxsvvlCPPXOOyMz7v/7xQy7toaKnptcnjai0czhM90i4SRaWcBfLUKQ6m1s/0g69mbKK2tPvnC1X4H5YJa0K0GDqK9fbE77GnKv0DnFrWmTKQd5Ex4BiE5GJGRXJKOEKBS3qWIRMtKcty35mqMJePmMEdtGIxkhDZhdtvWagToMabjjYzigZNslyMu1jMedq5bCm+1S6NduFw3YjbN5+ObEjitZkBnXZNCfER4yXJ48aEHLObLVkAMVDnE6eq93QZ7ca18P0K5g6swYV4oxW0/8uQzHnPao+PD97YNVnq68K0JDas8/NViV8RkDIL6QCGmWGqQEtteQzs6D947JDGLTWPEgjOalwaKfDKy+k17bgkFX0gMQa3JIOmjAOl593HZeWWkphgwOweR1piE6t1Yvll7D76YgRM6Bi7fcqJ/m04+LrfEx+wmhQEMbUqU4Qdg0ArZbpBRrEeiDujx1S6eTsFmFQPkQdndmiEfuPUG+SiIk5w+vLfaA2Cp++++x8zWuvp1MCNKT2K98/4C90L2uxkLkpC2kWNdmsV1G/8wjKWpcWKSA1VFZDHt0MofC31JuDlmdRJtUIVIpp5Lcdp0UjZQ9g5txra7XRhnZDtr3uZIedsYRoVUrcr+TjVs2KQ8AIVreumuhyF1z5flhuV+qlVyp92EFCs3AZWsvQm38VqFiiFmkxPGdMoEokomTDLAvchJFFjH/Co1MYNVUlhSmrCM6K3vNZ3Xv8bw/sh9Ok0wI0pNZLP3jQD6T7OXQUmRSBBS6odqmUWQ3VC7WrxtHXdyfhQnG3NMMh04E183lo+YX4pjdeA1r35G24qbtSwq1X35GdPwhFBFxlzxmlgYxr59eAmz4w262H0ZAUDjqzGOt5l98C8cUsZmEIP5KRwRkGbdze70PnyIs2xg5orsfGjh0lO9Cyi+alcrnfY0AcihTihBVpD/Lg/CEPnHj2Gw/CGaQzAmhI7Vee8U4T/n0ZHFUKriYtqiEHp5PNbKd5u3h3RPUxo3gmzeXSafqIHQC0YD/SehH64YUHFWReu2hP0GnQyAj9Mbg8sqiFJGTfB3lKmd7qxDeVsIZk1uG2HOyxuHppc8fD5rPj4msBR3f4NqlkWV0csLx6ydzuEX3dThu6R/62Zs0UXEBePYjjg1JMY+d5AQm74GBXpSWvw9xWTE+REOC66t4Tz/3l/XCG6YwBGlLrpWcfdND4jL/MfCxfomzAXDRzA1i6l+gC/RFrQip0diOW+JasR6VhfnTyCT8l3wEnQMR80YiwaapYt1XBnht+OQ0o4QcDSmp9fF34ex0H1w+1sbpa3M6SsDiOMDigLJ++95ZfgYXwALXwoAaue6W6U0w+ATcwaO/4wQxskI9RMdumVRzLOMOozhybWUgKCETtWnk5iBURjgu3EOOeE8/+1RkxJ6fXBdCQVl7+3n4sypt80WZFEKaAaxxutA7DDj6pDJpK6+A1I5Owqz4fcn/Fb51yBQ8t/Rj6ZTeFnNDpohGziIS3Lc/3vQ69DmaMs6T6FmXGxJ1C7ilI+FvmD7y+ZHHBGKj/ORhqVOvbJracA+dccB0sp5Cm8dzT9zgfTyuaInt2O9A7+iKUK/yGQW5s6QOsVdIxIyoIASzZDimZM8SV1v4lEzuL2Lzp2HPfPACvM71ugIYUvPuxYvQmX3EK5scS26kucifByEj20JVPgRvCgZ7nxPI7EP9Lee7g8rNQlm1xkBiU6ZMABymgHyxNt1XCnut/GaSc9CnLF4eAk8aOpYkBs5tnWP/+JlJNs9Ypnr9d/4E7YcU7Rz2vP8EutYt8gWZqE2j+fcXLtKc1QzIoasXEG3egHQk52WaD2WU+EyYfIjrRZgWTv8Dnsd246XTe+mrpDQE0pBAnbb38g3t9KT8T2ZRwRw+mBHXucGglnQnQG9OB8oGiZ/jE2Jg/nH8cWr2F+CZiO+WZaVJUJl2c68FOz6BXnHtdVn40ABB2MDIgLo80xw0j2ZxZ861vLlmQYl2YwmVX3QYXeufoKD1dmiJCwpxgmDSa/F4nPoKyF96clxJZMyUN+k7X5js2zMAwTpB5Ah2SKfffSpq2FLk26xGw58QPv3nPqeKcp0sNeJOpt3Dsuf7Jo59vTp8blMeML9qUs8FA5IZw5mkW/Bo9hoI4jmJQyNNSuZhqHl5c6LaNnQfbR8+DkcY432YFfLCrKarwFu3RiQLec9H18OSLfwn98L53m/MpzLseI05pZuRPdeqZHnFGWRBmQntObjkPbr7tf/IT8JPwqh982dAwdKgN4c17ewHah5+E1qGnsuWYkFcnZsF9M2QfRYuYZSuympVjR5cc5HCvze9Bd/Sz88//5XPwJtObBignD9IDzW3n/GkBzZN+fM74TdO0K1XI6m7U0YvAQtWZe6HQxgIQzErusKVbttxVW3d5M9/0fw0Ac2jKKQdGuNX2nB1T0GiMwPNHnoYzTgb43J3CrmmErcqsw3o/y/QNpvd98E4412vPw8d70O0nKeMMGFOZzDW8HAqPP5//7p94J6ldK5eu9dUMpBYUb0J9tA3y7aGmHyU0Ayf9P/+XB+Z/M//jbzzcnp9tw1uQ3jKAhtSfPzbfO/nagcioUzsO+sabRihnzJNFgR+7hmlxIqZl/uF3Gdw9RzfOYHx+dUUPGKpoGQ4du+jn5S/etBM2NbcmFhWX3w0waEjhceGj4w244vyrfLB/GV4+9kMqC1B5AFZ1WkiOOetg0W+7P8+LOvE0+UZJgiZufMo/gKtu+ARcdeNe77mXcDw8wLdmMgaERoBTZ8Ez53dg+ZXvYGjLqkw3J6H/rKq+b/4yLLHH8EpIP1XnsAzb+i5NyITl92XSlf64EP9OZpxiV+k+50f9989Db/KzbyUwa1349qXxC66ZgUa523vZd/oa7U61zlxhV2OaFKFGMil2F+oNeRdteg98Zuf/Et8PP+LNXYRM8iHjQRVpN5brrungvEsnYm7/z5//NhyeexFOW31LN2i2gdk+cNCZN6nNqp6TXiL92rbjCvjor/x+ZM2Dr3Xim5zFFUk2J9aZf4c3Ifd7y541V+DIN/4R9FdOJLczu4xcSefcU0HShAxLBpmOj80fnqP+tN/mrSXsozuC37b0tgO0nsYvmNnta3qjr9yMb4VdfiBO+6aY9i0zkwHB9A/hVRIrwk9c8Ruwc+pGmBz3WXhzn24Fc2DXR6D5vnl6BLbuGI0s+k8f/l9hbum14YXMy7H6dlkLAwasb33a5HXnR/7OP4LJzefCoRM9mPexz1Qvx4+jl5lMqa9v2LJ9HJYOPQZzP/hjdQrZ4ZJ2RVVGwhVhcBezMXRXuKf8b+/wjByEojwwAiOzbzcobfqpA/StTP/g9q/N9KvqSVcU05Nj22KHcceFT3kqNipIp3aMwabpJix3Fxe/+Oj/+eVDcy8swRpO23fs3PzhO/73T42Nb90azPpr812pTxIIaeKIBVSgwtKDs9+ZxxQBaex8bt+eWThL01uqQX/a6ZvP//H8L1z5306QdPB6dDTToWnpBRECbet1KpiYbMDY2PjY9Zf+/Myr8wcPH196tQVrMF10yU3bf/GO+/aOjkxuavcQDx3tJOlTsOkPyxydeb528jur/ooLYbjC4f/x7L6PnHZBxlpOZzWDcvrtj/3Zk0EujI5sgmYj6czKGdfMsdlLn2ER6XmXjEMxUsTf3/rbP/vWV5586HuwhtLP//yv33DNDZ8KwdvpoDdferUNHQ/SMBsRHyCSJAXS1AZZCxcfO1l63en16OwzD33sCjjLUxPWQSqK4jOlN/Xd3vJ0DD35cFJ8yjKkpxHy/DxNw8aFJMcOtWHHRePQ8CD9wHs/+YHztl624+Hv/vHj77TJ3zS5ffTWW3/j/ZfP/NzPBHUYXmX4yqudECoLb7wQrzGYvoqe+JJ4M0xtdhF7K2GW7WTTNffAOkhntYnnFE39e36t4zvp9gq70ChGfScV1ssa8F1DR7d9uGZsouEB7WD75vN3BJM/2hzrvvjaM8fhHUjvufJDF33sF3/njh07dsY7/jp+TuHlI23XL8m55tkLpFl7p4MumvbuAoXv4B8+/c8/8jCsg7QuTDyn3/nolx+sXHG3KxowMTblO6+ACpyaeYAUinEu8+6nzxmDyammxA5fPvGj2X//+P/71z8tNr1q54cuuul9v3Tz1LZLL8RE+Di32HfH/VRmP7nZQWvGJZ2hhDZKASZaUfn/+t35B57Y95H7YZ2kdQXQkH7n4199JDhN4GeYxke3hAAoe7yiRWNnUlSPf09sacKW7SNRl4YUtr968pVDjz7zpSe+e/Abh+BtSFd7YN78M7908/T0pRcx0EovP46f7OOJhV7kSAr5Oyk3zalFPV1Etx3ja5FSfQ489ge71oVp57TuAHr/7i9Nt0ZHHwlOU7B/4yNbvQkfzQL3dkmDAtZr2VEHW7eNRrCCAAJgpbO4+OLRZw4++8q3Z787++bAGkB5+QU/c+GVM//FDY3m2KjHl0vLYZy/TglHjvWwV1bOMrw4ewXNGMv24CTF8+PzEP0E3E1//c9uegrWUVp3AA0pxEd9Tz7iQTkTw08y28QxUkymn2pfD+yPb2rC1nNGogMl4AgHuvBg3F7nxPKrx1858ePDR068eLzVXewePfny4pG52UVbhvO3zWyZHJ8au+ica7afs/2ycyYnt2/eMX35hc3m6JgMjjTR6VbaiCdOdt1Kp4o3ZtL6YwGgBOUDOgsH7MWn/ZxXePAWzJ63Hfbs/92bZmGdpHUJ0JACSP288ZcCkwbgjTQnfJx0Mrj8mf7UDq5vczAyUURGDauhWO+BOQ5Az43nFU6Wu0B8WA/SWleHsiKO5578XOFyu4QT8z1caZcuA20w2ZUCVbQmpkWMdjsF62OZxscLd+kFY7NVUe3Z9w+vnYV1kNYtQEMK5r49NvaligL5UZdG56mRmXcFpp3DR9GtRTOx6pj/G58scrMLCczWWYkpWFwg810AmWYXFxm3PDBPLvShX0XdiOn2dSQ9SQ4R0MxQLAO6bGYMeFBoHDSU87ILx2FstAjHzeI6Aem6Biinf/CxL99fQXFffOiG700/MwMhqK9ThqvoUkigCq3ETwQILDkyVvjwVAFN/+l8iCqEqZojRZZHWOIX1gN1ulX4w26/cu0OJlAOu56dSIjmnB6xpGY+gbXAFKiPu+S2o1jGounAMyg0GmECws+fF3jWg/RdAdCQfvvjX7nH9/R9vkPTOlUfigomv9kcXzUElQMpMhmBSL3/SgCFWbQgW2kEUFttRMegODk1qZG0afDY+2XHzwy1sREiEkXheAapirxq846Xdg0P0kvO9yBtxlmys55J3zUADSno0oqcp/A7sVUjOlGNYkyWrQ1o0nBw5pxgtjCFwWmX91lWTOci5SeasQbMBDqOHvSrvmfdJVdWaeWSlyXYHJ8KdA0sGxjgBqTx2GYA6YVjfto3MWl1FjPpuwqgnPzc/f0eCvdZADoGamN8gD2ZIXU5H8dQk06V40BlQQJxBKR63zDAlMLCHJvtV35as2x7edATnRnjobGQvozj0xiZFOoamo4DASl6kLpg7v32s9ZxesM3zZ3N6ff+4pP3N1xxhY8bPkR+R7zpq9tbhFbnRPysqp6+kAHN3aMO9Y5S8lDqD9BN35NATGtT9LiBZ0sFIPe7fgZoCbr+2mV3MT63xzy570+rstrjj5sNK9j7nbl4P7ED0GcCxDzTrRlchl4f3StHulCWcb3nTFEVj9z1j5+dgbMsvSsZ1KZg9nvhsT4F3pk8cNaQGBkrBPnj3H5jJNOeWPP0JdxUY8hhzlfATFn1sF/1XL9qAz/DhNg3qlz/zwFv3B94+N/ecSCU6vZfDfLEPeL/ZsJUbnN82h9VDEQjRC4khnfB3F/sNWmzeXYy6bseoJzu8UD1XXq/7947KU5pgMor1xsQwFH4uJOLU6guboufRZFp1z7dLl2GGXLPfGX4CxMElWc1ficRRwc4fIQuvGllv4+KPvQVAqZNAaSlB6m/wAzUNCnfa1mimnrO32rSsw2kGwCtpQBUD5XdPo4egLq7fksFuEHvXIP1g4yaWNXp1Kk5F4CdJnzUA3x/WS4/tH//Z055OwUzKQaQFgGk0y4Mjiw2WwuTRU3q46OXnDcambQ6i0JQGwA9RUpghd2e0T7tcbTbg2/aeungoObxu3yGiR0pNA5RZORivirggN/6aKdq7TsdKOspgbTwIA33danjhDI5wJGCRKdJnYI39wVefMGoG2mePcH8DYC+jvT3PvFnu4poXnFXWTRu9NCLN/v5MI6PrQbwRlc7gtCDZJZkwmwVn7KBB31jz/a8tvyT/XfMwptMNSb1mnRK5Ia9uzOFwSCFpSCY+wIvOX/Ux0uLMAt1cK2DdAOgZ3FiJvUAZMcp3oY5fL2oSg8/64WXeCY9G0JQ78ow03pJD//JHbMejntcMNdVif32fHwYRnhuvw19FWAetBYcuF7lXj7iZ6jC6yXBg7tyazYEtcGg6yAl7z5pUmfMfWWW6/F3MNOsPnLmwrRoMy0rnMXe6E377r/ip3bP+5mkDQZdBykwacMzaZGYFPrtk3HilJ+AHVII5BdxRiL9hX1lD+MNeeFpNy4E80e6d8MaSxsAXSeJzX0RQkgepL32fLx9Nb6ih46h2SmUJ1FDmLRCePlwuDHPg7SqdsMaSxsAXUcpgRSZSb0mnXOJSeMbkON/Ba2BMhoVw9LAV460Xa/X2g1rLG0AdJ0ldZzwYHgCXT8xKTlJaSK1SCY+sqlLDyqBfreE48cXYa2lDYCuw5Q0KYq5DyAN95DY15mH6SQCbHhDG5TteVxa6q25G+42ALpOkzX3YRVUr33chZVS4T1TKdzkcdnv+Z/Lrtc6AeHZob1e9XlYY2kjzLTOk10FZefp0/Or4kpCXoE1+1f/6uNXwBpLGwy6zpMyKc7GRVfgdD1qlZYUeE06O4LVHliDaYNB30Xpo7/6tbuwKnys090Y74Vy7gBC+Si02w8eeJ0LVjbSRtpIG2kjbaSNtJHeRPrP5oaTD1ltQPwAAAAASUVORK5CYII=;" vertex="1" parent="1">
                    <mxGeometry x="440" y="190" width="50" height="50" as="geometry"/>
                </mxCell>
                <mxCell id="55" value="" style="edgeStyle=none;html=1;startArrow=classic;startFill=1;" edge="1" parent="1" source="15" target="41">
                    <mxGeometry relative="1" as="geometry">
                        <mxPoint x="360" y="349" as="sourcePoint"/>
                        <mxPoint x="550" y="481" as="targetPoint"/>
                    </mxGeometry>
                </mxCell>
                <mxCell id="41" value="Connected agents" style="shape=image;verticalLabelPosition=bottom;labelBackgroundColor=default;verticalAlign=top;aspect=fixed;imageAspect=0;image=data:image/png,iVBORw0KGgoAAAANSUhEUgAAAKgAAACoCAYAAAB0S6W0AAAACXBIWXMAACE4AAAhOAFFljFgAAAAAXNSR0IArs4c6QAAAARnQU1BAACxjwv8YQUAAFDBSURBVHgB7b0JkGXXeR72n/ter7N0zwz2tTEgsYsYgJAEMgoxQ4okQDLmUJIrilIpgEqUUhylALhSkl2VCoCUU1ZUqiIYl1OUrIQDl2UrtsscmRQJqWxiIFIiTEJYuACgCAI9ADgzwCzd09tb7/19ln87972eGWxET6MP0PPeu8u5Z/nO93//f869F2AjbaSNtJE20kbaSBtpI22kjbSRNtJG2kgbaSNtpI20kTbSRtpIG2kjbaSNtJE20kbaSBtpI22kjbSRNtJG2kinSQ420hmlvb95/0zZhd0I1eUNKGZ8y01jhTN+1zT6v/Ab0GE41hX+F7p5RJzHAub98fMA1Syim/WHPN0oYHb/P7v/KdhIp00bAB2S9t51/3Qb+rsa4D7tG2hX4YpdHljTiGl/aDSM/zv/NW118XtKCA4Lv6FC8J+8HeP2gNxwdOXP83se9Ruf8j8ebQAc2L/v/nnYSFnaACilvXvvn16cbN3pIbTXA+c2F4AVoBfg5L+WVYUBhAQ3TOiMW6AK+3wKoE27I3DjcXwGRnzG3CK2w5kJ2ijn+t8esNVDjdHRAw/vu38WNtK7G6C7994z3SuKuzxSPu0KdxsYFgwpYQsj1LBE7Pb7zoMRyrKCKiDO7+iXZaREj9FwSgRxxGIR2LJwjUbKcqTZhMLTaqNRYLPZdI2iCIhEf5xL5EpXwwRYv+VA5XDfX/7r33sI3sXpXQnQAMx2Vd3tEXSPB9Q0menAaOhBFECI/X7lOt0eegC6Xq8MaIxWXI16SolkCciYGJOOQZcYk45DiFg0546OjgTAwqgH75j/bkibShQPm/WIPzACIw8c2P+7s/AuS+8qgN66954ZT4X3+a93kYiMKZlphHanC91uD7q9fgbYwGrMrmy8A/bidqeoczkB2102JVOPevlAugHJIyNNmBgbg9GRwLYFE2s8x6Xy7Ks8UB97FwH1XQHQwJgtLD/n7fKdpAMj0BiUnW4/ApNTHWiaBrYjHe/QIJFBBUyGSMcIDQtLKk9G8iSV63cwWMfHR9Xs88EO9o1U7w5GXdcADcBcqfp3+/4lUw7i1LRaHbfS7gA7KjX9ye4Rfcd0pnMEloSvBMz6OQq6AaDX9QE4ol7tB/M1XqvRaARGdZsmxwOrolMO9x6/e/Cv9//+A7CO07oF6K17f2t3VeIX/dfLieHQA9Mtr7Q9a/ZOcaawH/+wwKNtzoDPqkYjA5B3Mmca5LKLT6EAIwXMISYCkA7GifExBSqNFn/2Qf/rs9/c//sHYB2mdQfQwJrLZe8+X7G744bIf+iWllvQbnet8ItuDYGD/BMJD4GNbKopDscXq7WZ6FZ2yM0+s8mxAwV6PA+A7BsBk7SsSFfAibHRAFQMOtVR5j7Q9eC39v/+vbDO0roC6K17f3OmKhuP+K8z0YHxfbrSbkPLAzOEh4Acm+T4xFOE/giOBl+cBpuIycvuZ9Y0jvjA8cyU5nzWDvxF6ZL5mNGZruHIu/cTAIWb8Pp00+QEGC6f9S7WnvWkTRuwTtLP/Z3/+U5vwfd7f/iC0Ie9Xt/NLyxBJzPnHGpH1noRKXFbwoEzGjAehNlGBaNNDCxl3JBlQd9zaSB5s6hlU04DipmVrsnXle/KvAi9fj86ec1mI2jVsGu6hPKuS675YPuV5771n2AdpHUB0J/71N+7z/fXg/7reOi45ZUVXFxaiRBzHFF0zEthY+FyP2iQM8nxFv2Ywpx1a8shqAGa5fyRWM+AiwgbKNdcEbi6Y4UUYoJsalUFcLh8AGn49LHUsH3c/3P7pdd8AF5+7luPwlmezmoTH/Vmr/s53093hd/BjJ84uYhxVtIkMbHghrjaZNfzcI+zoR0QPZlLSQDLrBlOM2cHSFwiqKk2xRPFyRKgfm0OY9F+s08uE7+E2alt05ujExV+F1DsG4Et9x7Yf/bO8Z+1AE3g7Dzi+2ZX6N92u4OLy604CyRTPlmYMYv/GJWHYC14FkM3RjfXjY4cJp6ZlzyHxVAZYBnQsgMEdAOYHwhZST7KrMyyzPkQHKjJiTG+ylM+kup16YNnJUjPSoBGcHY9OJ0Hp0/Lyy1carVpr4loi+89oCMJUgYcxmMXZwQGPCY+VzKC/KrMxsbjyQ4TkAItGjHn19g4u8QAUIeXSVWwd55iSIpy8SCd2nM2MulZB9AEzpYHp9sV2NKHj1zLa7CYiJ4MC6IEiwbkm7BR3KsbIS7gEFDnWDEBIGVmZWSdJkI7taT+UCpTAGmFQ9lZ2BaM6DDFcy7z8dFcwNYp/hgfG8XNmyaCyXfuLGXSswqgAk6AXaF/504uQr9fpp0WZ2oG46+0xyg/VHIF5wYEJBjdmH7oFGVylsLCj8IlxxtyvciAUkbWjGWQAAwyaxZD5WrUdbC1AlnKvDdSImGb9/BheuvmuJIqgRTOKpAWcBalxe7y53wn3BiAMTe/4MMsZcKaklM60GVz42TTEciJB7OHwjtYY7yYIvw4BJmOQJn8qTwFktQlxgOKFCHKsTFLzgUxQ2vah5APDmfO1sMoby1YcqWyvVw3zpdyDAN4/uRSXHfg99zobc3n4CxKZ02Y6ZZP/I/3+RYO8+rBU3e+4VlXsknHhLg0wU28yDFGGAzgZLFIEYC8kUnTHO0sBzumLCMayMdyicjEa6Jd+bkEJ8fMWZMOdVYX00+X4fNSKUzUwRnlIUX3B3a7fRgbGw2H7rrsmlt9COqxR+EsSGcFQH/2E79xt++G3w19MBfAWYZZIQ0LOnbbCaMSjiHLDhmCaxEaiZKGxCABE5oCdafUm1KrzSWhXXpdOwAyzRg/03ahfqdRgSxrs1+RycdK9Z2Mkng+jQszl48x9Nbt9dz42EjYvPuSaz8w+8pzjz0NazyteQ0api973f6TPuQ9vbC4DN4hIkgZxwGsrBR2k8TGsrYdrXAz/avhIuTjjPYzAq/mIMkmc76ZjVKAKuhz0+0Gw0+Qn1WXyjKQWNuIcFb9avWPi9OjW7dMhl/z/oCbHtv/4Cys4bTmNWivUz7iG3M6LPZY6XTCJuqASmRYclVUgwW6YJ2WQpmQzrPgTJlA9GtI86lOJe8nfXGUvQpDRoX/WaV7PSISSD+C0aN0YfZc0MmeqgLVmSQcjRZmXSsFFhCKdo0/6PpULOuPOce10E0ALR8vDm2J4U5UxEeC4wlrOK1pgN788V//nG/EmVarA0srrbiNYZSvm4wfZCZJ77moJwlcegQlB+I8AdooOBtsNq0csiIryn48suF15DZrcF85Md0YJ06SXBtVm1LEIZad8+YKORowPMjMDILTwUAaGswAyRy0msMV/paW2xGoftPlfsjfB2s4rVkTf8vt/8Nu37xfL6vKHZ9f8ISpEZzcfcgcCDhFWCY35ezh2EPsmjYQLanZaPjKKFgRmVo61a/5FcX2Mwmr5U5L/7KlfOlmPAyrrwqOStQnDmo2P+tOtM3BAQin2hi2T2+BsCDa/9rjTf0BWINpzTKo77Av+g93Yn4RUObWKVQDAjmKH1bIvIkiEpGhzCEXZkzLZvQ9mFwjBsF4KGxR0ZxFhAZqmI1gxRQBACsgjTQAASudbAg3bqkI/ygRBaNTHTNi+jOyRUWJiJOUv0gJR9uFaVP4KUil6otr1dSvSYDefPuv3+c/ZhaWl6GsSoMLg5vUEZFhaLdjOHJfASQzj5lORcG56D1Iplr1JoMOhjEasNCgoBJdnMHn+Cy+2S4CiYETTq7Y/rJpVnmgskCsOw9KBakcDEY3O9AwFOZ61NZBvvhDvXWCcIeB/3p5u6rugTWY1pyJv/X235zpYvfJXq8/7eOdaSOpr2ReU7/IdKTAwamppOgO5uTJni1vsNSl8mF4GpwyBZED9tYMMf18fBxFZspUTbkGB5AKl1DlDPvSZjALmkGFcARzXfCAZV0nE2WIg+ta+Zxt01vcSLMxP1E0rlhrs0xrjkE9OO/zH9MLS8u0RdwYQSAQKzrgu86AQIME2GTaGIXiHTtQzxnUUyLJmVGUeNFGJAhbpYMENezIJB8NqFzsGKEzdEhFrehwjRpYS820rmUl1lZqZVbm4gLzvtTBcS0qrpOAMzvQbwjhO79pulWWa26WaU0x6K7b75opsHjRe+y4nLz2gfJxEJ7dEaYTYlc0Xg3aT+uUsCFMDCRMlpFMwEfBzpd1TNilp3PJqDNdMapyR8ac72pMb0oIMlTo2hXiwGqqLHoBej8Till3ZjfY2SxuBqDKCkmHHWGJXlj95IrmzrUUG11TDOrBeV+/6uNKq00uj2NeYBGGyUwDOSJgQo0AWbinBlIVdKAaEVBcCzCyjU5ifevEeBuNJzoXWeGKA6d2OP7V3O6K9TBwkeULszybaC0QmiX4+p9jnSsWRpwyAIm5CmIdCIPr2gGqKqysdMJ8vc8vPthizaQ1w6CJPd2L84tL2Ol0s5U9dRLjZGZRklV1WdySmXaYv6BuhGFVZRQNVbGR5dlUKYychyYvtKujgHUzfR22tlR4jog8m+1CMLd7EABxkFUzxpZpXl7E4miUgAwzU0DI2nV8LM0yTRTNbWtFi64ZBi0Q7uuXZbg12CyKIHo03WH1k9GTsi2uMlLiECVWu1zMO7nTiGwF2cknvUfEZcKnzDjiyQMwdzEYmfppXDhD8U6krikOMa9j2SBMCkrpKCoZjQYxloKiAmFHmlmiNdPgKCpRsf7lSQVTAGT2jsH7sixxpeqvGY9+zQDUN9PupDvRspk4OJy40wWcyGyZpj5ZhEUnyQXAovIRoAFr6my1/6QkHK+mV2ChkQ7q/NjCVchOSvqrhMXBDB7DdRJHcgJwJCABzd9TXhZMID6gtR7cWIYxRXiw/ec2UYMwtFgQHmwRMr57rcRF1wRAd330v7vLj9wZrz3FYHIHSXCHpzBFCzLzOVF7lJ20t+4XRoz75JM6kPgU+By18qxOOWOjHRWoLlu5Ervfmbw0BlpFytbBBeThpxrSvxwJINA6q3kZ2Fx3ZWUHXA/NX+9Z4qUJdlpLR4o9h54hgFOtXu8uWANpbTBoUdy5tLximC5jTvpJwBFbmqDHnc7norgsbIdtxzhmDg3R0GwMeeXqjAigkX/wwFDkEfgsowObUSVqhjKaBVDODAjkaqHh0YpGZ0VWg/NGIzm4hUDoG7iazkF+jrYtX7eiPxoR0siI3tQ7j4xPwxpIDt7hFJwj3wsvHjsxHx4Mq70sYFImG+ZjgKwxpqZPHBx31EJQYr2189h/YcGqURk8pYOV7niji8p16sdrKEkQwJWjn7SuE+QxPLWAvjP3RDl7fam8va54WsCtxoLA1JbaVre5fGdoPT+PsGPbVtw8Mrb9nXaW3nkGLcvdrXY7inMyVfHPkpaSERq25JZHJ9oSSfNbO5wnyyy8QfoQyToTPbqMTcEwJJAXwmFXsp9CackpQQe8Kq+KK4b17JTYqRIpUKHoRHFwyM6n87mCqrWNguXSKhBBQOpokkqcrnh9qEsbrW8w9a3ynTfza8HE3xk8dwAwE4IhqTliic92nYGam6a0aMQKQgKfQwk+AuQEhMZas4FNqKBeB1qIgmpPkXc7oV4+P8b+Ex7SflkV6GrOXRooIgVQtCXbAlaGLgEX04yVFDy7d4llkLQa6h4zeMkMiQJ1Otp5qowEBoZbRLrhJRDvuJl/RwG6a/dd02VV7e72wm3D4sDEfWh6kpPpDMchSWE/lE9AFFaNm+h0x+yk/ZU5TzoiaCWRuEjMfQR+Zb1Me5prKVlGjCFRbY3YFUQ5q6MyMptip7ZB1zFn1iBb34xg8qRLoziOpAXAhgIY2MyyvV4/gHX3O+3Nv6MALZvVbeHJxoQTZjG26dKgKP2tjkvFy+O0qelTFkhY6cW84ZSxBC4a1jGdL2Y7/ZBYJ1OTRoeExdQEE7Yzs0nyAYxcAY3+c0FddhJXQz160LlRlOiDIzZnvDP8jUYS0047Ujswo5rvduCFheLtfn8XvIPpHQVoA3B3CC2BjO7Ui6KmuOEMG+ZeC9st4c+MZTNWjbeBVOkgMB96QafjA+lSmjMwCBN3i0Z2An15rUwOdJaBzNZqzk0d7L8kH6Tu3DAiOawZB9KpwBQq+TP4nIZ6UyXFxGsb84ZUH8nBm3koodoL72B6ZxkUq13hMYlmE1lQIRHqAv6BIgEUqMKKkDV76jW5Z90Zn0HICKxlR0UMX7hmvx17PQwLwYj2v6o62SMCFkw5WANWhrq5BgasvAKLVvcrYKEmCyjfpG0dWMYHsBqbmgfkOvSJqmmBIlXdfh+qsrwR3sH0jgK01+vtFrOdXFhQSkgsBqpLqeWEPait03IyPQTt4fEUtL9yMNK5qGBWtyb9q+YfBEvCOilnJ8Y2gdJllxfKylfGg4wS3WcJMW12LAV0OEglWMOaBslGFF0DSQaYSTMQ6zQwAB1nn7okvIbn3Wnid33013ZF/Zl+phvcANQ0YQa6eAzk7Kns6CRyKWYqJWIi6g3nrIUTUw5ZAF0GCQqtSFYEHmfAhobgOfOqEmMej+CfIPijeCWTOxouk/l/LoJcxOhIdMKquelwA2MPBMh0HGr4DNjW8GCXcSW5+D6aDrd+wzuUHPwU0669d03DcnfGB4N2e0TeeOLkwl1d7y1SQRKLpUPrazVpAZFp/KRX2YkB7j+CajKjLusLlgRDSpbUpMvUWdbx5rdusvH34ZMINj89ncmZJa2hfJoDcgqRPMiP0hBOFEfMKrWXPuMJENljFLEMsibKgXqiMsuWGxbaPDrSxO1bt/4pFtWBBrinH/vKFw7ATzG97QDdtXfvdLWw6S501ad9YwQ9s42v/OprJ+w0Hm3mmypVq2knEULVCEuvG/FEH+IySDSl3olGxzK7IHDPC6EPXyVnJa1uq2NaYR+uRy8FAzslLkSsU0GDTWK/1jhTFjcRDdtZM1sqWxZGNUhMNC8zNwZNKcN5O0ykKZX/gN/7UGMUDjy2/wuz8DamtwWgEZSLk3f6hgoe4G10IXnoavj0M0fu+NwCsPzj7fWV5Gx7QzKMU7/VGCCDupJCOk/7iD7pfF2Rbvcrq/F8ToZQtN67XLE2fWlZlTWuy7UHtQeHmZRdUX7W6g3mWVN8JE+H0njkbLjOclFbS76gEdwk+7PH5fDec7ZPufDKxmFw8cc84sv3z7/z1S/sg7chvaUADcDsL4zf7aC4B+Lrq81tDZAaOryItdvrQb/Xx1anK82mTJM9skX1n50ot52NMNxcmV6TPahZcSdbpRCuTfegCyj5NDMgbJn5EEu1DC9Lp2oR3MA9/BnBqSMkwEJ2lvL863ztQCy3TKFKaetyR5vL1CnczMdMTKMjXju8UzS8S7TZKHA0PAcfQSQBqpSa9SfvK0bhobeSVd8SgO7a7YFZeGC64h7vVU/ZTggfbQ/Ejp/bDQuS6bbdZI7ogQSubrcosTnWohpuofZhRiF2FtQgirmOG4WGrF4FXWkyYMuz4sj16qwsoMuLbbkwnamsmgFn2LXl2FpB0LYNmXK929SOxGEMO6SeduAZ82+YGmiAcH3SRcZGmvEVjaMjI+nBD5AN0AjUb3/1Cw/AW5DeNEBv2P2ru30Vv+gLPmPqCCEA3/HzuYEtHYAaxTqvxFLQSGYwSeHcKr6QHsFbGT9Q68iUozId/xaeon8IPFifCgBU16JWeGVZO1jsqTnrxUP5uLpGHpIsnG1dnCE4sMBxgxWvF1XNBnCtDNPbUaif/DSVPGvKZmxkBMfHx+JDyXhPqjfMNpz79TfrVL1hgAbWLIux+3w9wu0BSVP5HwGY4aY3CcMYV1ysNN0/NKw4WW9m3wUj9lzDVvb3cHarS46aBa4RthPxl7GOaDvL7Fy3iuzrQNWG4odZzjCmrJdzFlDSvmBW4EPG08aUS6Ewvz7rjqwNMo9eGMaUuV4XUxPTP+g1qgsvv50YH6N3ikr2D/ZGJh546g0u23tDAN21+1dnfATzEd+sM0BhxpV2xy2vtBiodlTaYY46Vt1qJbFNYMMlaScpBwlDKbuiMqGMBM7KGD4yjcaE5eXLTS1dU2d66uirSQFQRq9JZ2aWwrzpw9rxPF9b3WGIF99KykpuuzA5Mqvz9fXNIHJu3bAxA0CdP3QIaLvZuko5PU5hfGIMNk9MqGUCN+s9/j1vRJu+boAmk159CcPj+3wKccyFxaWoL7NKaQ8BZOqtxoyWVUEw4rgzLQK0T8mZcDWWtCw0vGqsuRQwbOdUz5poIWlZAxBnnAP67SyrpnxsaaUR+PpAeGepIYACKyHlrLpNAd2Jg4aXrwMWHhwbzZE+hAsdlTGPAmRaV3K15TD5EXwbnkWntmxyQaemnTjvz/vs33ztD/fD60ivC6A37P6v7/ZFD290i3cPhkciroTXv5jh59TwAIDElNEIP6y7r5CpUTI5oREK5wY0YGpoOraWh21yHulUS9ZMzDBorpuZPtpgQlDS6hNT22D75VfA2NZpnNg27fyf3zYd5+PG/fd4dJF6r99pQa/Thvb8vP/ehsXDR2DJ/7VOzOPS4de0usOTNeA5W+rQAcvYRgugq+WdS3hxlAAynKXbS6xAQY2XUjHMo4eM1JC2qknwsG/Cs+mWTZPO6TzL33/8a3/4IJxhOmOA3rD7V+7z+d8XSuHZEudOLriyrMBWEEzF+FGCNQLKmdUEG9OuHNh0uB7EwBG7na1wlos52yMwKDBj0NyIPFssNZGAzfFxd9F174ftl+2EbR6YI+PjaaWooxxDaLCgXELZOFSYHlkWb53wExThlW90nosALjsdmPvxLBz9/g/950sBtMKWpr1qKlNYVouc9prj6onOFXJwBuAAVs4bOwVp4bcDuaaZ1HNZ31gyKbJpVrZQEM1+kR71WBR8rfsf/+ofPgBnkM4IoDfs/rt3+1I8GArU8fPn84vxkYiEnmzWIjMiFWqwN0eN6QCX2QwcwioSDgIAWMVZAi2Ms7ZVu89qp8xiumwUjYyNw0XX3gLnv+d62HbpFWl3OD+CD4GXRgWgxezCp4CWrsXAdWmfAhQE0K7Q4+dfOAiHvv00zD3PYDXMqC3Cv4X9wodMapjasqPPdh5sPxuTrKbfmA5tH3tevIZeCzNajgXhPjHn2NYOAJ7aPBle5MAzXvd+56t/8Hk4TTotQK/d/ct7fR/8u3DsSqsD4aFeqpggH52aBuJrHDc0XG+eAFfHWqoXm1aos3Ct6Oz0sPmiPCzyLWUIWFEvBdsvuRIuvuYWOO/K68EzpwEcldYDqocVrPRK6FZV/B7/wqO8fQP1kYGK8dUURcNPV/hzfMgwBLhhrOmdh9ECRpvhe6GAhwTycK2gaH7y7afghYe/GYEqTQH1R0TlNj8TlpjdJGi2J7M+SLfOsrc4W8yOFrsC9zqPGMCbppapVy0ywhYP0smJ8dQ12Njz+MOnDkOdEqA+lDTTx8aTPqsprzfd0vKKnmbP1DlkZzahRSPwaNJWQs1FP7J4OkDusABkBAjKGCxPazNX1HAGk3U23n7RlfCen/0YbPMATWFQAF5bFZYGz7X70OpXsBRugfBbqgAkD67KkRQukqlHNvl8fkPzcQ3Kl4Ho902ONmDrWDN+Nr11LIhdHUnswKgv/Pk3YeX4vA5sjmAMjlZrv1Vns+ZXVpXGZj/PpbfQGdzJdUBbHmzboavjZlBSERhcBlQiG/QgdR6kYev8CBY3P/bwF2ZhlbQqQEOcs4fFk/6QGR9Cip66qSxkM3JGdKNhxgFupGOtuHK5FlQni/lP88+OA9D4wCCEzQDhjADAgnRi8za47oOfgXNnrk85RbOcHuo670G52OlHtrSgQ2I913ARkMggbSjLugjeSkw9FqxHQUCq29PvTWMNmPJTiZs8WEc92zJIQy0Of+e78PzXvoHtuZMMLKmLTdapq0UGeIUX9/cwgEtbm2Nll40yZI1c/0EEJPFmAMNlGWnD5skJ2OSZNISgemOTN60WJ131PUk7LrvuH/uL397pdvDk4rLYFsxiDJmdkbVftkJOq8F1cYY2E6qzVnEy+owLZCortsaIhqHs6tSLEFaOV3nvzR93N972a7Blx8VUdD/z1Snh6EIXjiz0YNl/75VmaDmmcqeKBkGNQeJoaRI+TktrbYurVclFybDUL+FEp+slA8K4nz5kh2LrJRfA5bt/NmZ04kcHMwvNNa/HSp0ZrdGS5vtV/LC4JasVPfmqsmEy06KYNWqmpEyb0zYVdkBG1IF9AjSGtcCjo00/VVpsK8r++KHn/+bPYUhywzbe/LG/++F2p/8fgpd+fO5kJDADH7mqbRTWmy53GG1kKTaJ0Z/164uelTykad2gpjGtzXlmpqR+jD99cvMOuOUX/3vYGoGZBtpyt4Jjy13/WeaOjIPcwZFtEDVjjF8U6qnLeWzywZh5Yt6BY/y2gtm00GNDDabHRuBcH6IZLRK4wzbPovDtf/IvoHX8pKmbDlWuq+2PWlNgNpLS+TKLRfqT2c+SoyUikhBGq64uPcx18n7h4RkeENFseJPUwD2Pf+WPDtRPHsqg2y65+uveS992bP5kGFHkfkhps1KIIGetaBSN47EqwAOnIJNbz10GVmkaZ4anvFlNbYyzNG6l6mAbhS07r90NN992JwTTHlJgyENzXc+aPej2K64LmKiDYWRHGjdvBOH4bKyFeCLQy1vVAZGmoGiMA8PAxLYGZdDx5DDnGbXvN455Rg1KccQD9uKffx9U/R6cnP2JpQGodUvePwpWY7ws7WeLWbgN5TyDasf9iiZiosqv5liBYBnMUguxtKHfPJP6KdLR0GK7z7/hfQ8dee6pti3/AECv+9Av3ec/9i4urwQaHtLbjoUfV1ita6JxoBCo9phpLYA8vCH1A4AMYyy4deSx9tWGcXVMu1pgNOHq+p/9JXf1jZ/w5iTNahxf6Edw9vrIcy0Z4DUbl40TxwX3AAl/Za8DVWcZsNeCsrUMVdd/dlb8tpb/3vZA6vpjul6U8huZCwEnmoGAaAYDDxKyIh0/QzdHrxufbDah8H/nXntlnMTwJr/eMSDj3ElxQQ1ufT2tjI9wQTRsKg0u54BEo2r9Kj8lL8Oswp75AKHxCfqQ4LHRkelGv+gcev6JA2BrZX8Er71TwSO9Xn/mxPxJ0JgbmhU09lQNfVTsKNmArnqRoOY/bySoJRQ6sGOTrmfjb5CPDruFzVRzdAJ+7kO/ATvOf2801UHfvXLcz+70KqAH7EB0nzm+aWKdSIH2eJOvN+FV6QFXdn38tyfeOAffUyxUpUDsTHauCjXtMU/vDDVGR8O9FB5sRTTvLBvs9V2DKQCjeQ/FHPEO1OVbJmCEvP655w/CE3/0b6C/0gFrlVdrW8jNera+lIwcmOiLnpPHms4gOe0KgQn3pz6mncgmbt8xtSWsO53vj/WveGr/PnGYMgadvuyau/3hn/bgNI+gVnjoKM00jrUvZL21cjxyXB4mt+wLPJqNrZff1lHRrw4kGmA6gjKMmzdt2gEf2P1bsO2cK+LFTyx61jxGrGkYk8af5ut0IFZlzzPhEpRtH8Eo+4kJnToYZgiZIZXimamNaKCCmm6vmaDyrIrdTjTVrmiGUA+1cKpk4Ww/KyjCWtoF71yE/CcaTZjYMRXZ9NgPX4B+eL4ACvlSU0hnIAEXCn47CnWU8e71ksaE1cwU1sAt/ZyBI+vnfKBYhtU8MLxaPZj6sUbZyFg0O/na2/a+uLy0MrO43DLqRAOwHMhl/WAlYbp4Zj6gZnKyvFZPtVCHdBLCwHlCmMraIU1u2g6/8OF7YcJ/hk1HT/bg2GIvOTyQwkURK5G5gFgShOWqKphvb6qrLmhYic71TNo6Pgv99jx05o9Ad+FVD7g29JfnwZa0uWkampu3QjE6DqPbz4exCy+F0R3nQzE+lnrRhJm8yw6NTZug8I5RzqbJgSo4vEXdHVr/3MlRONfnFX635+bgP/3fwXmar/cHdxOKvjSCncFVb9i6DFA9lccD1CdndVWbcFH8cL+6PDoJRjGm0NPmTRPz5VgpLCq5XfNf7r2rwuqLJ+biYxBhSDKiPBsXyIxi52it7gHDlIIqXNXrywZthdnbMDLSzEwZIWNkZBI+9OF7YGrbpTGm+ZPjXVhqlwQ+ENOcgOAIsKnzK/Dhpc6iP6CXA9aDcn72sQjM9onZYQWGbDDC6mnsgstgYuYqmLj8vdDYOhXNN8/pexvngT3hJ1gKEz1A8uzTYEox0lTeEDe91B8flrgtvnI4evi9lvgY9SgL5M0dy6wuK6qtrEuEurUcqK8hFOsnCPJYNjBLcdmUhCRycO72aT95D/c+8bX/Ly4oERN/zuXXfG55ZWWmE1537XLBrTVyVNOcBR07+eHMIhPDAAMmPVvrQQ2g5h1yVsbaiHCpska/UBPT6MUP3fZbbseOndFL/8lrXWi1KxhUUE7XeBTpKmW/7R2cRZ9DJcVtzc3Cq9/bD8d+8BVoE2u+/pTzf7l0ElqvvACLP3gcuodfgsaWaWhsnkoHYBnNf2xQb8JlPLNVMXmGvzDNutzvw6aREZiY2gJTMxf7Gajv8hGuZqR1qSE4I/SldFRE5YDYxohyaw6A5U8+jzsSDQlJ3zIw6QhZLeWy9pH+TEeOjYyMH37+yYf4KnCNd46gDA+RnfPsWeposupyeMKcKZ0V4TCU6aTRnD3HjOJ8dAqswaxAMmbCMDJcf8On4IYbPgk+pAkvHWn7z3RgCezUOBPrpNmgwJv9FV/vFaJ5gNbJF+H4i4940zmbk8UQlTEsZZa0dtqw740tU7Dtgx+B8Zn3As9YNcMsy6ZJYc44tUqygBnUUcw0zD5dtnnCh6MKOPjoY/Dcv/sLLkl2uRy0HPrJ7m7ILFS9rRHzNRY1n5XONx1IXcO6FUzm1sOXSwVj4QfDudunACdxWzDzkUHPufS9e1vt9t5Wq4PDUJkXOAObyyvF5w4u7rCg1dnO3IMkGokN65wKfJZP9hwrksPPq6/+MNz4vk/Hn4de60CnR2+ac84YBHWOOOd+x8d6+/E99JEhD3//X8KJFw8ktjwVKE8H2NOA2VlUeIdp+cfPenZdgJGgU0e9TvVOWdXtQjEyqnWIMgQgMzaB/X092l6WbfWRgW0zlwSHKcRJc6SJMeJAl7CsMxzPlpbVJegYU8vITEzf82qjMnMdAqC586SOG2ySoLkLGIWRVw//+MnH6NE3xZ3hUXvcnfI2CHNV5Pm9wWYXBjXHpJCFbJOgb+1U88xKyGmRn7kEOlrsoEjH04mbvDP0vus/CWEW+7A36x0fK0tkk0x5muhxtEwzgdWFFUmtOa8v+3Hf3CvfgoN/809hZf5FkrpSdq1HfVhSMQBhMJ2GaVmvo8lo+Yffg6Nf/lfQ+uEPIL60xE9/9hcWwHnwYQillr4+VYqbhhdAY8UD28V1Ay8trsTfV95xm/fwp0278jyckE/8ow2YHtLruCfB+MJDapPMPjMgpiTt5Jz2D/d96mc6KZ1ln9UqW/kibT8wfTbx4bmRQacvvvKLi+HdmM4EX9xgixsD69REQI1wnRuk/UyDDh5h8shNPAIYOWxxYQroPvXx/w3Gx6bghPfWl5ZL48bysWakE677bT9dGB5l6Nnz2MG/gOMvfd3/7NdqnNVeyoVWew0drkNqPzQNUkzl2bQ1+6PIqhOX7IynRyYdGwMmGQaP2tGUT9Ckodu3enmw/b0z8PJfPU4dn5SgRGEoukSSyeU0SCPRgbO+jnNZPwqVgpUQasrFkgOAmaHSHqlZYafOVXy2lZsYH5u+4H27/qBxzS98ardH7J3tTpeKZVvMaZEHRxMVGOkI1rjiBWYXB2tDah3GA53BmcVEySgkRwhE07B9u/G6T8GlF98IJxfKCNCBgBwXw+A+mO8qOiRteOmZP4LFE89CrURgITmk0lALK+SnOxjWboOpPpLo5PCr8+ohaL/4Ixi/dGdYRe0L7eOfIcAPcuuKAY8OvpZn24Y/ZmrbVGzpuednhXOoPSnIYqukLeYEdOzhZ6Zap00HQ48urxgYEKqkYw1bq3QG/vBZNIrxkUbz//fumdvl9WcaYSYrUX+QXdoYNnQmX8djJN4ukF8MLIMjUb8x/zw6wXqKYgLpuPgGNUwDoaL3XW2a3AG7rv9U6DuY8+CESm2XvTMjhhfi4MQYePei02vPOXjh+/8E2suHYNBGK/hgyB5uArT1c1Q3kGKqu1BLOLANs+8sMbrHX4Wj//5fQrlwEspuH8rwbvcQvC1dlCrR7AdzH99hRjNB/vvRVjey6WUfuhXGtk/ZtnXS7rYn6e3LRjVRN6gJxuwR41pWFrDKQSojrMSzlRxiQeVBH3xsx1sNH7S/raj87Fl6DLc2G5tuUUlJUMZWyMBmNI6DHIhynqk5Gu1ir4X8IioA0a4EWa2QmggZTDdd98moMQ+/6juuRAIkyq1CRQZSn1vpZ2/8vHm/OwcHPXP22nNcVKVxbWSwwMEhf1xZGpnyPYveAAyA9JSsWkv9xZNwzIMU235e3zs/VbsdQRmBGjRoRW1WYdSl4a/vv7+02ILG+Dhc+5k7HDU82KGBrCVBbkYAmVfCjDCcdhXyN20XA3wAK2iyUWCwVVnNaocJnxPz6HlNXVblFUW71dollCtIBDCOAipUwXrh6h2DARVXGxW0TChUW1crtOk+A3in+XLetiybJ7bBVTMfhLk5Px0ZPPYATBSahsLUO27z05RVdzmy6MEf/gvodgicluuzEq2CLtDTdK91dVDLXT8Xa98d5GhfJUWQftmD1Duy1UrL6+YqxM6SxfAxKUeOUwQugbTlp3SP+uPPueEa2PaeGTbozlxQH09UJdBk5leKzyAVEiFLi5lzBEI0DDYw3+Up2CIFBPzKsnwODZUKuv3eTNHr9ac1zoOZaTYnpS8JcWzME8YcirhlMwfSxbaTBWECWlPQgZRGfa0gJob2/uv/Kx+/RJif7yUQYipf8OQ5CM8zhuGv8lOXAaSHXvoqtFYO1y425DtCDh6UOtROwQxrukW/i9mHep5csVXKYX4Hc7/wN9+MwCy9Q4vEomF5QAx4lGzqQbz7Y62ejwVXcOXtewRQYsVSnyn1E+ZIXkU3QAdQVrDYCE7AbpgnSYLsFTmcsfXus0ydYqBuXXvd/o2Fnw6cBosFc3AdPAxEffcj8KmE+mwkZElCY0RxTs2Cq1GIFkVpn0sUt2/ZtMNdfXliT27fNF3NWhOMufWH9LvRITpx7Ak4euSv8oLhaiW229HI9+G0Z7NxQ7JkVVv/zyJbhjbCUGZf+t53YOm73/EzsT7a4DVp5JMqATJ8L0zoKXyGeYojy12YvvIKz6JX2DFEbGmvlOgXrVkXW5jp1iTppbQMRsaC1MI5YWnUmmjTOYaks16e5IfeUJRYhJe4prJkxhTqcVTiPL7lw2m7cSwz/etUnyqC1dwJytJMC/AhasoBjTlIFeGsaITCLdcl9lxe7gtjptYAAau58xfK3pIfjXNw+Cf/EerAMhWkq62yD+sHcqUdGHMwSJADjEuXkQgJMzMdNez6BlqBRYPT1F9ZSVF7D0THWrQiwJLjVPnfCx7IS17PXXjLLi5U7KMK+c110v6syaTCtvxSI8KJJU9hYu1+V6+z6V800sZIDmQXgs8PLzCbKSrWH3bgW8DonzMmImNpuQjXN9ocNv1ZVMlZVubutB4g5r0rncnX3brpHLh25gMwP9cFe6eEWXOR2oDLHVYk+enbAM5udy4vb448c90hydX2WcAKy7rBDIbE5xIOcMglXA3d2c6YwkLouUf/zNu/vo+V9olBIS3Nsp9J3kU9enSlC+f+zHUwMjFuJ7AMR+er4LUsmE0JJsbn3mL+kREotIUZQJJ2lSkkUx/T27VxnD76/b4LAHXZaZhdQAsCxnQKZ+KwFpbbOig4rBVBMe1GhILVZ9l1kf9B1TwXnXOVDyshLC32Sa3XrDDmTNr3jtHcyWfg6PEnYPVk67oKYGtjkepbw3l9wCLU2RVqV3DZ1WsDBzPTKqn9k4P+7yWoWq3U3BGY/mtZY1Ji06VuCd3GiGfRm4DeIwpWyoFaPeqn+BZpKh6mc+hJHYF8hHOY2BAN1LMCM1KS4S04/GTeUM39S1yss5ipDYKJ51XzIK3hIPOuWKpI0xGxKeFLZblgqDpVhI4TM5IZMkMlvMpCu45WkogRgWsv/wAseMeoQVMidXNub02PPVT14OBLX5HyDYFgLVnUAZzu6Ow0MKdQwWXDKrGlYWDNsoBs3BKpASw+8Q2vRXspvEYhp3h0ZXQpmf7Q5XOdvvfor81jkCLXDGM4cCK/6EiZN89BDZXpYZKNehbmVVdQMn5R7rO3llmmKH3qex0X1vQcxGxMgSDN8eIXQqUwaCpUfteVoUEQPaGlrJsErlS8iPG6UDUoSJfQKNvqA/MXbrsKlhb6qTyoQzQLzGO6RSLEPRcWX/Bzu3PJAtBANLDJkstKCgYiqySsfbeoIpOmx3ELY+37YHZ1gtYW1NXH3cOJRcsWx0Xj/EMM4HPoydH28HuhU8LWnTuhOT4mdilliwlCHOkHJRWRm2QJzEAhs23n7LShEvCyS2ROPM9WUUtnzg5h0dE1DxYlyhXZz5CLRS1pWsv4dFmBeC/3CdO8KgFuh3hhOwkrXiObijS15sAwuBx+yblXQ6dd8W1ExiFyCk7+HcyUn2d/6dDXwVZ+WKpDxQ3dWz9qeF7ZKe4Uh8sowfyzNjzyU6yBccSifZlRCvWOYafwZnNi0cKDM0zChdDpCR92uuD974/LteOiIO5Hw2HpKkaaDiuL0z7GzHwynyXZYPlSrHLk0gq1nYiY0AKFrulgPvT1UyByj0YMo0tGCArQuCWZ0o3RNEMEsq0y7pKWhIqm1nKuQi0vYq1z03HvuWgXLC/0M7ZM7Emm3kHG8q3Wa3By6YWsYfVaKN+GMeow+Fk2g1V5+AwyQVgFsKfIi66r5OxZ9MhBwOUl4xylUFMKPxkdWqZp0QWvRaffszMHk9GgLjEpQdWsaNPBQ7Ys9WxtwLNznYqp13AgWEnHMRnRWUxuputSx/oLzIfhNYtQn2cVM4u2EGbEAQjLovR3pe9l14g6ol0Vr2tFMhVqqZKyq9REcLpw+r2eQUvDnFZzYubNY9mFE/PPDAeDJSuEDKRsVh3kAwjMtlxknQFQV0tyoVpeuBpbY1ad8Ln4/W9HLSpgjIDMgZnMvotPTNlyxc54IbliLXRgpEQsTJUtvcz0K/eZE/Pv+P90sFhSx0t+lHWFsVCtMjIxCR/i0yFSc1ARjtr2hiaUcVy9udLGbBSgVizBUeKaPP5AwQ2kbeU6pt8dmCjAuVOX+HDRuNGZAJn2BBAmjdmUPTh28tm8j+u9C2AwoYyqux3kLH8q828BXf88RcpwOGwk2W1u4Jjuqwe9lKkSY5KpZzZNp6fvLAOWsAnj27YBoSAP+5nKZ5aRKTt1mAMYIK10SFWhSEHQ25fFAQJdWa8V0v4DziOeG3H0YujPA0C6kBiCUaIrTNAWh2mHax+sQTXQrs6C0CoZKmx8BpBmjTAoxLM05R2kzkqZAbIgvap3cTiZTep1l2Bu8QXTDLVm0QrnyEOA1YDnwEJ4tTTQ/nBKoLpTnJ79pvLYyID/63gzX60sS0gp6M6IqCw2qsy6Esz8zp3WNLL805V1DmzfmL5my2bL5DgTAPX00w76SifEnlcoGJmhbRrpNl4t4KMqny5GAGb9sXPIohKs656pSc2Ty5XQRNIFTdeKPuDvILjXxT7OqE6a/+UjORetwHnTl0KnVWYMGgtaoQnW67Tn4sohGOzkvK8l1UFSOy9zTsCtengmm2sgH5qx/XqqMmafgyOq85MXkhlnFi2dhJj4k838kjfznkFdZoqpjyrUSRs03aFFSQE/lXppt8E6QQKtBk07nEx9Qi4psVZhvimycke+/x8OFPOzT4VbFZ8GY6oh050R1UzROR/ThVJknqfPpNJ8VVtZkdmmfWUiicaiXactp26fuCR6pwWmEBJ78g1qablLk/KZW/qRqUPe+wMcuBpIeLM1q6g6LccQwmrcidk3hDNi1oFCQG0gaf/3F+eAJu/S5vhdTT1Wujyv76eIi83TYNSgTII4EKmIztllE1z1CmqWNhJU1hJaTodyBQSjH1hUpewNIzOmo3VFPBC2xX719dkvISW6AKlXMDrFUKSQIgJm3KIAx5pg5qzFiFAmTL4yMnmxQxqlpBOgCROZ1tQYqNGjoE7TwvJPqL1wgNlkmQ5mO7gSOY4MMFBHkZxkf+qpmF17kHEtbC3MT5PqZEMZ944diqwZdSbFP62JL2RRCURclJumgMmCl9hpadJTA8JMkmVGEBBIfztUi000a3iIDSgAzyjyBYGPpJ9O+JkWOkOcrXIPhW0RoGMAD6nniAMEw1mmDqi4SAQqyEBr0YoMVtpBQpqPcphWybusA7gcBhThoE3N7ZCtlIdg2lEAGReNSMuFp9e1wAKoDgTMtpuEp4DLECzlThRKBtzketrwXGXWcOhoWaUMnDUz6NwRGqiFMKYsZq4so0Lc3tia3l6cwKn9KQg09cn70OzBChVaNiCZWDV5B8bplsqiwNNyAagnH8+HRuNA2BwBSmb+AJGmE++ci5NMcjavbjzwSP0oA8aMHQSuIDJVUsBB722RCqOuKTVqlCvYxDGa3tRAvMwaoTJn/O6PS7NHinnTn1QmZTg12NyOciDoAARYhQ5hlREt+5zJFYecPfz78KOzXVSpstcmIKI4RcKkmVeftvV6tfYFnhRiTweEI9gRB8j9m3DDHYcCWRfktScaBeZKjRigHcTG+Un7qnDcgSNPPTwbfhd8UQ+xP43sJq1pVRYvAAHDxlx4AZYsWHG6rsWa9PgZ7y2iHBjUIroTUKk+Mrbi9UeLiTgQkiYx065aM1MZhJXOiYxtuAWklWVo6E8ZYOa/mkW3KB/+G2on8Pg0bDQMhrkZgVNcyJ6YtpVL82TW7cr6xJyuKjQ2SvHRYss2QFah9F90kEwfIJc69RcZUQ1Oh2+0+ANI+jjLvtSRDBk1EwhyCw9NBjjWwNLvDh/ibKRPx6DY58+bjwsJpXi2HZDfVCwNXyXdKtRA/jhXhokRDdjrj/Zz9fZOcHYu6xJ/StmrZEoze2Cxc2LqGaSF5IwDyGRzAjhYAOuf18kyg9UQrAxkxsc5Y/+ABJnZjTCUlAeyyc8YPJNXNDlmUArQy1I8AnDw9LtdXqlknAQOxVDHO/UT2HPigLsDsPdtoHV0nGFEN7BAxiWQk0KlGol2xOiEIc4e/d7X9/EpAtBg5v0xD8ZRUqmNZVuOplPlesygtq1QnJ7YQs6QHICEGWojgAc06oWYdVhul5WElSxISZNkK5qMhTXlQv0zpgDM7mFQAGFSJYGBVCc9/s6DokYsbDdAGHU1xJ8uGbAaE17x8/VJe7LTxCa/7FfANtlIP7mdmBgxbFYcmrKD1AF0tZmSkAI4MbMtp7PrSxnwNAEZC1cZ9gypsD9Gofi8P/4kqLh1fAswR3GzLuTBlvW3MmwmRkGMRjwH0Qhm9eRSqCsjh3RO2S9pvt0G5iFf0cQZ14FSt+84BBBOD3W10/mb1awWvllCGASsG7yW7HeQ5aPQxVVPr/O+5EUOUcG3Ipv5eLtutOyVwHLDeNFO5BUVp9axtSLI6JMeZ4lnHJDMe+JTKyYjlXtADvNss1/ts5fJABqdJawejJdIU05A/hFNU8YHriirpQJixghkHbjNsg6Tb2z2+RjTo+LRSNnj5qXu8dq0JuRL7IAcJkjAndp0LgykeluzZULMQJyXSU/Nuyv9OiWzwkD9B7fZqtc2ulVOz7cgTEydk4eWYtDemHsJ2NOyvHYHaDWTsehoBzDHMA3bA9jH1aifANJ+wqaomDT+T75QnciIcAXxUW4IDx157sCsrWlRr/po0fy8z2IWeO5ceCVd3pjC/KY3RKNQU8GccCOLX3KumNzzAhvBqhWPd6QEIGAZa55eO6RO0sCikVQwGB/dBGeULBBtg5vkhn63DKqx1VOZ6yxbNyTjOhkj1vTqcKhObD03xUDZrNtpTnaexMR7xe6nRulom72SAi13zJlF6dDGLjPvHdVKGgPI5l+jNmxZGUvxkT04e+yZr99fr98AQAOLNhx+Nv6oKm4VA0zbMab0NsaVCpnIr+LFIE5WKDEbAwPYaHMnFlvgH7ctdI7ruk+wYSaQ8WPXhZ7vp0bfUMIBlAijKuPDEPNr+S8HL9YYkXYqLQ+UQTO3EsnuQmNhmmOT4sXzQx1Yb6ZFIhAfOgbkzZcLJ1hDcm7ZbT8SaTFtwO2CUv1c8OWHi+uiJUVDeDR3HMOTtI6jgcW9w/Iqhm1cmv3+AV/i9MpkinE6N7Qo3PgOMudI92b/OnUb5OzkkDlTN1Bm1rTQOQr8CJuCLqgs6vRmOUg6dcfmy8B27BtKNblR17JY++PERt/RLysDXH6QZjRw7VW2g3Sy7J7Yfmn6wbFQ1pvsHFXkkLMGbbXIUEUhyADibfa2kOFARQpLSc9RYWlA1c539nw0bCS/AT//2rP/ceh75IcCNKSRovGAv9IspIf/2OfsmE8dDMDhT8TBYU6i2GVVMf0HTIOQ2xYjc4MGlfgnm3hmUTrWLhqZmjwH3pJUBwkOB7xb5bQ6iwpTIZz6s57ZKmANafMFVxsvvlCPPXOOyMz7v/7xQy7toaKnptcnjai0czhM90i4SRaWcBfLUKQ6m1s/0g69mbKK2tPvnC1X4H5YJa0K0GDqK9fbE77GnKv0DnFrWmTKQd5Ex4BiE5GJGRXJKOEKBS3qWIRMtKcty35mqMJePmMEdtGIxkhDZhdtvWagToMabjjYzigZNslyMu1jMedq5bCm+1S6NduFw3YjbN5+ObEjitZkBnXZNCfER4yXJ48aEHLObLVkAMVDnE6eq93QZ7ca18P0K5g6swYV4oxW0/8uQzHnPao+PD97YNVnq68K0JDas8/NViV8RkDIL6QCGmWGqQEtteQzs6D947JDGLTWPEgjOalwaKfDKy+k17bgkFX0gMQa3JIOmjAOl593HZeWWkphgwOweR1piE6t1Yvll7D76YgRM6Bi7fcqJ/m04+LrfEx+wmhQEMbUqU4Qdg0ArZbpBRrEeiDujx1S6eTsFmFQPkQdndmiEfuPUG+SiIk5w+vLfaA2Cp++++x8zWuvp1MCNKT2K98/4C90L2uxkLkpC2kWNdmsV1G/8wjKWpcWKSA1VFZDHt0MofC31JuDlmdRJtUIVIpp5Lcdp0UjZQ9g5txra7XRhnZDtr3uZIedsYRoVUrcr+TjVs2KQ8AIVreumuhyF1z5flhuV+qlVyp92EFCs3AZWsvQm38VqFiiFmkxPGdMoEokomTDLAvchJFFjH/Co1MYNVUlhSmrCM6K3vNZ3Xv8bw/sh9Ok0wI0pNZLP3jQD6T7OXQUmRSBBS6odqmUWQ3VC7WrxtHXdyfhQnG3NMMh04E183lo+YX4pjdeA1r35G24qbtSwq1X35GdPwhFBFxlzxmlgYxr59eAmz4w262H0ZAUDjqzGOt5l98C8cUsZmEIP5KRwRkGbdze70PnyIs2xg5orsfGjh0lO9Cyi+alcrnfY0AcihTihBVpD/Lg/CEPnHj2Gw/CGaQzAmhI7Vee8U4T/n0ZHFUKriYtqiEHp5PNbKd5u3h3RPUxo3gmzeXSafqIHQC0YD/SehH64YUHFWReu2hP0GnQyAj9Mbg8sqiFJGTfB3lKmd7qxDeVsIZk1uG2HOyxuHppc8fD5rPj4msBR3f4NqlkWV0csLx6ydzuEX3dThu6R/62Zs0UXEBePYjjg1JMY+d5AQm74GBXpSWvw9xWTE+REOC66t4Tz/3l/XCG6YwBGlLrpWcfdND4jL/MfCxfomzAXDRzA1i6l+gC/RFrQip0diOW+JasR6VhfnTyCT8l3wEnQMR80YiwaapYt1XBnht+OQ0o4QcDSmp9fF34ex0H1w+1sbpa3M6SsDiOMDigLJ++95ZfgYXwALXwoAaue6W6U0w+ATcwaO/4wQxskI9RMdumVRzLOMOozhybWUgKCETtWnk5iBURjgu3EOOeE8/+1RkxJ6fXBdCQVl7+3n4sypt80WZFEKaAaxxutA7DDj6pDJpK6+A1I5Owqz4fcn/Fb51yBQ8t/Rj6ZTeFnNDpohGziIS3Lc/3vQ69DmaMs6T6FmXGxJ1C7ilI+FvmD7y+ZHHBGKj/ORhqVOvbJracA+dccB0sp5Cm8dzT9zgfTyuaInt2O9A7+iKUK/yGQW5s6QOsVdIxIyoIASzZDimZM8SV1v4lEzuL2Lzp2HPfPACvM71ugIYUvPuxYvQmX3EK5scS26kucifByEj20JVPgRvCgZ7nxPI7EP9Lee7g8rNQlm1xkBiU6ZMABymgHyxNt1XCnut/GaSc9CnLF4eAk8aOpYkBs5tnWP/+JlJNs9Ypnr9d/4E7YcU7Rz2vP8EutYt8gWZqE2j+fcXLtKc1QzIoasXEG3egHQk52WaD2WU+EyYfIjrRZgWTv8Dnsd246XTe+mrpDQE0pBAnbb38g3t9KT8T2ZRwRw+mBHXucGglnQnQG9OB8oGiZ/jE2Jg/nH8cWr2F+CZiO+WZaVJUJl2c68FOz6BXnHtdVn40ABB2MDIgLo80xw0j2ZxZ861vLlmQYl2YwmVX3QYXeufoKD1dmiJCwpxgmDSa/F4nPoKyF96clxJZMyUN+k7X5js2zMAwTpB5Ah2SKfffSpq2FLk26xGw58QPv3nPqeKcp0sNeJOpt3Dsuf7Jo59vTp8blMeML9qUs8FA5IZw5mkW/Bo9hoI4jmJQyNNSuZhqHl5c6LaNnQfbR8+DkcY432YFfLCrKarwFu3RiQLec9H18OSLfwn98L53m/MpzLseI05pZuRPdeqZHnFGWRBmQntObjkPbr7tf/IT8JPwqh982dAwdKgN4c17ewHah5+E1qGnsuWYkFcnZsF9M2QfRYuYZSuympVjR5cc5HCvze9Bd/Sz88//5XPwJtObBignD9IDzW3n/GkBzZN+fM74TdO0K1XI6m7U0YvAQtWZe6HQxgIQzErusKVbttxVW3d5M9/0fw0Ac2jKKQdGuNX2nB1T0GiMwPNHnoYzTgb43J3CrmmErcqsw3o/y/QNpvd98E4412vPw8d70O0nKeMMGFOZzDW8HAqPP5//7p94J6ldK5eu9dUMpBYUb0J9tA3y7aGmHyU0Ayf9P/+XB+Z/M//jbzzcnp9tw1uQ3jKAhtSfPzbfO/nagcioUzsO+sabRihnzJNFgR+7hmlxIqZl/uF3Gdw9RzfOYHx+dUUPGKpoGQ4du+jn5S/etBM2NbcmFhWX3w0waEjhceGj4w244vyrfLB/GV4+9kMqC1B5AFZ1WkiOOetg0W+7P8+LOvE0+UZJgiZufMo/gKtu+ARcdeNe77mXcDw8wLdmMgaERoBTZ8Ez53dg+ZXvYGjLqkw3J6H/rKq+b/4yLLHH8EpIP1XnsAzb+i5NyITl92XSlf64EP9OZpxiV+k+50f9989Db/KzbyUwa1349qXxC66ZgUa523vZd/oa7U61zlxhV2OaFKFGMil2F+oNeRdteg98Zuf/Et8PP+LNXYRM8iHjQRVpN5brrungvEsnYm7/z5//NhyeexFOW31LN2i2gdk+cNCZN6nNqp6TXiL92rbjCvjor/x+ZM2Dr3Xim5zFFUk2J9aZf4c3Ifd7y541V+DIN/4R9FdOJLczu4xcSefcU0HShAxLBpmOj80fnqP+tN/mrSXsozuC37b0tgO0nsYvmNnta3qjr9yMb4VdfiBO+6aY9i0zkwHB9A/hVRIrwk9c8Ruwc+pGmBz3WXhzn24Fc2DXR6D5vnl6BLbuGI0s+k8f/l9hbum14YXMy7H6dlkLAwasb33a5HXnR/7OP4LJzefCoRM9mPexz1Qvx4+jl5lMqa9v2LJ9HJYOPQZzP/hjdQrZ4ZJ2RVVGwhVhcBezMXRXuKf8b+/wjByEojwwAiOzbzcobfqpA/StTP/g9q/N9KvqSVcU05Nj22KHcceFT3kqNipIp3aMwabpJix3Fxe/+Oj/+eVDcy8swRpO23fs3PzhO/73T42Nb90azPpr812pTxIIaeKIBVSgwtKDs9+ZxxQBaex8bt+eWThL01uqQX/a6ZvP//H8L1z5306QdPB6dDTToWnpBRECbet1KpiYbMDY2PjY9Zf+/Myr8wcPH196tQVrMF10yU3bf/GO+/aOjkxuavcQDx3tJOlTsOkPyxydeb528jur/ooLYbjC4f/x7L6PnHZBxlpOZzWDcvrtj/3Zk0EujI5sgmYj6czKGdfMsdlLn2ER6XmXjEMxUsTf3/rbP/vWV5586HuwhtLP//yv33DNDZ8KwdvpoDdferUNHQ/SMBsRHyCSJAXS1AZZCxcfO1l63en16OwzD33sCjjLUxPWQSqK4jOlN/Xd3vJ0DD35cFJ8yjKkpxHy/DxNw8aFJMcOtWHHRePQ8CD9wHs/+YHztl624+Hv/vHj77TJ3zS5ffTWW3/j/ZfP/NzPBHUYXmX4yqudECoLb7wQrzGYvoqe+JJ4M0xtdhF7K2GW7WTTNffAOkhntYnnFE39e36t4zvp9gq70ChGfScV1ssa8F1DR7d9uGZsouEB7WD75vN3BJM/2hzrvvjaM8fhHUjvufJDF33sF3/njh07dsY7/jp+TuHlI23XL8m55tkLpFl7p4MumvbuAoXv4B8+/c8/8jCsg7QuTDyn3/nolx+sXHG3KxowMTblO6+ACpyaeYAUinEu8+6nzxmDyammxA5fPvGj2X//+P/71z8tNr1q54cuuul9v3Tz1LZLL8RE+Di32HfH/VRmP7nZQWvGJZ2hhDZKASZaUfn/+t35B57Y95H7YZ2kdQXQkH7n4199JDhN4GeYxke3hAAoe7yiRWNnUlSPf09sacKW7SNRl4YUtr968pVDjz7zpSe+e/Abh+BtSFd7YN78M7908/T0pRcx0EovP46f7OOJhV7kSAr5Oyk3zalFPV1Etx3ja5FSfQ489ge71oVp57TuAHr/7i9Nt0ZHHwlOU7B/4yNbvQkfzQL3dkmDAtZr2VEHW7eNRrCCAAJgpbO4+OLRZw4++8q3Z787++bAGkB5+QU/c+GVM//FDY3m2KjHl0vLYZy/TglHjvWwV1bOMrw4ewXNGMv24CTF8+PzEP0E3E1//c9uegrWUVp3AA0pxEd9Tz7iQTkTw08y28QxUkymn2pfD+yPb2rC1nNGogMl4AgHuvBg3F7nxPKrx1858ePDR068eLzVXewePfny4pG52UVbhvO3zWyZHJ8au+ica7afs/2ycyYnt2/eMX35hc3m6JgMjjTR6VbaiCdOdt1Kp4o3ZtL6YwGgBOUDOgsH7MWn/ZxXePAWzJ63Hfbs/92bZmGdpHUJ0JACSP288ZcCkwbgjTQnfJx0Mrj8mf7UDq5vczAyUURGDauhWO+BOQ5Az43nFU6Wu0B8WA/SWleHsiKO5578XOFyu4QT8z1caZcuA20w2ZUCVbQmpkWMdjsF62OZxscLd+kFY7NVUe3Z9w+vnYV1kNYtQEMK5r49NvaligL5UZdG56mRmXcFpp3DR9GtRTOx6pj/G58scrMLCczWWYkpWFwg810AmWYXFxm3PDBPLvShX0XdiOn2dSQ9SQ4R0MxQLAO6bGYMeFBoHDSU87ILx2FstAjHzeI6Aem6Biinf/CxL99fQXFffOiG700/MwMhqK9ThqvoUkigCq3ETwQILDkyVvjwVAFN/+l8iCqEqZojRZZHWOIX1gN1ulX4w26/cu0OJlAOu56dSIjmnB6xpGY+gbXAFKiPu+S2o1jGounAMyg0GmECws+fF3jWg/RdAdCQfvvjX7nH9/R9vkPTOlUfigomv9kcXzUElQMpMhmBSL3/SgCFWbQgW2kEUFttRMegODk1qZG0afDY+2XHzwy1sREiEkXheAapirxq846Xdg0P0kvO9yBtxlmys55J3zUADSno0oqcp/A7sVUjOlGNYkyWrQ1o0nBw5pxgtjCFwWmX91lWTOci5SeasQbMBDqOHvSrvmfdJVdWaeWSlyXYHJ8KdA0sGxjgBqTx2GYA6YVjfto3MWl1FjPpuwqgnPzc/f0eCvdZADoGamN8gD2ZIXU5H8dQk06V40BlQQJxBKR63zDAlMLCHJvtV35as2x7edATnRnjobGQvozj0xiZFOoamo4DASl6kLpg7v32s9ZxesM3zZ3N6ff+4pP3N1xxhY8bPkR+R7zpq9tbhFbnRPysqp6+kAHN3aMO9Y5S8lDqD9BN35NATGtT9LiBZ0sFIPe7fgZoCbr+2mV3MT63xzy570+rstrjj5sNK9j7nbl4P7ED0GcCxDzTrRlchl4f3StHulCWcb3nTFEVj9z1j5+dgbMsvSsZ1KZg9nvhsT4F3pk8cNaQGBkrBPnj3H5jJNOeWPP0JdxUY8hhzlfATFn1sF/1XL9qAz/DhNg3qlz/zwFv3B94+N/ecSCU6vZfDfLEPeL/ZsJUbnN82h9VDEQjRC4khnfB3F/sNWmzeXYy6bseoJzu8UD1XXq/7947KU5pgMor1xsQwFH4uJOLU6guboufRZFp1z7dLl2GGXLPfGX4CxMElWc1ficRRwc4fIQuvGllv4+KPvQVAqZNAaSlB6m/wAzUNCnfa1mimnrO32rSsw2kGwCtpQBUD5XdPo4egLq7fksFuEHvXIP1g4yaWNXp1Kk5F4CdJnzUA3x/WS4/tH//Z055OwUzKQaQFgGk0y4Mjiw2WwuTRU3q46OXnDcambQ6i0JQGwA9RUpghd2e0T7tcbTbg2/aeungoObxu3yGiR0pNA5RZORivirggN/6aKdq7TsdKOspgbTwIA33danjhDI5wJGCRKdJnYI39wVefMGoG2mePcH8DYC+jvT3PvFnu4poXnFXWTRu9NCLN/v5MI6PrQbwRlc7gtCDZJZkwmwVn7KBB31jz/a8tvyT/XfMwptMNSb1mnRK5Ia9uzOFwSCFpSCY+wIvOX/Ux0uLMAt1cK2DdAOgZ3FiJvUAZMcp3oY5fL2oSg8/64WXeCY9G0JQ78ow03pJD//JHbMejntcMNdVif32fHwYRnhuvw19FWAetBYcuF7lXj7iZ6jC6yXBg7tyazYEtcGg6yAl7z5pUmfMfWWW6/F3MNOsPnLmwrRoMy0rnMXe6E377r/ip3bP+5mkDQZdBykwacMzaZGYFPrtk3HilJ+AHVII5BdxRiL9hX1lD+MNeeFpNy4E80e6d8MaSxsAXSeJzX0RQkgepL32fLx9Nb6ih46h2SmUJ1FDmLRCePlwuDHPg7SqdsMaSxsAXUcpgRSZSb0mnXOJSeMbkON/Ba2BMhoVw9LAV460Xa/X2g1rLG0AdJ0ldZzwYHgCXT8xKTlJaSK1SCY+sqlLDyqBfreE48cXYa2lDYCuw5Q0KYq5DyAN95DY15mH6SQCbHhDG5TteVxa6q25G+42ALpOkzX3YRVUr33chZVS4T1TKdzkcdnv+Z/Lrtc6AeHZob1e9XlYY2kjzLTOk10FZefp0/Or4kpCXoE1+1f/6uNXwBpLGwy6zpMyKc7GRVfgdD1qlZYUeE06O4LVHliDaYNB30Xpo7/6tbuwKnys090Y74Vy7gBC+Si02w8eeJ0LVjbSRtpIG2kjbaSNtJHeRPrP5oaTD1ltQPwAAAAASUVORK5CYII=;" vertex="1" parent="1">
                    <mxGeometry x="440" y="410" width="50" height="50" as="geometry"/>
                </mxCell>
                <mxCell id="58" value="" style="edgeStyle=none;html=1;entryX=0;entryY=0.5;entryDx=0;entryDy=0;endArrow=none;endFill=0;" edge="1" parent="1" source="16" target="57">
                    <mxGeometry relative="1" as="geometry">
                        <mxPoint x="670" y="145" as="sourcePoint"/>
                        <mxPoint x="820" y="145" as="targetPoint"/>
                    </mxGeometry>
                </mxCell>
                <mxCell id="57" value="Action" style="shape=image;verticalLabelPosition=bottom;labelBackgroundColor=default;verticalAlign=top;aspect=fixed;imageAspect=0;image=data:image/svg+xml,PHN2ZyB4bWxucz0iaHR0cDovL3d3dy53My5vcmcvMjAwMC9zdmciIHJvbGU9InByZXNlbnRhdGlvbiIgZmlsbD0ibm9uZSIgdmlld0JveD0iMCAwIDMyIDMyIiBoZWlnaHQ9IjQwcHgiIHdpZHRoPSI0MHB4Ij48cGF0aCBmaWxsPSJ1cmwoI3BhaW50MF9saW5lYXJfMzUxMF8yNjA0NCkiIGQ9Ik0xMC41IDE5LjA5MDdWN0g4LjVWMTkuMDkwN0M1LjkzOTg4IDE5LjU2MDkgNCAyMS44MDM5IDQgMjQuNUM0IDI3LjUzNzYgNi40NjI0MyAzMCA5LjUgMzBDMTIuNTM3NiAzMCAxNSAyNy41Mzc2IDE1IDI0LjVDMTUgMjEuODAzOSAxMy4wNjAxIDE5LjU2MDkgMTAuNSAxOS4wOTA3WiIgY2xpcC1ydWxlPSJldmVub2RkIiBmaWxsLXJ1bGU9ImV2ZW5vZGQiLz48cGF0aCBmaWxsPSJ1cmwoI3BhaW50MV9saW5lYXJfMzUxMF8yNjA0NCkiIGQ9Ik0xMC41IDE5LjA5MDdWN0g4LjVWMTkuMDkwN0M1LjkzOTg4IDE5LjU2MDkgNCAyMS44MDM5IDQgMjQuNUM0IDI3LjUzNzYgNi40NjI0MyAzMCA5LjUgMzBDMTIuNTM3NiAzMCAxNSAyNy41Mzc2IDE1IDI0LjVDMTUgMjEuODAzOSAxMy4wNjAxIDE5LjU2MDkgMTAuNSAxOS4wOTA3WiIgY2xpcC1ydWxlPSJldmVub2RkIiBmaWxsLXJ1bGU9ImV2ZW5vZGQiLz48cGF0aCBmaWxsPSJibGFjayIgZD0iTTQuMDA1NTggMjQuMjVDNC4wMDE4NyAyNC4zMzI5IDQgMjQuNDE2MiA0IDI0LjVDNCAyNy41Mzc2IDYuNDYyNDMgMzAgOS41IDMwQzEyLjUzNzYgMzAgMTUgMjcuNTM3NiAxNSAyNC41QzE1IDI0LjQxNjIgMTQuOTk4MSAyNC4zMzI5IDE0Ljk5NDQgMjQuMjVDMTQuODYzNyAyNy4xNzE1IDEyLjQ1MzggMjkuNSA5LjUgMjkuNUM2LjU0NjIyIDI5LjUgNC4xMzYyOCAyNy4xNzE1IDQuMDA1NTggMjQuMjVaIiBjbGlwLXJ1bGU9ImV2ZW5vZGQiIGZpbGwtcnVsZT0iZXZlbm9kZCIgb3BhY2l0eT0iMC4zIi8+PHBhdGggZmlsbD0id2hpdGUiIGQ9Ik0xMC41IDdWNy41SDguNVY3SDEwLjVaTTguNSAxOS4wOTA3QzUuOTM5ODggMTkuNTYwOSA0IDIxLjgwMzkgNCAyNC41QzQgMjQuNTgzOCA0LjAwMTg3IDI0LjY2NzEgNC4wMDU1OCAyNC43NUM0LjEyMTE3IDIyLjE2NjIgNi4wMTk0NCAyMC4wNDYzIDguNSAxOS41OTA3VjE5LjA5MDdaTTE0Ljk5NDQgMjQuNzVDMTQuOTk4MSAyNC42NjcxIDE1IDI0LjU4MzggMTUgMjQuNUMxNSAyMS44MDM5IDEzLjA2MDEgMTkuNTYwOSAxMC41IDE5LjA5MDdWMTkuNTkwN0MxMi45ODA2IDIwLjA0NjMgMTQuODc4OCAyMi4xNjYyIDE0Ljk5NDQgMjQuNzVaIiBjbGlwLXJ1bGU9ImV2ZW5vZGQiIGZpbGwtcnVsZT0iZXZlbm9kZCIgb3BhY2l0eT0iMC4xIi8+PGNpcmNsZSBmaWxsPSIjRjRGM0Y1IiByPSIyLjc1IiBjeT0iNy41IiBjeD0iOS41Ii8+PHBhdGggZmlsbD0idXJsKCNwYWludDJfbGluZWFyXzM1MTBfMjYwNDQpIiBkPSJNNi41IDJDNS4xMTkyOSAyIDQgMy4xMTkyOSA0IDQuNVYxMC41QzQgMTEuODgwNyA1LjExOTI5IDEzIDYuNSAxM0g4LjVWMTMuNUM4LjUgMTUuNDMzIDEwLjA2NyAxNyAxMiAxN0gyMEMyMC44Mjg0IDE3IDIxLjUgMTcuNjcxNiAyMS41IDE4LjVWMTkuMDkwN0MxOC45Mzk5IDE5LjU2MDkgMTcgMjEuODAzOSAxNyAyNC41QzE3IDI3LjUzNzYgMTkuNDYyNCAzMCAyMi41IDMwQzI1LjUzNzYgMzAgMjggMjcuNTM3NiAyOCAyNC41QzI4IDIxLjgwMzkgMjYuMDYwMSAxOS41NjA5IDIzLjUgMTkuMDkwN1YxOC41QzIzLjUgMTYuNTY3IDIxLjkzMyAxNSAyMCAxNUgxMkMxMS4xNzE2IDE1IDEwLjUgMTQuMzI4NCAxMC41IDEzLjVWMTNIMTIuNUMxMy44ODA3IDEzIDE1IDExLjg4MDcgMTUgMTAuNVY0LjVDMTUgMy4xMTkyOSAxMy44ODA3IDIgMTIuNSAySDYuNVoiIGNsaXAtcnVsZT0iZXZlbm9kZCIgZmlsbC1ydWxlPSJldmVub2RkIi8+PHBhdGggZmlsbD0iYmxhY2siIGQ9Ik00IDEwVjEwLjVDNCAxMS44ODA3IDUuMTE5MjkgMTMgNi41IDEzSDguNVYxMy41QzguNSAxNS40MzMgMTAuMDY3IDE3IDEyIDE3SDIwQzIwLjgyODQgMTcgMjEuNSAxNy42NzE2IDIxLjUgMTguNVYxOEMyMS41IDE3LjE3MTYgMjAuODI4NCAxNi41IDIwIDE2LjVIMTJDMTAuMDY3IDE2LjUgOC41IDE0LjkzMyA4LjUgMTNWMTIuNUg2LjVDNS4xMTkyOSAxMi41IDQgMTEuMzgwNyA0IDEwWk0xNy4wMDU2IDI0LjI1QzE3LjAwMTkgMjQuMzMyOSAxNyAyNC40MTYyIDE3IDI0LjVDMTcgMjcuNTM3NiAxOS40NjI0IDMwIDIyLjUgMzBDMjUuNTM3NiAzMCAyOCAyNy41Mzc2IDI4IDI0LjVDMjggMjQuNDE2MiAyNy45OTgxIDI0LjMzMjkgMjcuOTk0NCAyNC4yNUMyNy44NjM3IDI3LjE3MTUgMjUuNDUzOCAyOS41IDIyLjUgMjkuNUMxOS41NDYyIDI5LjUgMTcuMTM2MyAyNy4xNzE1IDE3LjAwNTYgMjQuMjVaTTEwLjUgMTNIMTIuNUMxMy44ODA3IDEzIDE1IDExLjg4MDcgMTUgMTAuNVYxMEMxNSAxMS4zODA3IDEzLjg4MDcgMTIuNSAxMi41IDEyLjVIMTAuNVYxM1oiIGNsaXAtcnVsZT0iZXZlbm9kZCIgZmlsbC1ydWxlPSJldmVub2RkIiBvcGFjaXR5PSIwLjIiLz48cGF0aCBmaWxsPSJ3aGl0ZSIgZD0iTTQgNC41QzQgMy4xMTkyOSA1LjExOTI5IDIgNi41IDJIMTIuNUMxMy44ODA3IDIgMTUgMy4xMTkyOSAxNSA0LjVWNUMxNSAzLjYxOTI5IDEzLjg4MDcgMi41IDEyLjUgMi41SDYuNUM1LjExOTI5IDIuNSA0IDMuNjE5MjkgNCA1VjQuNVpNMjEuNSAxOS4wOTA3QzE4LjkzOTkgMTkuNTYwOSAxNyAyMS44MDM5IDE3IDI0LjVDMTcgMjQuNTgzOCAxNy4wMDE5IDI0LjY2NzEgMTcuMDA1NiAyNC43NUMxNy4xMjEyIDIyLjE2NjIgMTkuMDE5NCAyMC4wNDYzIDIxLjUgMTkuNTkwN1YxOS4wOTA3Wk0yNy45OTQ0IDI0Ljc1QzI3Ljk5ODEgMjQuNjY3MSAyOCAyNC41ODM4IDI4IDI0LjVDMjggMjEuODAzOSAyNi4wNjAxIDE5LjU2MDkgMjMuNSAxOS4wOTA3VjE5LjU5MDdDMjUuOTgwNiAyMC4wNDYzIDI3Ljg3ODggMjIuMTY2MiAyNy45OTQ0IDI0Ljc1Wk0yMy41IDE5VjE4LjVDMjMuNSAxNi41NjcgMjEuOTMzIDE1IDIwIDE1SDEyQzExLjE3MTYgMTUgMTAuNSAxNC4zMjg0IDEwLjUgMTMuNVYxNEMxMC41IDE0LjgyODQgMTEuMTcxNiAxNS41IDEyIDE1LjVIMjBDMjEuOTMzIDE1LjUgMjMuNSAxNy4wNjcgMjMuNSAxOVoiIGNsaXAtcnVsZT0iZXZlbm9kZCIgZmlsbC1ydWxlPSJldmVub2RkIiBvcGFjaXR5PSIwLjMiLz48Y2lyY2xlIGZpbGw9IiMwMDc4RDQiIHI9IjIuNSIgY3k9IjcuNSIgY3g9IjkuNSIvPjxwYXRoIGZpbGw9ImJsYWNrIiBkPSJNMTEuOTg3NyA3Ljc1QzExLjk5NTggNy42Njc3NyAxMiA3LjU4NDM3IDEyIDcuNUMxMiA2LjExOTI5IDEwLjg4MDcgNSA5LjUgNUM4LjExOTI5IDUgNyA2LjExOTI5IDcgNy41QzcgNy41ODQzNyA3LjAwNDE4IDcuNjY3NzcgNy4wMTIzNCA3Ljc1QzcuMTM3NzcgNi40ODY2NyA4LjIwMzY2IDUuNSA5LjUgNS41QzEwLjc5NjMgNS41IDExLjg2MjIgNi40ODY2NyAxMS45ODc3IDcuNzVaIiBjbGlwLXJ1bGU9ImV2ZW5vZGQiIGZpbGwtcnVsZT0iZXZlbm9kZCIgb3BhY2l0eT0iMC4yIi8+PGRlZnM+PGxpbmVhckdyYWRpZW50IGdyYWRpZW50VW5pdHM9InVzZXJTcGFjZU9uVXNlIiB5Mj0iMjEuMzMyMyIgeDI9Ii0yLjg3NTI1IiB5MT0iNS4yNTQ0NiIgeDE9IjE0LjMxMjUiIGlkPSJwYWludDBfbGluZWFyXzM1MTBfMjYwNDQiPjxzdG9wIHN0b3AtY29sb3I9IiMyQTQ0NkYiLz48c3RvcCBzdG9wLWNvbG9yPSIjMDkxRjJDIiBvZmZzZXQ9IjEiLz48L2xpbmVhckdyYWRpZW50PjxsaW5lYXJHcmFkaWVudCBncmFkaWVudFVuaXRzPSJ1c2VyU3BhY2VPblVzZSIgeTI9IjMwIiB4Mj0iOS41IiB5MT0iNyIgeDE9IjkuNSIgaWQ9InBhaW50MV9saW5lYXJfMzUxMF8yNjA0NCI+PHN0b3Agc3RvcC1vcGFjaXR5PSIwLjYiIG9mZnNldD0iMC4yMDc2OCIvPjxzdG9wIHN0b3Atb3BhY2l0eT0iMCIgb2Zmc2V0PSIwLjUwMzQ0NCIvPjwvbGluZWFyR3JhZGllbnQ+PGxpbmVhckdyYWRpZW50IGdyYWRpZW50VW5pdHM9InVzZXJTcGFjZU9uVXNlIiB5Mj0iMzUuNDM1NiIgeDI9IjIyLjU3MDIiIHkxPSI0LjI1IiB4MT0iNi43NSIgaWQ9InBhaW50Ml9saW5lYXJfMzUxMF8yNjA0NCI+PHN0b3Agc3RvcC1jb2xvcj0iIzhEQzhFOCIgb2Zmc2V0PSIwLjMxNDk5MyIvPjxzdG9wIHN0b3AtY29sb3I9IiMwMDc4RDQiIG9mZnNldD0iMC41Mzc5ODciLz48c3RvcCBzdG9wLWNvbG9yPSIjQzAzQkM0IiBvZmZzZXQ9IjAuOTQyNzY5Ii8+PC9saW5lYXJHcmFkaWVudD48L2RlZnM+PC9zdmc+;" vertex="1" parent="1">
                    <mxGeometry x="730" y="120" width="50" height="50" as="geometry"/>
                </mxCell>
            </root>
        </mxGraphModel>
    </diagram>
</mxfile>